<svg xmlns="http://www.w3.org/2000/svg" viewBox="0 0 468.08037 150"><defs><style>.a{fill:#910000;}.b{fill:#fff;}</style></defs><circle class="a" cx="76.0539" cy="74.80572" r="67.90586"/><path class="a" d="M20.22138,21.9495c.04562-.04279.06122-.07066.10351-.11511a4.31339,4.31339,0,0,1-.15186-.58759Z"/><path class="a" d="M41.04691,7.77339l.16142-.02106C41.14009,7.6493,41.11046,7.52677,41.04691,7.77339Z"/><path class="a" d="M1.06931,75.25635a.59261.59261,0,0,0,.10956.41954A1.67709,1.67709,0,0,1,1.06931,75.25635Z"/><path class="a" d="M100.85421,144.86516l-.09591.05157a2.92365,2.92365,0,0,1,.29242.031Z"/><path class="a" d="M100.49942,145.35479c-.56653.033.048-.32181.25889-.43806a2.80635,2.80635,0,0,0-1.7684.4171C99.09107,145.63337,100.16644,145.21978,100.49942,145.35479Z"/><path class="a" d="M148.8771,84.19606l.09553.25792A.91159.91159,0,0,0,148.8771,84.19606Z"/><path class="a" d="M16.59293,73.22349c.02613.09806.03763.2086.06726.29877A.396.396,0,0,0,16.59293,73.22349Z"/><path class="a" d="M145.88089,96.58076l.433.28188A.79489.79489,0,0,0,145.88089,96.58076Z"/><path class="a" d="M20.173,21.2468l-.01228-.27A.96027.96027,0,0,0,20.173,21.2468Z"/><path class="a" d="M62.96222.66a.83058.83058,0,0,0,.18618.35364.4514.4514,0,0,1,.06473-.0078Z"/><path class="a" d="M142.04365,61.33017a.729.729,0,0,0,.1817-.09343l-.44-.33288A1.16085,1.16085,0,0,0,142.04365,61.33017Z"/><path class="a" d="M93.81842,3.85749c.04036-.05.12438-.0851.14466-.14524a15.32513,15.32513,0,0,0-3.56917-.98937l-.22556.58372C91.3899,3.44321,92.59744,3.67365,93.81842,3.85749Z"/><path class="a" d="M114.14312,30.02811c-.38269-.90632-.83615-1.75554-1.28571-2.63858a37.21485,37.21485,0,0,1,7.70095,7.11633c1.92008,2.33241,3.63663,4.57367,6.09361,7.39677l-.44507-.19883c.16181.53728.9344.53172,2.07057,1.94464a12.31666,12.31666,0,0,1,1.81071,3.45415q.2275.62667.45911,1.36028c.14115.49576.25968,1.03958.38758,1.61722a28.99237,28.99237,0,0,1,.57959,4.00441l-.11579.04328c.17234.36709.4018.28385.34838,1.16185.03821-.72572.02145-1.44079.00369-2.16475a13.44209,13.44209,0,0,1,2.25521,3.40045.73565.73565,0,0,1-.41389.6569c.42129,1.27449.89815,2.53914,1.23541,3.845l-.50161,1.37247c.35949.547.879.61429,1.31417.96773.41291.35433.76343,1.0119.53612,2.73079.99932-1.42587.903,1.55806,1.44284,1.07331-.122.18814-.28717.59889-.44644.92836.18052.98763.38834,2.42257.65289,3.73021a9.63805,9.63805,0,0,0,.78215,2.97565l.37021-1.28932c.21971-.79134.58252-1.88324.85272-3.06123.2973-1.17877.64432-2.45406.88372-3.58526.25909-1.13209.55018-2.1358.73828-2.74212.094,1.52256.11093,1.72034.21581,1.44966.08968-.26884.22165-1.00781.34976-1.33474l-.3234-.15421c-.04036-1.84581.68525-1.99007.72133-2.94592a.71679.71679,0,0,0-.19066.09416l.11775.09709a.18967.18967,0,0,1-.29945-.0037c-.15031.05332-.28248-.00673-.35578-.504l.09747.07778a14.569,14.569,0,0,1-.5443-2.62922l.59538-.16249a3.18691,3.18691,0,0,1-.75739-1.93c-.07739-.478-.13159-1.019-.17624-1.59578-.069-.56916-.12574-1.175-.176-1.79141-.055-.61459-.084-1.24692-.14738-1.84863-.07214-.6027-.14154-1.18375-.20528-1.71656-.06863-.53513-.138-1.0232-.21153-1.43347a5.50818,5.50818,0,0,0-.27351-.94922c-.06122-2.08648-1.97916-3.81534-2.80122-6.07685-1.73819-3.41409-.16689-2.12371-.75232-4.05373-.99386-2.2667-.33843.804-.90185.002-.27449-.97242-.56711-1.94659-.91333-2.89854,1.04766,1.3476.82094.3861.83342-.00839-.69442-1.0734-1.39371-2.60972-2.19458-3.81189a8.3563,8.3563,0,0,0-1.16288-1.52189,1.49938,1.49938,0,0,0-1.14669-.51156c-.89914-1.50434-1.28531-2.33639-1.577-2.91939a5.4465,5.4465,0,0,0-.941-1.52765c.18871.52218.72717,1.38231.55132,1.55815-.56926-1.384-.55464-.38766-.25129.10586a9.25119,9.25119,0,0,1-1.75009-1.94883c-.71722-.89065-1.469-2.02877-2.29341-3.03073-1.60172-2.05459-3.28728-3.78323-3.87272-3.38653l.15051-.19524c-1.00167.49547-.98082,1.74511-2.4638,1.3l-.52364-.925-1.44109-.494c-.61176-.83526-.07057-.77923.00039-.88011a19.94158,19.94158,0,0,1-3.53389-2.13794c-1.252-.8188-2.49987-1.79307-3.78168-2.48924.50259,1.26513.94045,2.56645,1.33832,3.85887-1.6719-1.7805-5.08785-4.79289-5.90255-4.16407-.31407-.47607-.62911-.96569-.95878-1.43728-1.93977-1.70291-2.82427-1.87525-3.40133-1.6876-.57841.16785-.85077.60172-1.683.04025-.66381-.58037-1.33776-1.16688-2.041-1.69881.79248.2156,1.567.48826,2.342.75914-1.088-.64558-1.853-1.09956-2.56849-1.52413-.71587-.43133-1.36272-.89746-2.25618-1.45092-.00254.00975-.02573.0118-.02807.02116.12438.07174.19944.13841.20255.20079l-.34728-.05554c-.42109.42178-1.75554.446-3.45337.04864a34.51607,34.51607,0,0,0-3.59628-.51234A15.88783,15.88783,0,0,1,84.68532,3.051c-.38035-.08967-.78078-.19944-1.20657-.33522-.42772-.11726-.88117-.25577-1.3666-.42655l-1.06074.949c-.965-.29507-1.94074-.53223-2.92545-.75242l.023-.81692c1.47088.03021,3.58965.131,5.81853.2622,1.1124.10489,2.25112.2123,3.34791.31563,1.09078.158,2.14038.31778,3.07849.47617l.139-.35432c-1.11668-.1971-2.324-.33171-3.43388-.42949a26.271,26.271,0,0,1-2.86521-.254C83.54229,1.40434,81.73141.45716,83.1491,0L81.67.68847C79.77215.536,78.34256.5639,77.14576.528,75.94877.47933,74.983.52163,74.0043.49124,73.02544.46455,72.03411.40616,70.78487.39417L68.68192.331c-.78644-.01517-1.66626.012-2.67806.019l.74257.31923a19.63093,19.63093,0,0,1-2.17488.5329c-.63534.118-1.14828.10011-1.42315-.18851-4.76522.66907-9.69125,1.57921-13.04792,1.70446-.1123.37616-.22167.75221-.323,1.14095-.9611.319-2.95878-.45618-2.912.97593-.62525.40258-1.22586.85244-1.83353,1.27528a10.61192,10.61192,0,0,0-1.62219.89249,4.34725,4.34725,0,0,1-1.87254.71177L41.537,7.714l-.009.00186c-.10274.01423-.21132.029-.31972.03645a.24037.24037,0,0,0,.05245.06308c-1.51205.52979-1.39469.73361-1.34147.93158.05205.2009.05166.41076-1.64968,1.06941-1.35823-.01023-.49029,1.6763-2.05421,2.42939l-2.2361-.20528a6.778,6.778,0,0,0-2.9851,2.11006,23.10449,23.10449,0,0,1-3.31379,3.4061c-1.98114,1.06239-3.61792.92868-3.17518-.84443-.70787,2.31144-.15226,1.24889-1.71577,3.55621-.66615-.08324-.53729-.35988-.42242-1.11688-2.202,1.25549-.74141,1.39595-2.04213,2.68283.341,1.06444,1.075,2.55826.72854,3.01571l.69711-.2895a18.7425,18.7425,0,0,1-1.54594,2.52745,14.27281,14.27281,0,0,1-2.17508,2.2743l-.33745-.36891c-.40375.66555-.84044,1.30318-1.21066,1.98752l-.593-.2549c-.58486.94649-1.19506,1.87242-1.74931,2.83274l.38874-.28657c-.17877.34887-.56456,1.09134-1.03949,1.87514-.23725.39224-.49634.79533-.76284,1.167a8.432,8.432,0,0,1-.763,1.00547l-.27566-.22342A10.77046,10.77046,0,0,0,9.854,39.522a20.98552,20.98552,0,0,0-1.182,2.70534c-.62482,1.90517-1.13014,3.92984-1.92417,6.20612l-.43455-.8497c-1.25627,1.29829.82679.80193-.14932,2.5256l-.86072-.19924c.5484,2.02447-.98158,2.03608-1.72688,3.088l1.25626-.20533-.8498,2.09856c-.53124,1.142-.96793,1.42936-1.34887,1.35979-.38307-.0696-.72035-.50278-.95916-.75807.15031.63739.32109,1.27285.48426,1.89932l-1.066.09914c.88332,1.49324-.51234,1.1928-.27021,3.50795-.41053.112-.52809-.48416-.82286.235L.387,63.16l.47783,1.90368c-.11073-.748-.25111-1.50627-.332-2.26227l1.42177.49041c.83557,2.379-.58368,2.99133-.303,4.64083-.11522-.37938-.24486-.76217-.33765-1.14389.12516,2.64608-.49537,2.72971-.93441,4.20492.30237-.45044.76909-1.12215.88317-.05489.05887.7802-.53378.39634-.71762,1.13063,1.00517.22224,1.41243,2.07867,1.00454,3.76949a.55082.55082,0,0,1-.37079-.163,1.61163,1.61163,0,0,1,.21249,1.40775l-1.111-.417,1.08471,1.4252c-.28151.98645.65816,2.34047-.10313,2.2662l-.26143-.53621c.06668,2.46078.26865,4.923.58038,7.37571l-.85.24627c.66167.26552.72542,1.27923.80847,2.1743.07837.89514.24427,1.65075.94513,1.37079A6.672,6.672,0,0,0,2.997,94.12976c.33259,1.04847.487,1.8616-.44585,1.69846.15284.59792.32362,1.15421.50626,1.68028.2045.51936.42322,1.00781.64646,1.47911.45735.93879.89482,1.82241,1.41827,2.70252.511.88468.98471,1.81285,1.47423,2.86081a28.94779,28.94779,0,0,1,1.4364,3.6533c-.16161,1.25688.49616,3.18318,1.56625,5.13182.262.48991.52812.99406.82269,1.48319.30608.48221.61332.96638.91569,1.44284.60123.956,1.20227,1.86764,1.74443,2.66866a72.96589,72.96589,0,0,0,6.89935,7.23563c1.17673,1.02087,2.30042,2.091,3.59335,3.10744.63924.51505,1.27654,1.06278,1.96726,1.59773.69519.52724,1.41651,1.07428,2.17254,1.64763a9.26553,9.26553,0,0,0,2.4872,2.95773,25.958,25.958,0,0,0,3.58691,2.3092c2.59072,1.36447,5.27657,2.52209,7.20035,4.14731l1.56118-.10178a7.15327,7.15327,0,0,0,2.24038,1.6376,21.50252,21.50252,0,0,0,2.93111,1.24135,33.50408,33.50408,0,0,1,6.37512,2.75145,12.14171,12.14171,0,0,1,2.03822.0696.78552.78552,0,0,1-.40941-.84316c1.14418.73993,3.81462.87708,3.40542,1.82562l-.34857.02692c-.21133.47246.79442.58573,1.99962.71787,1.21689.08276,2.626.17838,3.28182.74111L63.45,148.78457l1.19974.30432,1.21084.24866-.68584.123a88.26723,88.26723,0,0,1,13.03508.07457c3.7653.16756,7.6154.17789,12.30809-1.87359-.53709.70056-.08224.46038.55328.2008.62949-.28921,1.43036-.60581,1.63914.013a3.70647,3.70647,0,0,0,3.54833-.50035c.98548-.64958,1.83352-1.48514,2.73127-2.04114a.3158.3158,0,0,1,.06063-.27235c1.14242-.34438,2.30667-.63632,3.429-1.04962-1.40853,2.31993,1.91189-2.21709.58562-.19271a45.10352,45.10352,0,0,0,14.14317-6.7581,104.38093,104.38093,0,0,0,12.90216-10.7902l-.63417.05245c.48894-.48319.97979-1.02311,1.46955-1.57687.46535-.57494.93752-1.15831,1.39624-1.72523a15.5982,15.5982,0,0,1,2.71724-2.7925,4.54776,4.54776,0,0,0,1.64364-2.72512c.27859-1.0048.36437-1.92379.5422-2.28495a4.47224,4.47224,0,0,1,1.61927-2.38913c.56127-.44966.99445-.51425.71781-.10878,1.06639-2.23084.84785-4.88189,2.80185-7.62135.434-.11434.81041-.73145,1.15-1.57921a27.10851,27.10851,0,0,0,.80691-3.01035c.45111-2.12429.7605-4.116,1.53992-3.92906l-.11483-.07388a12.155,12.155,0,0,0,1.2167-2.96142,25.55381,25.55381,0,0,0,.531-3.13288c.16006-1.052.2008-2.13218.38639-3.20676a20.96273,20.96273,0,0,1,.78857-3.28026,1.11279,1.11279,0,0,1,.18833.2705,68.26381,68.26381,0,0,0-4.14585-9.39033q-2.6523,1.25436-5.30171,2.32022a57.82967,57.82967,0,0,1-4.842,6.40475,63.76874,63.76874,0,0,1-1.51887,8.8203,65.78623,65.78623,0,0,1-2.85956,8.55377,61.56045,61.56045,0,0,1-9.07228,11.08457,58.88366,58.88366,0,0,1-27.89234,19.26592l-2.07389,1.81909c-3.598-.14621-7.35651.57823-11.32281.975-3.93958.406-8.079.46174-11.61776-.75963l-.28659.98988a2.92708,2.92708,0,0,1-1.761-.54967c-.25694-.22137-.31387-.437-.55055-.56945A66.13715,66.13715,0,0,1,58.5567,131.603a63.24469,63.24469,0,0,1-6.87478-2.40054,60.88652,60.88652,0,0,1-6.56052-3.18649,58.80254,58.80254,0,0,1-6.06905-3.99534,56.53126,56.53126,0,0,1-5.47073-4.673,53.93812,53.93812,0,0,1-4.689-5.294,46.63973,46.63973,0,0,1-6.7036-11.75414,22.30224,22.30224,0,0,0-1.20149-4.02155c-.1316-.38757-.2624-.7725-.38776-1.14174-.10469-.37616-.19456-.73935-.26962-1.07447a4.63635,4.63635,0,0,1-.16084-1.59325,27.90251,27.90251,0,0,1-3.00828-8.10193c-.17567-.71031-.2509-1.43836-.37-2.15812a21.735,21.735,0,0,1-.25227-2.16942q-.07545-1.08711-.14991-2.16523-.00587-1.08126-.0117-2.14963l.11755.21321c-.10839-.89025-.14933-1.78352-.1854-2.67952a.17471.17471,0,0,1,.28366-.03433A7.97661,7.97661,0,0,1,16.335,70.661a16.03542,16.03542,0,0,1,.34936-2.92154,27.71063,27.71063,0,0,1,.7484-2.98006c.30373-.97057.56653-1.92.887-2.78537l.06.23151a73.61128,73.61128,0,0,1,2.16963-7.60888l.69109-1.83615c.21972-.61566.45873-1.22264.72815-1.81626l.76579-1.79707.84921-1.75506c.26942-.592.57179-1.166.88781-1.73263l.92641-1.71079c.68369-1.09993,1.30228-2.24293,2.04933-3.30132A58.23,58.23,0,0,1,32.13685,34.457,51.07756,51.07756,0,0,1,58.41556,18.13975c2.49207-.28,4.97341-.79911,7.56686-1.16064,1.28376-.24691,2.60651-.36027,3.93062-.58018q1.00156-.10541,2.01388-.21182c.67475-.08246,1.35452-.15,2.041-.176q1.02965-.06317,2.06707-.12672,1.03959-.00479,2.086-.00984c.6991-.01657,1.39781.01179,2.09652.065.69889.04883,1.40208.0773,2.101.15421a33.59362,33.59362,0,0,1,8.20221,1.93694c.85915.77133,6.78764,2.32733,12.2381,5.14633A99.60419,99.60419,0,0,1,114.14312,30.02811Z"/><path class="a" d="M133.5921,57.18218l-.02885-.08464C133.15482,57.22741,133.34548,57.30755,133.5921,57.18218Z"/><path class="a" d="M108.966,10.90334l.15616.09231-.33318-.85048Z"/><path class="a" d="M136.3142,34.97385c-.79852-1.46322-.966-1.443-.96053-1.16231A5.30555,5.30555,0,0,0,136.3142,34.97385Z"/><path class="a" d="M136.66512,68.13135c.06024.73311.27859.43162.50746-.03149-.14134-.74491-.23956-1.263-.23956-1.263C136.88445,67.26264,136.71289,67.70021,136.66512,68.13135Z"/><path class="a" d="M142.01811,64.24272l.38776.194C142.23782,63.98044,142.11617,64.02073,142.01811,64.24272Z"/><path class="b" d="M27.3108,50.72234c-.4788-.67063-1.29292-.7182-2.10782-.81412a7.50821,7.50821,0,0,0-.287-.719,2.57221,2.57221,0,0,1-1.67737-2.10782c0-.4312.19183-.91081.19183-1.38961a1.4745,1.4745,0,0,0-.14348-.62306,20.464,20.464,0,0,0,1.43718-2.44314h.14349c.19183,0,.19183.19183.4312.19183.2394-.86247,1.82085-.38367,2.29965-.86247.719,0,1.0543.33532,1.67658.38367a3.2655,3.2655,0,0,0,.67142-.09592c.33532-.14426.287-.4312.62229-.4312h.04835c.38288,0,.67063.33532,1.05351.4312a2.08269,2.08269,0,0,1,1.006-.33532.49463.49463,0,0,1,.52714.33532.555.555,0,0,1,.47959-.19183c.4312,0,1.00594.2394,1.43718.2394.33532,0,.62229-.14348.62229-.67063,0-.33532-.52637-.91-.52637-1.34128,0-.04834,0-.4312.33531-.4312h.33532c.19184-.09591.2394-.38366.4312-.4312a4.54255,4.54255,0,0,1,1.43719-.19183c2.20373,0,2.39557.719,2.73088,3.3056a2.94615,2.94615,0,0,1,1.38884.719c.5755.09592,1.0543.2394,1.67736.287a3.81528,3.81528,0,0,1,3.01786,3.21047,1.40823,1.40823,0,0,1-.19106.76658c-1.342.76658-3.59335.62229-4.264,2.06025-.95839.09514-1.24613.91-2.1086,1.05352-.14348.09591-.14348.28775-.14348.52715a20.82977,20.82977,0,0,0-2.49149,2.53905c.14426,1.24613.04835,2.68332.14426,3.92867.52637-.14348,1.29292-.4312,2.10782-.67063a10.261,10.261,0,0,1,2.10782-.62307.95449.95449,0,0,1,.8149.38366c-.09592.62229-.76658.91-1.10264,1.34127a24.97352,24.97352,0,0,1-1.58067,2.29965c-.71821.719-1.916,1.38962-2.34723,2.15617-.14426.38289,0,.91-.4312,1.10187a48.59559,48.59559,0,0,0,1.05352,7.09,12.70206,12.70206,0,0,1,.81491,3.30637,3.45357,3.45357,0,0,1-.47959,1.82007,1.31268,1.31268,0,0,1-.4312.04835c-1.67659,0-2.87437-2.58741-3.40152-4.16807a1.048,1.048,0,0,0,.04835-.38366c0-.57472-.2394-1.2937-.2394-1.82007a.85709.85709,0,0,1,.74516-.956l.02142-.00238c0-.23941-.04835-.47959-.04835-.719,0-1.10187.19183-2.20375.19183-3.258a6.54514,6.54514,0,0,0-.14348-1.38884,20.01737,20.01737,0,0,0-3.25805,1.29361,2.95766,2.95766,0,0,1-1.24612-.47958c-.14351-1.1494-1.14944-1.43719-1.293-2.53906a1.93614,1.93614,0,0,1-.47958-1.38962A1.41605,1.41605,0,0,1,29.371,58.915c.09592,0,.14426.04757.2394.04757.38366,0,.76658-.19105,1.15021-.19105h.19184c.287.04757.4788.38289.76658.4788a2.164,2.164,0,0,0,.76658.14349A9.95815,9.95815,0,0,0,35.36,58.53133c.04757-.7182.09592-1.5331.09592-2.29965a7.76141,7.76141,0,0,0-.52715-3.20969h-.09592c-.19183,0-.287.28775-.4312.28775a.17447.17447,0,0,1-.14354-.04831c-.28776-.09591-.23941-.52715-.43121-.71819a2.13048,2.13048,0,0,1-.4788.09591c-.38366,0-.67141-.14426-1.00674-.14426a1.162,1.162,0,0,0-.62228.19183c-.62307-.33532-1.53309-.43121-1.58144-1.34127-.19106,0-.57473.33532-.95839.33532a.77547.77547,0,0,1-.43045-.14348c-.28775-.19183-.24018-.719-.62306-.8149ZM60.08142,73.28763c0,.14348.04757.28775.04757.4788v.09592c-.04757.19182-.2394.38366-.28775.57549-.191,1.05353-.33532,2.10782-.4788,3.11378-.33532.2394-.81412.38367-1.10187.62307-1.24535-.76658-1.67658-2.44392-1.96436-4.16807.04834-.09591.09591-.14426.14348-.14426.09591,0,.24018.24018.4312.24018a.176.176,0,0,0,.14427-.04835c.91-.38288.7182-1.48475.86247-2.34722.14348-.62306.52637-1.19778.67064-1.86842.4788-1.91676.57471-3.977,1.58066-5.36585a10.22794,10.22794,0,0,1,.8149-2.5874c-.95837-.95838-5.31829-2.15617-6.32423-2.15617-1.48554,0-6.42013,3.21047-7.66551,7.95329a8.78981,8.78981,0,0,0-1.67658-.28775,5.87262,5.87262,0,0,1-1.15022-2.97029,1.61741,1.61741,0,0,1,.4312-1.19778c.38288-.33532.76658-.2394,1.38962-.4788,1.10187-.47881,1.86842-2.29966,3.01785-2.348.47967-1.006,1.53319-1.48482,2.20382-2.34723a9.25523,9.25523,0,0,0-4.02381,1.006c-1.91676-1.24535-3.977-2.29966-4.59929-4.88627a1.39411,1.39411,0,0,1,1.14943-.47962c.76658,0,1.67659.38366,2.68332.47959a7.81059,7.81059,0,0,0,1.05352.04756c1.67659,0,3.49743-.2394,5.12645-.2394a11.33757,11.33757,0,0,1,1.2937.04756c.33532,0,.7182.04835,1.10187.04835a11.89215,11.89215,0,0,0,1.24535-.09591,2.343,2.343,0,0,1,1.7725-.57472c1.96437,0,2.49148,0,3.01864-.5755,1.58067.52715,4.69522.38367,5.79709,1.58145a1.37608,1.37608,0,0,1,.4312,1.006,1.48335,1.48335,0,0,1-.57469,1.10183,16.92517,16.92517,0,0,1-4.21641.33538c-3.73684,0-5.55772.14348-6.70713,1.48553,1.86842,1.10187,4.79113.67064,7.33019,1.006,1.86842.23939,3.59335,1.10186,4.264,2.53905-.28775.76658-.719,1.67658-1.58145,1.67658-.287,0-.62228-.14348-.95759-.14348a.61278.61278,0,0,0-.28776.04757c-1.82085.47957-2.06024,2.92271-2.77845,4.69522-.14426.4312-.47958.76658-.5755,1.10187a18.12823,18.12823,0,0,1-.4312,2.1086,14.29678,14.29678,0,0,0-.62229,1.86842ZM56.24867,51.72827c-.14427,0-.23941-.04757-.33532-.04757H55.865c-.4788.19183-.95839.95838-1.5331,1.00595h-.04753c-1.006,0-2.92272-1.96437-3.49744-2.635-2.10781-2.39556-3.01863-4.74278-4.1205-8.19265-.19183-.62307-.57472-1.34127-.86246-2.15617a7.89721,7.89721,0,0,1-.7182-2.20374c0-.86246,1.43718-.9576,1.96436-.9576a4.82681,4.82681,0,0,1,1.86842.33532c.33531.191.62229.52637,1.00595.7182.28775.14426.62306.09592.86246.23941a8.81089,8.81089,0,0,1,2.77846,2.25208,3.68905,3.68905,0,0,1-.09591.76658.79348.79348,0,0,0,.62306.2394h.38367c1.197.38366,2.44314.62307,3.64092,1.006.4312-1.19778.33532-2.97029.71821-4.264-.04757-.287-.4312-.23941-.52715-.43121a3.362,3.362,0,0,1-.67064.04835,3.75389,3.75389,0,0,1-3.35321-1.82088c1.14944-.91,3.01785-.57473,4.8387-.86247.57472-.09514.95838-.4788,1.53311-.57472h.33531a5.3124,5.3124,0,0,1,3.49744,1.72493,7.2236,7.2236,0,0,1,.76658,1.48476v.09591c0,.86247-1.29369,1.629-2.06024,1.72494-1.006.4788-1.34127,1.82084-1.34127,3.258a12.50522,12.50522,0,0,0,.09591,1.34127c-.04835.2394-.28775.28775-.28775.52715a11.80615,11.80615,0,0,0,.62307,4.35993,7.40478,7.40478,0,0,1-.28775,1.48476,2.74338,2.74338,0,0,1-1.14944.23939c-1.86841,0-2.92271-2.0119-2.92271-4.0238a3.92874,3.92874,0,0,1,.09591-1.05429,1.06946,1.06946,0,0,0-.4788-.14349c-.62307,0-.91082.76658-1.34205.86246a.60952.60952,0,0,1-.287.04757c-1.15021,0-1.96436-2.10782-2.82677-2.34722a1.10055,1.10055,0,0,0-.19183.67064c0,.38288.14348.86246.19183,1.2937v.09514c0,.14426-.04834.28775-.04834.4312v.04834c.09591.38288.4312.38288.719.76658.19184.287.19184.62229.38288.81412.95839.91082,3.6417.47959,3.6417,2.44392,0,.14349-.04834.2394-.04834.38288a5.46077,5.46077,0,0,0-.47881.62307c-.09591,0-.14347-.04835-.19182-.04835-.38289,0-.57472.33532-.76658.43121Zm-5.6536,14.61281a14.00107,14.00107,0,0,0,1.0543-1.629c.7182-1.38961,1.19778-2.82677,2.05947-3.49743a1.17756,1.17756,0,0,1,.8149-.2394,1.02107,1.02107,0,0,1,.91.38289,16.30866,16.30866,0,0,1,.23939,2.01268,1.63928,1.63928,0,0,1-.04756.4788,6.95057,6.95057,0,0,0-2.97028,3.11377c-.43121.91082-.67064,2.635-1.86843,2.635a1.79056,1.79056,0,0,1-1.38961-1.58067c.04835-.52716.76655-1.10188,1.19779-1.6766Zm6.65955-2.97028c.19184-.8149,0-1.8692.86247-2.06025a1.313,1.313,0,0,1,.4312-.04835,2.00208,2.00208,0,0,1,1.7242,1.38964c-1.05354,1.82085-2.53907,3.40152-3.92794,5.60525a20.31164,20.31164,0,0,0-1.7249,2.97031c-.23941.62307-.8149,2.92272-1.58145,3.0662h-.14348c-.57471,0-.86247-.7182-.86247-1.38883a2.25289,2.25289,0,0,1,.14349-.8149c.19183-.4312.95838-.7182,1.2937-1.14944.52715-.67063.47958-1.58145,1.15021-1.82085.43123-1.67661,2.10782-3.78443,2.635-5.74876Z"/><path class="b" d="M71.93606,46.31487c.4312-.33532.67063-1.10186,1.38961-1.10186a2.08716,2.08716,0,0,1,.4788.09592c.33532.14347.76658.4788,1.24535.7182,2.635,1.48553,3.40153,1.91676,3.40153,3.258,0,1.006-.57472,1.86842-.57472,2.92272a2.73609,2.73609,0,0,0,.14348.86246.103.103,0,0,0,.09591.09514c.04835,0,.19184-.09514.28776-.09514a.04659.04659,0,0,1,.04757.04558v.002a2.47287,2.47287,0,0,0-.287,1.48554c0,3.11376,1.5331,6.70712,2.73089,8.81494.52715.95837,1.14944,2.15616,2.25131,2.25208.52714-.38366.5755-1.19778,1.15021-1.5331a5.86375,5.86375,0,0,0,.81412.7182c-.4312.67064-2.82677,3.01864-4.16807,3.01864-2.49148,0-5.03053-3.258-5.46176-4.59931a.61262.61262,0,0,1-.04757-.28775c0-.14349,0-.23941-.04835-.28775-.191-.52637-.91-.9576-.91-1.5331,0-.04758.04834-.14349.04834-.191a.65828.65828,0,0,1,.43046-.23941c.38366,0,.719.57472.95839.81412a29.29316,29.29316,0,0,0-2.10782-5.60526c-.04757-.23939-.4788-.04834-.57472-.28775a.61287.61287,0,0,0,.04757-.28775c0-.76578-.81412-1.05352-1.05352-1.67658-.67141-1.96437-.4312-4.93462-.81489-7.522a.17708.17708,0,0,1,.14348-.04757c.09591,0,.14426.19183.33532.19183ZM91.531,75.25195l-.19184-.4312c.09592-.4312.4788-.67064.4788-1.14944v-.09594c0-.19183-.14348-.38366-.191-.67063v-.33532a23.6509,23.6509,0,0,1,.95837-5.36585v-.52715a1.27157,1.27157,0,0,1,.287-1.00595,4.81883,4.81883,0,0,1-.14349-1.29371c0-.76658.09592-1.67735.14349-2.539.04834-1.00674.28775-2.06025.28775-2.97107v-.2394c-.04835-.33532-.28775-.57472-.28775-.91a4.68583,4.68583,0,0,1-.04757-.8149c0-.52637.04757-1.006.04757-1.48475a6.05516,6.05516,0,0,0-.14349-1.34127,3.72311,3.72311,0,0,0-.67064-.09591c-.719,0-1.43718.2394-2.15616.2394h-.23941c-.62306-.09591-1.05429-.4788-1.629-.4788a2.06552,2.06552,0,0,1-.23941.04757,6.39762,6.39762,0,0,1-1.96436-1.96437c1.86841-1.24535,4.40747-1.58067,6.803-2.39556-.23939-.57472-.04756-1.29371-.23939-1.96437-.04835-.287-.28776-.4788-.33532-.71821v-.09592c0-.19183.04756-.4312.04756-.62306v-.33532a11.08969,11.08969,0,0,0-.76658-3.64092c-.287-.719-1.10186-1.43718-1.10186-2.06025,0-.7182,1.96436-1.48553,2.92272-1.48553h.04757c.86246.4312,2.10782.4312,2.92271.86247.76658.4312,1.14944,1.38961,1.916,1.82084a29.70709,29.70709,0,0,0-.9576,5.893,7.35154,7.35154,0,0,0,.23939,2.06026,5.666,5.666,0,0,0,2.49149-.76659c.71821,0,1.29292-.24018,1.86841-.24018h.23941c.86247.09592,1.38961,1.00673,2.34721,1.00673h.09592a1.23951,1.23951,0,0,1,.43119.81412c0,1.86842-4.79113,2.635-7.1867,3.01864-.91,2.87437-.57472,6.89895-.91,10.01272-.04757.28775-.38289.57472-.52715.86247A19.37743,19.37743,0,0,0,95.699,66.2451a12.78611,12.78611,0,0,1-1.19778,3.06619v.62307c0,.287-.2394.287-.33532.43046-.719,2.68332-2.06025,5.12645-2.635,5.31828-.09592-.04757-.09592-.04757-.09592-.09591,0-.09592.09592-.19184.09592-.28776Zm10.444-34.35129c2.348,0,3.73683,2.635,4.21642,4.79114a3.27979,3.27979,0,0,0-.95839,1.58145c-2.39557-.09592-4.264-4.264-4.64687-6.08484a3.789,3.789,0,0,1,1.38884-.28774Zm6.3718-1.58066c1.438,0,3.16216.67063,3.21047,1.58066,0,.47958-1.19778,2.44392-1.82085,2.44392-.4312,0-.91-.62307-1.2937-1.00595-.81412-.76734-1.58067-1.19779-1.67659-2.5874a2.48465,2.48465,0,0,1,1.58067-.4312Z"/><path class="b" d="M86.38276,105.57633c.4312.76733,1.62825,1.67736,1.62825,2.5874a1.42221,1.42221,0,0,1-.71821,1.10187c-.67064,1.34127-.91,2.68331-1.58067,3.73683-.38367.5755-.91082.76659-1.38963,1.19779a15.56551,15.56551,0,0,1-1.58144,1.48554c-.62228.4312-1.29292.76659-1.96436,1.19779-.19105.04756-.04757.38288-.287.43119-1.24613.2394-2.01268,1.10187-3.3056,1.48476-.52714.19183-.86247.67063-1.342.8149-.95761.287-2.20374.04756-3.16215.62228-.76578-.33532-1.53311-.191-2.15539-.4312-1.2937-.43119-2.44391-2.49071-3.20968-3.545a.61275.61275,0,0,0,.04756-.28775c0-.57472-.52715-1.05352-.57471-1.7725,0-.33532.19105-.67063.19105-1.05352a.61289.61289,0,0,0-.04757-.28775c.09591-.28775.38367-.33533.4788-.62306.38367-3.20969,1.58145-5.55692,2.44391-8.2878-1.72493-1.629-3.44987-3.258-5.12645-4.88705-.719-.28775-2.348-1.43718-2.348-2.20374,0-.38366.28775-.67063,1.10187-.76658h.09591c.14427,0,.28775.04757.43121.04757h.09591c.2394,0,.38367-.19105.52715-.19105h.4788c.91082,0,1.82085.2394,2.06025.86169,1.96436.8149,2.87437,2.635,4.55174,3.73761,1.34127-3.258,3.11376-8.04917,3.11376-8.38449v-.04757A6.07437,6.07437,0,0,0,73.83012,89.623c-.4312-.62307-1.24535-.95838-1.82086-1.58145a8.41346,8.41346,0,0,1-1.43718-2.05947c.09592-.04834.14426-.09591.2394-.09591a4.49674,4.49674,0,0,1,.76658.191h.38366a15.48312,15.48312,0,0,0,3.258-.52637c.287-.14425.33532-.57549.57472-.76658h.09591c.57472,0,.95839-.47957,1.48476-.52714.28775,0,.57549.19183.86246.19183a.58538.58538,0,0,0,.43121-.19183c1.38961.23939,2.73088.62306,3.40151,1.72493a1.08809,1.08809,0,0,0-.14348.52637,2.84742,2.84742,0,0,0,.09591.5755,12.23846,12.23846,0,0,0-1.5331,2.77845c-.09592.2394-.4312.28775-.47959.57472a3.29776,3.29776,0,0,1,.19184,1.19779c0,.62306-.09591,1.29369-.09591,1.91676a3.58242,3.58242,0,0,0,.09591,1.00595h.19183c.2394,0,.4788-.04835.4788-.14349,0-.04834-.04757-.09591-.09592-.14426,3.06621.38367,3.88111,4.45582,4.79114,7.33019a5.3192,5.3192,0,0,0,.4312.91,1.33827,1.33827,0,0,0-.04757.43119c0,.91082.43121,1.629.43121,2.44392Zm-4.64765,2.53983c0-.52715.28775-.719.47959-1.0543a.60389.60389,0,0,1-.04835-.28775c0-.33531.23939-.62228.28775-1.00595v-.19183c0-.4788-.14426-.9576-.14426-1.48475,0-.4312.14426-.81412.14426-1.2937a30.46778,30.46778,0,0,0-.67064-3.68927c-.24018-1.10187-.67064-2.10782-.91082-3.11377-.09591-.4312.09592-.91-.4312-1.15021a.58521.58521,0,0,0-.52637.62306,1.49653,1.49653,0,0,0,.09514.38367c-.76658.62228-.91,1.86841-2.20373,1.96436a1.083,1.083,0,0,1-.4788.7182.77183.77183,0,0,0-.43121-.14348H76.753c-.47958.2394-.5755.86246-1.19779.86246a.92621.92621,0,0,1-.33531-.04834,3.628,3.628,0,0,0-1.58145,2.87514c1.10187.95761,2.348,1.77251,3.44987,2.77846.04756.04757.04756.04757.09591.04757.09514,0,.23941-.09514.33532-.09514.04757,0,.04757,0,.09592.04757-.04835.28775-.62307.67064-.719,1.14944a2.91622,2.91622,0,0,1-1.5331.38366,12.83411,12.83411,0,0,1-3.11377-.67063,17.37557,17.37557,0,0,0-2.06025,6.51529A1.46939,1.46939,0,0,0,71.77,113.769c1.19778,0,8.38449-3.01785,9.96516-5.46177Z"/><path class="b" d="M121.78987,114.43962c0,.19183.19106.33532.19106.47958,0,.04758,0,.09592-.09592.14348-.09514.09592-.14348.14349-.191.14349-.19183,0-.28776-.33532-.52715-.33532h-.04835c1.34205-3.0662,3.0662-6.51529,3.0662-10.92276a12.58475,12.58475,0,0,0-4.50338-10.10942c-.09592,0-.14349.09592-.14349.24018,0,.43045-.04757.4788-.04757.4788-1.10264,0-2.25208-.86246-3.54578-1.00594-.67063-.04835-1.629-.04835-2.34722-.04835-1.67736,0-6.27667,1.7725-6.70712,2.06025a8.958,8.958,0,0,1-1.24613.91h-.14349a1.24651,1.24651,0,0,0-1.10187.8149c0,.04757.04757.09591.23941.09591h.04756a24.60992,24.60992,0,0,0-3.16215,3.20969c-.33531.62307-.14348,1.43719-.57471,2.15617a2.55384,2.55384,0,0,1,.2394,1.19778c0,.57472-.09513,1.19779-.09513,1.82007,0,.14427.04757.33533.04757.52715a.67921.67921,0,0,0,.67063.38367,1.59709,1.59709,0,0,0,1.00595-.4312,1.83011,1.83011,0,0,0,.8149.191c.52715,0,1.00595-.191,1.72493-.191.76579-.719.57472-1.96437,1.29292-2.77923a2.36871,2.36871,0,0,1-.09591-.81412,9.93976,9.93976,0,0,1,.8149-3.16215c1.0543-3.01864,1.34126-3.73684,2.97028-3.73684a3.57284,3.57284,0,0,1,.95839.14349c.86246.23939,1.2937,1.19778,1.86841,1.72494a1.59852,1.59852,0,0,0-.14348.71819v.19183c-1.96437.719-2.68332,2.68332-3.11455,4.88705-1.38962,2.92272-2.0119,6.61121-2.44314,10.49231a.7902.7902,0,0,0-.2394.7182,1.89644,1.89644,0,0,1-.04835.52715c-.2394.52715-.95838.67063-1.19778,1.14944-1.96437-.81412-3.3056-2.25131-5.41342-2.97029-.52715.14427-.76658.5755-1.10187.95838-1.24613-.43119-2.73089-.57471-2.97029-2.06025-1.19778-.52715-1.96436-2.635-1.96436-4.55095a3.65437,3.65437,0,0,1,.04757-.719v-1.53311c0-1.916,2.0119-6.56363,2.06025-6.65955a21.47,21.47,0,0,1,3.7844-4.93462c1.10187-1.05353,2.73088-1.67659,4.07293-2.58662.04757-.09591.14348-.09591.287-.09591h.33532c.28775-.23941.33531-.719.81489-.76658h.14349c0,.04757-.14349.14348-.14349.19184.4312-.09592.57472-.47959,1.05352-.47959h.19184a6.52477,6.52477,0,0,1,4.40747-1.5331,7.02474,7.02474,0,0,1,1.00673.04835c.14348-.04835.191-.14427.38288-.19184a1.69668,1.69668,0,0,0,.81414.19184c.28774,0,.57549-.04835.86245-.04835,1.00674,0,1.91677.2394,3.977,1.82085h.19105a1.33332,1.33332,0,0,1,.4312.04757c2.348,1.72493,4.264,3.3056,5.6536,6.18075,1.0543,2.20374,1.14944,3.0662,1.14944,3.59335,0,.38289-.04757.76578-.04757,1.10187a1.81611,1.81611,0,0,0,.33531,1.24535c-.2394.28775-.19183.91-.33531,1.2937a2.73346,2.73346,0,0,1,.19183,1.05352c0,1.10187-.47958,2.15617-.47958,3.16216v.19183c-.4788.62306-.33532,1.5331-.57472,2.25208-.19183.3829-.62307.62229-.62307,1.05352v.19183a5.39972,5.39972,0,0,0-1.29292,1.629,1.91885,1.91885,0,0,0-1.43718.91ZM109.23732,90.10183v.14349c.04756.04835.04756.04835.09591.04835a.34206.34206,0,0,0,.287-.19184Z"/><path d="M202.82988,67.03618a28.9565,28.9565,0,0,1-5.1123,2.23144c-.07227,1.94434-.21631,3.96094-.28809,6.19336,1.43994-1.00879,2.95215-2.08886,4.46436-3.09668a1.38514,1.38514,0,0,1,.86377-.28808.40352.40352,0,0,1,.43213.36035c0,.792-1.36817,2.73633-5.83252,6.26465-.21582,10.08008-.21582,15.48144-.21582,17.85742v1.00781c0,4.32032-.43213,6.04883-1.728,8.13672q-.75659,1.29639-1.51221,1.2959c-.57617,0-1.15234-.50391-1.58447-1.43945a22.20387,22.20387,0,0,0-4.53613-6.04883c-.86426-.71973-1.29639-1.2959-1.29639-1.584,0-.14453.144-.21679.36035-.21679a3.59849,3.59849,0,0,1,1.00781.21679,10.85242,10.85242,0,0,0,3.74463,1.08008c1.2959,0,1.728-.86426,1.94385-2.73633.36035-2.73632.57617-5.54492.93652-15.19336-3.74462,3.24024-8.71289,7.77637-10.22509,9.36036a3.07523,3.07523,0,0,1-2.16016,1.29687c-.792,0-1.728-.57617-3.02441-1.72851-1.36817-1.22461-1.94385-1.94434-1.94385-2.44825s.50391-.71972,1.43994-.71972c2.3042-.07227,4.32031-.72071,8.92871-4.1045,2.73633-1.87207,4.96826-3.60058,7.05664-5.18457.07178-2.16015.14405-4.60839.28809-7.48925-.50391.14453-1.22412.28808-1.87207.43261a27.25261,27.25261,0,0,1-6.12061,1.00782,21.33285,21.33285,0,0,1-3.88867-.50391c-1.00781-.21582-1.43994-.43164-1.43994-.71973,0-.14453.21631-.28808.648-.36035,3.3125-.71972,8.78515-2.376,12.81738-3.74414.07178-2.08789.07178-3.88867.07178-5.47265,0-6.98438-.50391-9.793-1.36817-11.16114a3.77775,3.77775,0,0,1-.64794-1.65625c0-.43164.2163-.64746.792-.64746a9.68175,9.68175,0,0,1,3.45654,1.15137c2.3042,1.00879,3.24023,1.94433,3.24023,2.88086a2.64874,2.64874,0,0,1-.57617,1.51172c-.648.792-1.43994,4.53711-2.01611,12.457a15.76786,15.76786,0,0,1,4.32031-1.15137,5.13659,5.13659,0,0,1,1.44043.28711.78564.78564,0,0,1,.71973.793C204.41387,65.668,203.91,66.38774,202.82988,67.03618Zm36.72315,7.416c-.28809,0-.648-.07128-1.0083-.07128a16.26647,16.26647,0,0,0-2.01612-.07227,189.24014,189.24014,0,0,0-21.7456,2.08789c1.08008.86426,1.584,1.44043,1.584,1.94434,0,.36035-.28808.71972-.936,1.08007a20.59726,20.59726,0,0,0-3.3125,3.52833A125.25124,125.25124,0,0,0,230.264,80.42876a6.20541,6.20541,0,0,1,1.5122-.28809c1.08008,0,2.16016.50391,4.1045,1.72852,1.65625.93554,2.376,1.65625,2.376,2.376a2.15892,2.15892,0,0,1-.648,1.36817c-1.00781,1.00781-2.08789,4.248-3.88818,10.29687-1.87207,6.55274-3.3125,9.14453-6.84082,11.80957a4.00275,4.00275,0,0,1-2.3042.93555,1.30677,1.30677,0,0,1-1.15186-.57617,4.465,4.465,0,0,1-.144-.50391c-.28809-2.16015-1.22412-3.96-3.67236-6.4082a2.0257,2.0257,0,0,1-.72022-1.22461c0-.21582.144-.35938.43213-.35938a1.868,1.868,0,0,1,.792.21582c2.8086,1.22364,4.32032,1.72754,5.32862,1.72754.86425,0,1.29638-.43164,1.80029-1.29589,2.59229-4.96778,4.46436-10.44043,4.46436-14.40137v-.21582c-.07227-1.79981-.86426-2.23242-2.52051-2.30371-1.08008,0-2.87989.07129-4.896.14355,1.2959,1.15235,1.87207,1.79981,1.87207,2.376,0,.43262-.28808.7207-.72021,1.15234-.35987.50391-1.51221,2.52051-2.88037,4.96875-2.80811,4.89649-8.78467,11.23242-15.1211,13.249a3.86064,3.86064,0,0,1-1.29638.28808q-.4314,0-.43165-.21582c0-.2168.43165-.64844,1.2959-1.22461A42.20445,42.20445,0,0,0,218.887,91.66216c2.23242-3.67286,3.16846-6.1211,3.16846-7.63282v-.28808c-2.08838.14355-4.17627.43164-5.9043.71972,1.15186,1.08008,1.584,1.72852,1.584,2.16016,0,.36035-.28809.64844-.72022,1.08008a14.39922,14.39922,0,0,0-2.376,2.665c-2.52051,3.02343-5.76075,6.26367-10.15284,7.99218a4.53188,4.53188,0,0,1-1.58447.50391c-.21582,0-.28808-.07129-.28808-.21582a1.61668,1.61668,0,0,1,.50439-.71973c7.48828-5.61718,10.36865-10.72949,10.729-13.10546h-.64843a6.186,6.186,0,0,1-2.3042-.36036c-2.52,2.665-6.9126,6.04883-8.71241,6.76856a4.88991,4.88991,0,0,1-1.44043.28808c-.28808,0-.43212-.07128-.43212-.21582,0-.14355.144-.36035.43212-.64746a36.71427,36.71427,0,0,0,11.44922-13.89746c-1.87207.28809-3.3125.57617-4.24853.792-2.59229.64747-3.09619.64747-4.82422,0-1.36816-.5039-1.94434-1.00781-1.94434-1.29589s.43213-.50391,1.22412-.57618c13.60938-1.584,25.70606-3.60058,31.53858-5.041a8.623,8.623,0,0,1,2.59228-.35938,9.23176,9.23176,0,0,1,4.75245,1.43946c.72021.43261,1.08007.93652,1.08007,1.44043C242.36113,73.876,241.49736,74.45219,239.553,74.45219ZM230.9124,55.08305c-1.0083,1.00782-2.16015,3.3125-2.95263,6.55274-1.36768,4.82422-1.584,5.832-2.87989,7.48828a1.81232,1.81232,0,0,1-1.58447.86426c-.2876,0-.50391-.07227-.57568-.28809-.144-.28808-.43213-.5039-1.58448-.5039a36.84543,36.84543,0,0,0-5.32812.57617c-.21631.71972-.64844,1.08008-1.0083,1.08008-.28809,0-.57617-.2168-.792-.64844a20.38012,20.38012,0,0,1-1.0083-4.53613c-1.08008-7.27247-1.728-9.86524-2.59229-10.873a2.66428,2.66428,0,0,1-.57568-1.36817c0-.5039.5039-.86425,1.7998-.86425a15.25244,15.25244,0,0,1,2.3042.21582,21.94862,21.94862,0,0,0,9.145-2.87989,3.0094,3.0094,0,0,1,1.15186-.28808c.93652,0,2.16064.5039,4.75244,1.94433,1.80029,1.00782,2.52051,1.72754,2.52051,2.376C231.7044,54.29106,231.41631,54.65044,230.9124,55.08305Zm-7.48877-2.59277a7.14807,7.14807,0,0,0-1.80029.36035,53.57792,53.57792,0,0,1-5.9043,1.584c.07178,1.87207.144,3.67285.21582,5.32812a11.6829,11.6829,0,0,0,3.02442-.86328,4.3385,4.3385,0,0,1,1.584-.28809,3.0064,3.0064,0,0,1,2.08838.86426,1.05009,1.05009,0,0,1,.35986.5752c0,.36035-.43212.57617-1.584.792a22.0794,22.0794,0,0,1-5.47266.93652c.07227,1.87207.07227,3.74414.14405,5.76075a8.64939,8.64939,0,0,0,1.728-.28809,16.83272,16.83272,0,0,1,3.24024-.50391,4.841,4.841,0,0,1,1.0083.14356h.144c.35987,0,.648-.50391,1.15186-2.52051a38.66962,38.66962,0,0,0,1.36816-9.792C224.7918,53.06645,224.35967,52.49028,223.42363,52.49028Z"/><path d="M276.19707,80.06938a81.24552,81.24552,0,0,0-3.67236,14.041,2.70793,2.70793,0,0,0-.07178.71972c0,.86426.21582,1.5127.21582,2.30469a4.76234,4.76234,0,0,1-.35986,1.87207,1.66917,1.66917,0,0,1-1.65625,1.15137,3.19477,3.19477,0,0,1-2.3042-1.22363c-2.01611-2.376-2.66406-7.34473-2.73633-10.65723V85.54106c0-7.99219.79248-11.59277,1.65625-17.85742a64.00621,64.00621,0,0,0,.792-8.06445v-.792a9.89593,9.89593,0,0,0-.71972-4.39257,1.71363,1.71363,0,0,1-.28809-.86426c0-.28809.21582-.43164.57617-.43164a2.94416,2.94416,0,0,1,1.15186.28808c1.94433.86426,2.52,2.16016,3.3125,3.3125a7.54806,7.54806,0,0,1,1.08008,4.17579,9.51678,9.51678,0,0,1-.36036,2.66406c-2.376,7.20117-4.104,13.46582-4.104,19.58594a31.69961,31.69961,0,0,0,.43164,5.25683c2.80859-3.74414,4.75244-6.91308,6.26465-9.07324.43213-.71973.792-1.08008.936-1.08008s.144.14453.144.36035A4.90658,4.90658,0,0,1,276.19707,80.06938Zm31.251-9.9375c-1.51221.28809-3.16846.64844-4.75244.93653.07177,3.88769.35986,7.416.35986,10.80078a30.34442,30.34442,0,0,1-1.22412,9.43261c-1.65625,4.68067-4.96826,11.377-9.793,15.19336a1.93563,1.93563,0,0,1-.936.50391.19083.19083,0,0,1-.21582-.21582,2.23365,2.23365,0,0,1,.43213-.86426,48.28786,48.28786,0,0,0,6.33643-15.55273,120.834,120.834,0,0,0,1.15185-18.79395,56.61854,56.61854,0,0,1-6.76855.50391c-2.73584,0-5.1123-.43164-6.19238-1.72852-.792-.71972-.86426-1.00781-.21582-1.00781a3.5203,3.5203,0,0,1,.792.07227,5.79871,5.79871,0,0,0,1.15185.07226A64.9211,64.9211,0,0,0,298.80693,68.044c0-1.87207,0-3.74414-.07177-5.61621-.21582-4.32031-.50391-8.209-2.59229-9.86523-.792-.57618-1.22412-1.00782-1.22412-1.2959,0-.36035.57617-.50391,1.65625-.57617h.57617a12.584,12.584,0,0,1,5.83252,1.44043,2.40551,2.40551,0,0,1,1.15186,2.01562,5.21159,5.21159,0,0,1-.50391,1.87207c-.57617,1.584-.86426,4.249-.936,11.16113,2.3042-.64746,2.8081-1.15234,4.60839-1.22363h.648c2.16016,0,3.6001.35938,3.88819,1.36817,0,.07128.07226.14355.07226.28808C311.9124,68.69243,309.75225,69.77251,307.44805,70.13188Zm6.76855-13.82519a10.59124,10.59124,0,0,0-.21631,2.376c0,1.22461.21631,1.72852.21631,2.44825v.21679c-.07226.64746-.36035,1.79981-1.29638,1.79981a1.88435,1.88435,0,0,1-.792-.21582c-1.728-.86426-2.59228-4.75293-4.53613-7.84864a.95834.95834,0,0,1-.21631-.5039c0-.07227.07227-.07227.21631-.07227a2.629,2.629,0,0,1,.792.21582,15.38018,15.38018,0,0,1,3.96045,2.44824c.57569-.64843.936-1.00781,1.15186-1.29589a2.02332,2.02332,0,0,1,.57617-.57618.07045.07045,0,0,1,.07178-.07226c.07226,0,.144.14453.144.36035S314.2166,56.0186,314.2166,56.30669Zm7.20069,4.6084a2.14961,2.14961,0,0,1-1.0083.36035c-1.15186,0-1.8003-1.36817-2.16016-2.44825a17.83531,17.83531,0,0,0-3.3125-5.40039c-.2876-.36035-.43164-.57617-.43164-.71972,0-.07227,0-.14453.144-.14453a4.20255,4.20255,0,0,1,.936.28808c2.95215,1.44043,5.32812,2.73633,6.1206,4.68067a5.55959,5.55959,0,0,1,.50391,1.94433A1.5776,1.5776,0,0,1,321.41729,60.91509Z"/><path d="M382.18389,95.04594a13.9528,13.9528,0,0,1-13.53711,11.30567,12.98965,12.98965,0,0,1-6.19238-1.585c-5.18457-2.73535-6.98487-7.416-6.98487-13.10449a38.13723,38.13723,0,0,1,.57617-6.19239c-3.96045-.7207-6.62451-2.37695-6.62451-6.04883a10.00616,10.00616,0,0,1,.21582-1.94433c.14405-.57617.35987-.93555.57617-.93555.144,0,.35987.28809.35987.93555.144,3.3125,3.8164,3.88867,6.26465,4.03223.86425-3.52832,1.87207-7.27247,2.95214-11.30469-1.22412.14355-2.59228.43164-4.46435.71972h-.35986c-.28809,0-.50391-.07128-.50391-.21582,0-.14355.21582-.43164.64795-.71972.50391-.28809,1.51221-.86426,2.59228-1.44043a7.33243,7.33243,0,0,1-5.18457-6.33692c-.07226-.71972,0-1.15136.21582-1.15136.21631,0,.5044.21582.792.86425,1.29638,2.23145,4.03271,3.09571,7.63281,3.24024a81.81745,81.81745,0,0,0,1.728-8.13672,12.8827,12.8827,0,0,0,.144-1.585,7.15951,7.15951,0,0,0-2.23193-5.40039,1.48186,1.48186,0,0,1-.36036-.64746c0-.14453.21631-.28809.86426-.36035H361.95a8.15284,8.15284,0,0,1,5.32861,1.72851,3.83369,3.83369,0,0,1,1.584,2.95215,6.49161,6.49161,0,0,1-.64795,2.51953c-.936,2.377-2.16016,5.25684-3.52832,9.001,1.94434.21582,3.16846.93652,3.16846,2.23242a1.58068,1.58068,0,0,1-.07227.57617c-.28809,1.08008-1.2959,1.72852-3.88818,1.72852h-.86426a83.23278,83.23278,0,0,0-3.168,11.80859c2.08789-.14355,4.104-.57617,5.18408-.57617h.28809c2.59228,0,3.67236,1.08008,3.67236,2.30469,0,1.36816-1.51221,2.16015-3.67236,2.44824-1.00781.07129-2.66406.21582-4.248.21582a15.60891,15.60891,0,0,1-1.87256-.07227c-.07177,1.15235-.14355,2.23243-.14355,3.38477,0,5.47168,1.43994,10.51269,5.47217,13.6084a5.25362,5.25362,0,0,0,3.24023,1.15234c3.52832,0,7.20068-3.67187,8.71289-9.50488a16.92827,16.92827,0,0,0,.50391-4.46387A32.58283,32.58283,0,0,0,374.263,77.33305a4.47669,4.47669,0,0,1-.35986-1.29687c0-.14356.07226-.21582.144-.21582.144,0,.43213.21582.936.7207,3.67237,4.248,7.48877,9.50488,7.48877,15.625A13.484,13.484,0,0,1,382.18389,95.04594Z"/><path d="M466.06426,88.85356c-3.02442,6.26465-10.80078,10.80078-22.17774,13.10547a4.76671,4.76671,0,0,1-.93652.07227c-.57568,0-.936-.14453-.936-.36036s.43212-.57617,1.29638-.93652c8.56885-3.38379,15.91309-8.49609,19.08155-17.06543a22.11009,22.11009,0,0,0,1.43994-7.7041,17.22625,17.22625,0,0,0-5.83252-13.32129c-2.52-2.23242-5.97657-2.88086-8.92871-2.88086a25.03715,25.03715,0,0,0-3.52832.28809,10.2436,10.2436,0,0,1,.144,3.3125c-1.79981,8.4248-7.92041,20.73828-15.48145,28.083-1.36767,1.36816-4.46435,3.02343-6.26416,3.02343a2.01485,2.01485,0,0,1-.64843-.07129c-1.22412-.64843-2.08789-2.08886-2.66407-4.89648a28.326,28.326,0,0,1-.72021-6.48047,26.96687,26.96687,0,0,1,4.10449-14.61719c3.38428-5.11328,11.665-9.86523,20.01758-10.65722a16.22273,16.22273,0,0,1,1.87256-.07227,22.38129,22.38129,0,0,1,19.22558,10.72949,22.4971,22.4971,0,0,1,.936,20.44922Zm-22.106-28.6582c-9.7207,1.44043-14.90527,5.1123-17.78564,9.57715a18.64991,18.64991,0,0,0-2.66407,10.22461A22.08292,22.08292,0,0,0,425.16484,88.71c7.92041-5.40039,15.69727-16.70606,18.50538-26.28223a11.975,11.975,0,0,0,.28808-1.87207Z"/></svg>