<svg xmlns="http://www.w3.org/2000/svg" viewBox="0 0 475.95511 150"><defs><style>.a{fill:#910000;}.b{fill:#fff;}</style></defs><circle class="a" cx="76.02822" cy="74.81368" r="68.03064"/><path class="a" d="M20.21049,21.97148c.0455-.04288.06113-.07068.10351-.11511a4.218,4.218,0,0,1-.14589-.58173Z"/><path class="a" d="M41.02117,7.78108l.16093-.02192C41.11492,7.65791,41.0862,7.53714,41.02117,7.78108Z"/><path class="a" d="M1.03319,75.26435a.59884.59884,0,0,0,.108.41965A1.70333,1.70333,0,0,1,1.03319,75.26435Z"/><path class="a" d="M100.83565,144.89333l-.09609.05131c.0957.01.18965.00868.292.02912Z"/><path class="a" d="M100.47882,145.37769c-.56582.03538.0496-.31741.26074-.43305a2.85022,2.85022,0,0,0-1.768.41992C99.07123,145.65919,100.14718,145.24626,100.47882,145.37769Z"/><path class="a" d="M148.88661,84.20871l.09355.2577A.91518.91518,0,0,0,148.88661,84.20871Z"/><path class="a" d="M16.307,73.2246c.02578.09844.03692.20951.06621.3A.40422.40422,0,0,0,16.307,73.2246Z"/><path class="a" d="M145.89387,96.60085l.42539.27955A.7715.7715,0,0,0,145.89387,96.60085Z"/><path class="a" d="M20.16811,21.27464l-.01-.2678A.94843.94843,0,0,0,20.16811,21.27464Z"/><path class="a" d="M62.93535.66254a.80793.80793,0,0,0,.18535.34755l.06465-.00781Z"/><path class="a" d="M142.149,61.3113a.702.702,0,0,0,.17871-.09284l-.43457-.33484A1.185,1.185,0,0,0,142.149,61.3113Z"/><path class="a" d="M93.80273,3.82615c.04-.04913.12383-.08332.14394-.14245a15.56,15.56,0,0,0-3.57163-.987l-.22382.574C91.37346,3.40887,92.58124,3.64092,93.80273,3.82615Z"/><path class="a" d="M114.29349,29.82934c-.39-.904-.851-1.75047-1.30741-2.63049a37.67793,37.67793,0,0,1,7.73311,7.146c1.92986,2.3405,3.655,4.59107,6.1136,7.43129l-.44258-.20261c.165.53787.93026.53935,2.067,1.96013a12.56344,12.56344,0,0,1,1.81931,3.467q.23.62843.46464,1.36384c.14336.497.26445,1.04216.39512,1.6211a29.36617,29.36617,0,0,1,.601,4.014l-.11387.04256c.17265.36893.39843.287.35119,1.16664.0334-.72729.01172-1.44373-.01094-2.16889a13.67345,13.67345,0,0,1,2.24568,3.42108.72706.72706,0,0,1-.4041.6561c.42187,1.28018.899,2.55045,1.23651,3.862l-.48788,1.37475c.35663.5503.86776.62,1.29764.97615.40741.35719.75565,1.01759.5367,2.74192.98006-1.42785.89256,1.56583,1.42264,1.08069-.11953.18841-.281.60016-.43691.93045.17988.99149.38612,2.43187.64823,3.74435a9.82527,9.82527,0,0,0,.77089,2.98625s.1416-.50327.36367-1.2935c.21562-.7937.57284-1.88887.83651-3.0698.29082-1.18179.63066-2.4598.86327-3.593.25215-1.13412.53691-2.13918.71972-2.746.09707,1.52564.11328,1.724.21621,1.453.08768-.26915.216-1.00912.34079-1.33625l-.31875-.15533c-.0457-1.84907.66816-1.991.7008-2.9479a.69744.69744,0,0,0-.1875.09354l.11621.0976a.18493.18493,0,0,1-.29492-.00479c-.14765.05287-.27794-.00769-.352-.506l.0961.07828a14.87826,14.87826,0,0,1-.54648-2.63429l.58572-.16005a3.248,3.248,0,0,1-.75507-1.93465c-.07851-.47873-.1344-1.02025-.18125-1.59742-.07109-.5696-.13027-1.17574-.1832-1.79234-.0576-.61485-.08925-1.24727-.15527-1.849-.0748-.60261-.14687-1.18366-.21308-1.71643-.0707-.535-.14219-1.02308-.217-1.43338a5.61127,5.61127,0,0,0-.27617-.94959c-.07359-2.08352-1.97888-3.8219-2.80817-6.08354-1.74353-3.41675-.18046-2.11843-.77439-4.04573-1.00036-2.2653-.32851.79814-.892-.005-.2787-.97086-.57578-1.94336-.92635-2.8934,1.04765,1.34959.81542.39067.8246-.00172-.69569-1.07385-1.39959-2.60823-2.20309-3.8097a8.49107,8.49107,0,0,0-1.16405-1.52259,1.5095,1.5095,0,0,0-1.14061-.51767c-.9037-1.50233-1.29335-2.33185-1.58768-2.91285A5.53121,5.53121,0,0,0,128.33356,23.5c.1912.51982.73261,1.37818.55976,1.5513-.57617-1.37862-.55351-.3896-.24844.103a9.44053,9.44053,0,0,1-1.75271-1.94909c-.71972-.88928-1.47459-2.02513-2.30231-3.0247-1.6078-2.05007-3.29742-3.77461-3.87632-3.38662l.148-.19207c-.992.48239-.96092,1.72-2.43961,1.26681l-.5289-.91965-1.43827-.5006c-.61561-.83156-.07636-.7716-.00639-.87084a20.36568,20.36568,0,0,1-3.53609-2.14152c-1.25409-.81809-2.50446-1.79076-3.78785-2.48637.51015,1.25235.956,2.54134,1.36268,3.82175-1.68064-1.77376-5.1097-4.76932-5.91906-4.15366-.3166-.47179-.63418-.95711-.9662-1.42432-3.92945-3.42156-3.4484-.51967-5.08823-1.65284-.66639-.57553-1.34275-1.15716-2.04821-1.68411.79335.2157,1.56854.48847,2.3443.75951-1.09061-.6414-1.8572-1.09234-2.57418-1.51411-.71719-.428-1.36559-.8905-2.26091-1.43892-.00235.00954-.0256.01149-.02794.02075.12462.07109.19981.137.20332.19845l-.34726-.056c-.41933.41393-1.75349.43261-3.45269.03548a35.02635,35.02635,0,0,0-3.59878-.51469,16.17854,16.17854,0,0,1-2.08513-.34175c-.38066-.089-.78143-.19793-1.2078-.33247-.42792-.11592-.882-.2528-1.368-.42147l-1.06015.93246c-.9662-.2919-1.94294-.52578-2.92847-.7427l.02266-.80373c1.47185.02979,3.59174.13182,5.8216.26433,1.11288.10554,2.25212.2136,3.34937.31765,1.09119.15862,2.14119.31894,3.07965.47748l.13789-.34833c-1.11718-.19714-2.32477-.3333-3.43472-.43249a26.71094,26.71094,0,0,1-2.86618-.256C83.51966,1.38179,81.70717.44831,83.12435,0l-1.4783.6756c-1.89842-.153-3.32848-.12531-4.52554-.16135C75.92305.46552,74.95688.50819,73.978.47848,72.9989.45271,72.00729.39556,70.7579.3856L68.655.32609c-.7867-.01386-1.66638.015-2.67789.02386l.74159.31271a19.99748,19.99748,0,0,1-2.17575.529c-.63554.11792-1.14823.10183-1.42225-.18154C58.35493,1.68145,53.43042,2.6,50.08005,2.74061c-.11406.37129-.225.7425-.32831,1.12639-.96113.31987-2.94956-.43371-2.9109.97828-.62622.40041-1.22755.84825-1.83632,1.269a10.77836,10.77836,0,0,0-1.62323.89039,4.41545,4.41545,0,0,1-1.87106.715L41.51,7.7193l-.0088.00184c-.10273.01474-.21093.03-.31914.038a.23579.23579,0,0,0,.052.06192c-1.51034.53285-1.39471.73359-1.34319.92878.0504.198.04863.40532-1.65056,1.06793-1.35272-.00073-.50059,1.65941-2.06306,2.416l-2.22439-.18649a6.88393,6.88393,0,0,0-2.98512,2.11,23.5486,23.5486,0,0,1-3.32008,3.39884c-1.97634,1.06891-3.59995.94862-3.14625-.81142-.72108,2.29575-.16074,1.23875-1.73084,3.53858-.66034-.07725-.53006-.3526-.41014-1.104-2.19451,1.26178-.74648,1.39012-2.04647,2.677.32969,1.05343,1.04511,2.53017.69765,2.9871l.69374-.293a19.14014,19.14014,0,0,1-1.5531,2.52289,14.59923,14.59923,0,0,1-2.17283,2.27785l-.33124-.36407c-.40507.66493-.843,1.30193-1.21425,1.98576l-.58514-.2488c-.58574.94611-1.19686,1.87156-1.75213,2.83156l.38632-.28816c-.17929.34856-.5662,1.09064-1.04159,1.87447-.23749.39222-.49686.79551-.76308,1.16746a8.57637,8.57637,0,0,1-.76111,1.00719l-.2707-.22066A10.91759,10.91759,0,0,0,9.81915,39.5253a21.33965,21.33965,0,0,0-1.18478,2.70441c-.62831,1.90379-1.13963,3.92644-1.93474,6.20317l-.42371-.84573c-1.24569,1.30256.81015.79569-.16074,2.5219l-.84747-.19447c.53085,2.01875-.97812,2.03777-1.71639,3.09159l1.23846-.21075L3.9435,54.89555c-.52831,1.143-.95919,1.43179-1.334,1.36374-.37714-.06807-.7078-.4995-.942-.75354.1457.636.31171,1.27025.47011,1.89557l-1.05.10277c.86479,1.48883-.50918,1.19311-.277,3.50568C.40624,61.12286.29238,60.52758,0,61.247L.37578,63.17l.46639,1.90186C.735,64.32434.59784,63.5666.52031,62.81124l1.398.48668c.81759,2.377-.581,2.99217-.307,4.64112-.11289-.37924-.24023-.76184-.33047-1.14332.11933,2.6459-.491,2.7305-.92479,4.20583.29785-.45058.7578-1.12288.86893-.05555.05743.7803-.52538.3968-.70663,1.13119.98925.22149,1.38787,2.07861.98769,3.76985a.538.538,0,0,1-.36485-.16305A1.63472,1.63472,0,0,1,1.351,77.0921L.2576,76.67459l1.06776,1.42586c-.2768.98634.65018,2.3415-.0992,2.26643l-.258-.5366c.06816,2.461.27148,4.92324.5848,7.37571L.717,87.44991c.65214.26707.71759,1.28052.80194,2.17524.0795.89483.2459,1.65016.935,1.37282a6.77146,6.77146,0,0,0,.51621,3.14013c.332,1.04867.48749,1.86144-.432,1.69446.15311.59779.32342,1.154.50585,1.68011.2039.5194.42187,1.008.64413,1.47951.45546.93929.89022,1.82372,1.4115,2.70458.5088.8855.98086,1.81438,1.46971,2.86264a29.53351,29.53351,0,0,1,1.43983,3.65168c-.1512,1.25174.50976,3.17572,1.58064,5.12322.26231.48963.52832.9935.823,1.48247.30605.48213.61308.96609.91542,1.44247.60117.95565,1.20194,1.86717,1.74471,2.66768a73.0295,73.0295,0,0,0,6.88741,7.243c1.17518,1.02221,2.297,2.09376,3.58882,3.11167.63847.5158,1.27519,1.06428,1.96521,1.6.69452.528,1.41542,1.0758,2.17068,1.64993A9.38938,9.38938,0,0,0,30.18,135.47964a26.29592,26.29592,0,0,0,3.58492,2.31183c2.58766,1.368,5.271,2.53153,7.19911,4.14854l1.55525-.0902a7.23907,7.23907,0,0,0,2.24411,1.63024,21.69562,21.69562,0,0,0,2.93122,1.24171,34.27948,34.27948,0,0,1,6.37746,2.74436,12.309,12.309,0,0,1,2.03591.07715.779.779,0,0,1-.4123-.83228c1.14589.73445,3.815.87866,3.40933,1.81126l-.34823.02519c-.20919.46451.79589.57965,2.00056.71393,1.21619.0849,2.625.1829,3.28179.73863l-.6164-1.19806,1.20018.30287,1.21112.2472-.68534.11966a91.54659,91.54659,0,0,1,13.036.08539c3.76635.16285,7.615.16838,12.31215-1.86586-.53925.69119-.08378.45344.55254.19614.62988-.287,1.43162-.60166,1.63807.00684a3.75443,3.75443,0,0,0,3.547-.50639c.98709-.64423,1.83806-1.47038,2.73727-2.02318a.30981.30981,0,0,1,.06192-.2688c1.14256-.34528,2.307-.6381,3.42944-1.05235-1.41873,2.2955,1.92049-2.1969.58554-.19332a45.4067,45.4067,0,0,0,14.143-6.76741,103.70212,103.70212,0,0,0,12.90472-10.79291l-.62929.05719c.48886-.4835.98007-1.02343,1.4703-1.577.46581-.57489.93846-1.15814,1.39783-1.725a15.91519,15.91519,0,0,1,2.71344-2.79693,4.61128,4.61128,0,0,0,1.648-2.72306c.28339-1.00166.37578-1.91688.55409-2.278a4.54543,4.54543,0,0,1,1.61893-2.391c.55781-.45211.98632-.51963.70995-.11366,1.06952-2.22957.87323-4.87079,2.81872-7.61689.4289-.1168.80428-.73481,1.14471-1.58272a27.51927,27.51927,0,0,0,.81288-3.00975c.45644-2.12358.77089-4.11538,1.53807-3.93214l-.1127-.07328a12.35141,12.35141,0,0,0,1.21151-2.96467,25.87342,25.87342,0,0,0,.53476-3.13364c.16191-1.0522.20449-2.13272.3904-3.20788a21.47547,21.47547,0,0,1,.784-3.28288,1.10124,1.10124,0,0,1,.1848.27021,68.41286,68.41286,0,0,0-4.0687-9.395q-2.61,1.25642-5.21732,2.32739a58.12442,58.12442,0,0,1-4.77611,6.43653,64.00822,64.00822,0,0,1-1.53494,8.85718,66.04152,66.04152,0,0,1-2.88044,8.58692,61.85144,61.85144,0,0,1-9.08388,11.15221A59.15729,59.15729,0,0,1,93.297,131.52007l-2.08943,1.80374c-3.608-.12646-7.38505.6-11.3686.99523-3.95755.40465-8.11318.45616-11.66978-.75563l-.28515.97359a2.98505,2.98505,0,0,1-1.76931-.5463c-.2586-.21885-.3166-.43128-.55449-.56261a66.26611,66.26611,0,0,1-7.106-1.567,63.4278,63.4278,0,0,1-6.90362-2.41464,61.15422,61.15422,0,0,1-6.587-3.20405,59.14475,59.14475,0,0,1-6.0925-4.01528,56.89367,56.89367,0,0,1-5.49193-4.69428,54.306,54.306,0,0,1-4.70854-5.31593,47.036,47.036,0,0,1-6.74113-11.79852,23.00864,23.00864,0,0,0-1.216-4.03553c-.13262-.38921-.26426-.77574-.39062-1.14645-.10566-.3777-.19649-.74239-.27265-1.07881a4.7371,4.7371,0,0,1-.16856-1.59833,28.32837,28.32837,0,0,1-3.00055-8.14362c-.17577-.71352-.251-1.4447-.37011-2.16764-.11094-.72445-.215-1.4491-.25312-2.17868q-.0756-1.09172-.15078-2.17448-.00645-1.08581-.0127-2.15877l.116.2141c-.10761-.89409-.14745-1.79111-.1824-2.69087.085-.11211.2043-.12249.27909-.03463a8.14047,8.14047,0,0,1-.25136-2.57311,16.3521,16.3521,0,0,1,.34922-2.93416,28.09852,28.09852,0,0,1,.7453-2.99385c.30253-.97527.56425-1.92935.88417-2.79906l.0582.232a73.56744,73.56744,0,0,1,2.17986-7.64339l.69491-1.84429c.2209-.6184.46113-1.22805.73183-1.82424l.7703-1.80489.8537-1.76252c.2709-.59444.575-1.17086.89257-1.73981l.93154-1.71786c.6873-1.10448,1.30959-2.252,2.06033-3.31469a58.5264,58.5264,0,0,1,4.71361-6.21433A51.45364,51.45364,0,0,1,58.31176,17.8965c2.50056-.28959,4.99292-.81431,7.59835-1.17847,1.28963-.24841,2.61871-.3623,3.949-.58249q1.00634-.10525,2.02317-.21164c.67773-.08245,1.36073-.14971,2.05038-.17549l2.07634-.1257,2.09549-.00865c.70233-.01623,1.40408.01262,2.106.06621.70195.04929,1.40838.078,2.11033.1552a34.07905,34.07905,0,0,1,8.24189,1.9364c.86559.76454,6.82432,2.32744,12.30023,5.16234A98.676,98.676,0,0,1,114.29349,29.82934Z"/><path class="a" d="M133.80516,57.11712l-.0291-.08506C133.37433,57.15993,133.56278,57.24137,133.80516,57.11712Z"/><path class="a" d="M108.968,10.85738l.15644.09227-.33808-.842Z"/><path class="a" d="M136.33442,34.95161c-.801-1.46306-.96718-1.44388-.95936-1.16453A5.42232,5.42232,0,0,0,136.33442,34.95161Z"/><path class="a" d="M136.87446,68.11364c.06113.73582.27519.43365.4994-.03057l-.23906-1.26782C137.08813,67.24229,136.92035,67.681,136.87446,68.11364Z"/><path class="a" d="M142.13318,64.22814l.38222.19555C142.34862,63.96612,142.22908,64.00609,142.13318,64.22814Z"/><path class="a" d="M31.73035,76.26117h-.19219c-.83176,0-1.21561-.63985-1.72758-.89583-.25624-.12812-.70416-.06406-.9604-.19218a10.64046,10.64046,0,0,1-1.5354-1.15181,1.0903,1.0903,0,0,1-.44844.06406c-.63957,0-1.15154-.576-2.04789-.576h-.12756c-1.02395-1.27994-2.752-3.07184-2.752-5.05566a3.48431,3.48431,0,0,1,.4479-1.72784c.89582-.32006,1.79217-.6401,2.688-1.02395,2.176,1.21586,4.60775,2.36767,7.0395,3.96765,2.752,1.79191,4.73587,3.13591,5.75982,6.3356-.19219.576-.31979,1.15207-.512,1.66405h-.576c-2.176,0-3.07183,0-3.71195.38385C32.62617,77.47729,32.24231,76.8372,31.73035,76.26117Zm3.776-25.08667c1.21561,0,1.4078,1.7919,2.75152,2.04789.12813.832.83177,1.088,1.34426,1.53592.63958,1.664,2.4958,3.00778,2.4958,4.86374a3.6164,3.6164,0,0,1-.38437,1.53592c-.512.512-1.08748,1.02395-1.66352,1.53592-2.62392-.19192-5.952.256-7.552-1.08775-.576.12786-1.27967.0638-1.79164.19192-.19218-.12812-.19218-.44817-.19218-.768,0-.32005,0-.6401-.19167-.768a3.31448,3.31448,0,0,1-.70416.12786,2.61719,2.61719,0,0,1-2.112-1.6c-.38385,0-.25572.32005-.512.32005h-.06406c-.95988-.44791-1.27967-1.47185-1.98383-2.23982v-.06405c0-.19193.12813-.19193.12813-.31979v-.06407a34.392,34.392,0,0,1-2.30414-4.28794,1.97517,1.97517,0,0,0,.12812-.512c0-.70389-.576-1.15181-.576-2.04789a1.40835,1.40835,0,0,1,.06406-.512c1.088-.7677,1.4078-2.17576,2.176-3.1997.31979-.12787.576-.19192.89582-.32005a1.14006,1.14006,0,0,1,1.088-.89582,1.3356,1.3356,0,0,1,1.024.512,1.23428,1.23428,0,0,1,.6401-.19219c.12812,0,.31978.06406.512.06406a.7829.7829,0,0,0,.576-.256c.76769.12812,1.088.832,1.79164.832a.80944.80944,0,0,0,.38385-.06406c.76822.832,1.02394,2.112,2.4958,2.112.12812,1.02395,1.02395,1.21587,1.28019,2.04789a1.408,1.408,0,0,0-.06406.512,3.07,3.07,0,0,0,.25625.95988Zm-8.95979,40.254c-.12812-1.344-1.27967-1.6-1.79216-2.49581a1.50492,1.50492,0,0,0,.12812-.512c0-.96014-1.34373-1.47212-1.34373-2.432,0-.44791.12812-.83176.89582-.83176.576,0,1.47186.31979,2.176.38385a4.5114,4.5114,0,0,0,.76769-.12812c.576.12812,1.02395.76822,1.53592.89608h.38437c.31979,0,.57552-.06406.89582-.06406a1.5052,1.5052,0,0,1,.512.12811c.31978.70391,1.088,1.08776,1.53592,1.66379a.46275.46275,0,0,1,.38385-.256c.19218,0,.38385.19193.64009.256.70364.19218.512.19218.89582.768.32031.576.89582,1.02395.95989,1.344v.19193c0,.19192-.06406.512-.06406.70389,0,.70416.44843,1.40806.44843,2.0479a.81084.81084,0,0,1-.06406.3841,2.28525,2.28525,0,0,1-2.112,1.21588c-1.72811,0-3.776-1.34374-5.1838-1.79191A1.83927,1.83927,0,0,0,26.54655,91.42846ZM61.04092,99.62a1.09031,1.09031,0,0,1-.44844-.06407,27.1236,27.1236,0,0,1-1.5354-2.55986c-.25624-.63983-.12811-1.47185-.51248-2.17575-.76771-1.344-3.45569-1.21613-5.3114-1.7919-1.53592-.44817-2.81611-1.72784-4.352-1.7919h-.512c-1.02395,0-1.66352.256-2.43174.256-1.91977,0-3.51975-1.92-4.09578-3.07184-.512-.89608-.576-2.432-1.79164-2.62393h-.25625c-.512,0-1.02394.256-1.6.256a1.88876,1.88876,0,0,1-.63957-.12813c-1.15208-.89582-3.13591-1.21586-4.352-2.17575C32.8824,83.55694,31.922,82.533,31.922,82.08508V82.021c.12813-.576,1.53644-.768,2.24008-1.02395.3203-.12812.576-.44791.76822-.512.1276,0,.19166-.064.31978-.064.38386,0,.83176.19192,1.21613.19192,1.59946-.12787,3.19944-.512,4.60776-.512h.31979c1.8557-1.856,2.752-4.67156,5.24784-5.88769.512.12812.70364.32005,1.088.32005a3.26124,3.26124,0,0,0,.57551-.12786c1.34426.7039,1.34426,2.81559,1.7281,4.54368a4.0722,4.0722,0,0,0,1.15207.38386h.12813c1.27966-.19193.95988-2.112,1.34373-3.71168.25625-1.088,1.088-1.664,1.28019-2.30387.70364-.06407,1.8557-.32006,2.81559-.32006a2.874,2.874,0,0,1,1.536.32009,5.84854,5.84854,0,0,1,.064,1.088,25.16,25.16,0,0,1-.576,4.73562c.1922.19192.576.3841,2.81559.3841a30.3332,30.3332,0,0,0,.83229-5.88792c-2.176-.25579-4.03173-.83178-5.18379-2.04793-.38386,0-.83176,0-.95989-.19192.06407-1.40779,1.85571-1.72784,3.2-2.04789a36.88385,36.88385,0,0,1,4.79943-.63984c2.04789,0,6.07961,2.23982,6.07961,4.54369,0,.12813-.06355.256-.06355.38386-2.24007,1.088-3.90412,2.30414-4.09578,5.69576.44792.70416,2.11143.12812,2.36769,1.088a1.74189,1.74189,0,0,1,1.27967-.44791c1.21613,0,2.88017.7039,4.09578.7039.19218,0,.38437-.06406.576-.06406h.12812c1.79216.32,2.87965,2.55986,4.54369,2.87991-.06406.256-.25572.32005-.512.32005-.31979,0-.70416-.12812-.95989-.12812-.12812,0-.19219,0-.25572.06406v.19192c0,.576.57551.832.57551,1.15207,0,.12786-.1276.256-.31979.44791a.23419.23419,0,0,1-.25572-.256c0-.12786.06354-.19193.06354-.32006,0-.064-.06354-.064-.06354-.12786a2.24339,2.24339,0,0,1-1.85623.70391,15.5031,15.5031,0,0,1-2.87965-.38385,7.20852,7.20852,0,0,0-1.53592-.512,9.09342,9.09342,0,0,0-1.40831.31979c-.51145,0-.89582-.19192-1.34373-.19192a1.22949,1.22949,0,0,0-.7677.256,1.17628,1.17628,0,0,0-.96041-.32,4.32023,4.32023,0,0,0-.89582.12812,13.73222,13.73222,0,0,0-.89582,4.86374,9.57429,9.57429,0,0,0,.12812,1.40779c0,.38411-.38437.38411-.38437.768.19218.6401.32031,1.21587.51249,1.7919.7677.832,2.23955.95988,2.6234,2.112-.7677,1.15206-2.4958.95987-3.96766,1.47185C62.19246,97.95621,62.19246,99.62,61.04092,99.62ZM56.88107,66.53368c-.89582.576-1.664,1.40806-2.55986,1.98383-1.40779.89609-2.94424,1.21613-3.712,2.55986a.23533.23533,0,0,1-.19219.06407c-.25572,0-.512-.38386-.89582-.44792a2.04484,2.04484,0,0,1-1.21613.44792c-1.4078,0-2.36768-2.0479-3.77547-2.43175-.38385-.89607-1.664-1.92-1.664-3.2,0-.89582.83227-2.43174,1.15206-3.71167a76.95029,76.95029,0,0,0,1.47187-7.99964c.70416-6.59158,1.53591-7.80772,2.112-8.51161,0-1.344.7677-1.856.7677-3.1997V41.959c1.21613-1.27993,2.04789-2.87965,4.15984-3.1997.19218-.06406.19218-.32005.38437-.38411,1.72758.256,2.04789.256,3.71141.512,1.15207.832,1.40831,2.4958,2.4958,3.39189a5.05766,5.05766,0,0,0-.1276.89607,1.4333,1.4333,0,0,0,.512,1.21588,11.58854,11.58854,0,0,0-.44791,3.32782c0,1.34374.19167,2.75179.19167,4.03172a7.86353,7.86353,0,0,1-.31979,2.4958c-1.664,1.98383-3.51975,4.2239-3.776,7.29574a1.892,1.892,0,0,0,.6401.12786c1.15207,0,2.688-.832,4.09578-.89582,1.21613-.06406,2.43174-.256,3.77547-.256,1.7281,0,4.73588.38385,4.73588,1.6,0,.83176-1.4078,1.08775-1.6,1.91977A21.63068,21.63068,0,0,0,56.88107,66.53368ZM46.44943,86.3087v.12786c0,1.40805,2.752,1.53592,3.96766,2.30414a8.463,8.463,0,0,0,.64009-3.264,6.94661,6.94661,0,0,0-.06406-1.15182C49.39314,84.70872,46.5135,84.83683,46.44943,86.3087Zm11.51965,4.99186c-.06406-1.02394-.512-2.176-.512-3.264a3.2481,3.2481,0,0,1,.19167-1.088c.512.96015.76821,2.24007,1.79216,2.62393a36.55629,36.55629,0,0,0,.576-4.79969,4.16444,4.16444,0,0,0-2.3682-.63983c-1.34373,1.34374-1.27967,4.22364-1.72758,6.52753a14.14415,14.14415,0,0,0,1.98383.6401Z"/><path class="a" d="M86.96142,109.83391a.76864.76864,0,0,0-.31979.32.38635.38635,0,0,1-.25624.06381c-.25573,0-.38386-.32-.70365-.38385-.12811.0638-.19217.0638-.19217.12787,0,.12812.19217.32.19217.44791,0,.06406,0,.06406-.06406.12812-.70415-.12812-.89634-.7039-1.40779-1.088-.38437,0-.576.256-.9604.32006-5.75931-3.19969-10.303-8.25562-10.303-10.5595,0-.38385.06354-.70391.06354-1.088a1.598,1.598,0,0,0-.25572-.89582.88656.88656,0,0,0,.19218-.256,10.14238,10.14238,0,0,1,4.35151.95989c.31978.19192.44791.70389.76822.96015.70364.63983,1.47186,1.02393,2.11143,1.66378,1.79217,1.72784,3.51974,4.15984,6.08013,5.11973.57552-.06407.51145-.768,1.08749-.768a1.08842,1.08842,0,0,1,.06406.44791c0,.576-.31979,1.21613-.31979,1.92a2.02942,2.02942,0,0,0,.25572,1.024v.0638c0,.3841-.512.12812-.576.44817a.23579.23579,0,0,0-.06354.19193c0,.19193.25572.44791.25572.768Zm13.24724-15.35918a2.14249,2.14249,0,0,1-.89582-.256c-.31979-.12811-.70416-.06406-.83177-.19217a10.81,10.81,0,0,1-1.98383-6.14368c0-.19192.06354-.19192.1276-.19192.12813,0,.25625.12812.38386.12812.06406,0,.06406,0,.12811-.06406,0-.19192.06407-.38411.06407-.576,0-1.08775-.38386-2.17575-.38386-3.1997a10.95983,10.95983,0,0,1,.512-1.7919v-.32c0-.6401-.06406-1.344-.06406-2.04789a5.1683,5.1683,0,0,1,.06406-1.02394,11.8924,11.8924,0,0,1,.25572-1.47186c.06406-.768.19218-1.856.19218-2.30388,0-.832-1.27967-1.27993-2.30361-1.27993a2.22756,2.22756,0,0,0-1.34426.38385v.3841c0,1.27994.25625,2.368.25625,3.71168.44791.512,1.27967.64009,1.66352,1.21613a2.33781,2.33781,0,0,0-.1276.89582,1.42723,1.42723,0,0,1-.19218.832c-.25572.7039-1.15208.95988-1.34374,1.59972a3.77617,3.77617,0,0,0-.12812.89608c0,.44791.06406,1.02395.06406,1.53592v.32c-.06406.768-.38437,1.6-.38437,2.23982v.32c.06406.89583.96041,1.53593.96041,2.49581,0,1.664-2.4958,2.94371-4.09578,2.94371-.96041,0-1.664-.44791-4.54369-3.32756-1.7281-1.72811-3.84006-3.64787-3.84006-7.3598a20.11942,20.11942,0,0,1,1.72811-9.02333,7.22657,7.22657,0,0,1,2.04789,1.21587c2.4958-3.58381,5.69524-6.46371,8.70353-9.59962h-.76822c-3.77547,0-6.52752,2.24008-8.8952,3.968-.9604-.19192-1.79217-.576-2.81611-.7039-.19218,0-.31978-.12812-.31978-.76822A6.77858,6.77858,0,0,1,80.75371,66.892c-.06406-1.08775-.89582-2.23982-1.088-3.32756a8.58278,8.58278,0,0,1-.06407-1.344,7.97684,7.97684,0,0,1,.25625-2.23981,13.84342,13.84342,0,0,1,2.8156-2.624,17.28806,17.28806,0,0,0,1.85622-.95988c1.47186-.96015,3.32756-2.55986,5.11973-3.264a6.78272,6.78272,0,0,1,1.34374-.12787c3.5838.38386,6.59158,2.81586,9.27957,3.77574.32031.6401,1.02393,1.344,1.02393,2.176a.94972.94972,0,0,1-.12811.57577c5.69576,2.176,5.88792,5.18379,5.88792,5.56793a2.73294,2.73294,0,0,1-3.07184,2.55986c-.64009,0-1.40779-.19218-2.112-.19218a9.30992,9.30992,0,0,0-3.9036,1.15207c-.44792.31979-.512.7039-.96041,1.15181a2.65752,2.65752,0,0,0-2.30362,1.856,1.08044,1.08044,0,0,0,.6401.19192c.38385,0,.89582-.19192,1.34373-.19192a1.23635,1.23635,0,0,1,.6401.19192,4.27524,4.27524,0,0,1,2.62393-.832,5.35129,5.35129,0,0,1,4.47962,2.368v.12812c0,1.91977-1.6,1.27993-2.688,2.368-1.15155,1.21587-1.15155,6.52752-1.15155,6.91137a37.9859,37.9859,0,0,0,1.27967,10.04753,6.06023,6.06023,0,0,1-.89583,1.53592A6.15575,6.15575,0,0,1,100.20866,94.47473Zm-7.74366,8.1275v.12787s-.06354,1.92-1.72758,1.92c-1.53592,0-3.64787-1.856-4.09578-3.51975a18.32357,18.32357,0,0,1-.19218-2.30388q.09609-.19218.19218-.19219c0-.12786.06406-.12786.1276-.12786C90.22544,98.69838,92.465,101.38637,92.465,102.60223ZM88.36922,82.18738c.25625,2.49581.70416,4.73562,2.176,5.95175a3.66385,3.66385,0,0,0,.512-2.176,8.35889,8.35889,0,0,0-.44791-2.81586C89.58535,83.08322,89.13743,82.50744,88.36922,82.18738Zm2.3682-5.6317c-.89634.0638-1.15207.768-1.47186,1.344a2.71543,2.71543,0,0,0,1.21561.38386.822.822,0,0,0,.6401-.256C90.92909,77.51558,90.99315,76.87574,90.73742,76.55568Zm2.688,21.69479v-.512a1.955,1.955,0,0,1,1.27967-.4479c1.47185,0,4.60776,2.68772,4.60776,3.13589v.12786c0,.768-1.02395,1.02395-1.6,1.53592-2.11194-.51195-4.28744-1.47183-4.28744-3.83977Zm6.78325-1.088a1.506,1.506,0,0,1,1.02394-.31979,6.42739,6.42739,0,0,1,2.43226.89582,1.60218,1.60218,0,0,1,.25572.89582,1.81967,1.81967,0,0,1-1.8557,1.6,1.61107,1.61107,0,0,1-1.28019-.576c-.19164-.83177-.4479-1.59973-.576-2.49582Zm14.3993,9.4715v-.256c.064-.768.44791-1.47186.576-2.23982.44791-2.944.38385-6.39966.70416-9.02359h-.512a12.40979,12.40979,0,0,0-3.07183.576,10.56076,10.56076,0,0,1-3.07184.89582h-.12812c-.31979-.12786-.31979-.25572-.31979-.44791a2.42158,2.42158,0,0,0-.06406-.512c-.25625-.512-.83228-.7039-.95989-1.15181a3.54091,3.54091,0,0,1-.12812-1.15207c0-.44791.06406-.95988.06406-1.40779a3.44122,3.44122,0,0,0-.25624-1.40806,3.0314,3.0314,0,0,1,2.24007-.95988,1.53848,1.53848,0,0,1,1.66353,1.15207c1.664-.12812,3.776.12786,4.73587-.70416v-.512c0-.576.06407-1.21588.06407-1.79191a3.11252,3.11252,0,0,0-.06407-.768,1.76888,1.76888,0,0,0-.576-.06406,2.15424,2.15424,0,0,0-1.91976.89608c-1.6-.06406-2.49581-1.21587-3.39163-2.23982-.70416-.70415-1.4078-1.15206-1.4078-2.30387v-.38411c1.98383-1.088,5.69524-.44792,7.35929-1.72784v-.32006c0-1.02393-.70416-1.72784-.95989-2.55986-1.15207.06406-1.98383,1.02395-3.07184,1.02395a5.36818,5.36818,0,0,1-2.4958-1.21587,23.754,23.754,0,0,1-2.04789-2.55986c-.83177-.95988-1.7281-1.98383-1.7281-3.1997a2.20714,2.20714,0,0,1,.576-1.53592,3.11484,3.11484,0,0,1,.76822-.06406c2.624,0,4.22339,1.72784,6.84731,1.7919h.19218a18.9865,18.9865,0,0,0,4.09579-.96015,20.88371,20.88371,0,0,1,5.05566-.83175c1.27967,0,3.2.19192,3.2,1.34373a2.368,2.368,0,0,1-1.024,1.7281c-1.34426,1.02395-3.96817,1.15181-5.63169,1.72784v.38411c0,1.59972,1.66353,1.53592,2.176,2.62366-.44843.832-1.28019,1.15207-1.664,2.04789,1.088.6401,2.75153.7039,3.58381,1.664-.12813.95988-.83228,1.27993-1.53592,1.91977-.44792.38411-.70416.96015-.95989,1.15207-.70415.44791-1.79216.44791-2.176.95988a3.23214,3.23214,0,0,0-.31978,1.53592,2.69076,2.69076,0,0,0,.4479,1.66378,19.29094,19.29094,0,0,1,5.05568-.89582c1.8557,0,3.5838.512,4.22338,2.176a5.58736,5.58736,0,0,1-1.72758,1.34374,15.289,15.289,0,0,1-2.0479,1.02394c-1.21613.32-2.752.12812-4.15984.38411-1.088.256-2.688.7039-2.688,1.79191v.06406c0,.38385.512.95988.512,1.40779,0,.256-.12812.44791-.512.64009-.06406.19193.19219.19193.19219.19193s.25572,0,.25572.0638a2.90784,2.90784,0,0,0-.19166,1.02394c0,.512.1276,1.02395.1276,1.47212,0,.44791-.1276.768-.51145.89582,0,.44817.57552.38411.57552.768a3.20866,3.20866,0,0,1,.12812.768c0,.576-.19218,1.15206-.19218,1.72785,0,.19219.06406.32.06406.512a10.17729,10.17729,0,0,1,.76823,2.62393v.256c-.06406.832-.576,1.344-.76823,2.176a4.83251,4.83251,0,0,1-1.72758.832c-1.02381-1.02387-2.23995-2.24-2.23995-4.03192Zm4.54369-42.36561c-.31978.95988,0,2.30387-.38384,3.26375a4.24207,4.24207,0,0,1-3.51975,2.176,7.19213,7.19213,0,0,1-3.84005-1.088c-.44792-.44791-.89583-1.27993-1.53593-2.04789a22.22038,22.22038,0,0,1-1.66352-1.92,11.07342,11.07342,0,0,1-1.024-4.73561v-.38411a7.37984,7.37984,0,0,1,1.34373-3.96766,9.60237,9.60237,0,0,1,1.2802-.12812c4.47963,0,4.9916,5.11973,7.55146,7.48766a2.576,2.576,0,0,1,1.27968-.4479,1.09734,1.09734,0,0,1,1.024.63983c0,.51193-.38384.70385-.512,1.152Zm8.51189-2.688c0,1.21587-1.15207,3.26376-2.30413,3.26376-1.088,0-2.81559-2.68773-3.26351-3.51975a6.82365,6.82365,0,0,1-1.53643-4.09578,5.85141,5.85141,0,0,1,.06406-1.02395,1.78779,1.78779,0,0,1,1.15206-.38385c2.81612,0,5.88793,3.45569,5.88793,5.69576Z"/><path class="b" d="M31.73035,76.26117h-.19219c-.83176,0-1.21561-.63985-1.72758-.89583-.25624-.12812-.70416-.06406-.9604-.19218a10.64046,10.64046,0,0,1-1.5354-1.15181,1.0903,1.0903,0,0,1-.44844.06406c-.63957,0-1.15154-.576-2.04789-.576h-.12756c-1.02395-1.27994-2.752-3.07184-2.752-5.05566a3.48431,3.48431,0,0,1,.4479-1.72784c.89582-.32006,1.79217-.6401,2.688-1.02395,2.176,1.21586,4.60775,2.36767,7.0395,3.96765,2.752,1.79191,4.73587,3.13591,5.75982,6.3356-.19219.576-.31979,1.15207-.512,1.66405h-.576c-2.176,0-3.07183,0-3.71195.38385C32.62617,77.47729,32.24231,76.8372,31.73035,76.26117Zm3.776-25.08667c1.21561,0,1.4078,1.7919,2.75152,2.04789.12813.832.83177,1.088,1.34426,1.53592.63958,1.664,2.4958,3.00778,2.4958,4.86374a3.6164,3.6164,0,0,1-.38437,1.53592c-.512.512-1.08748,1.02395-1.66352,1.53592-2.62392-.19192-5.952.256-7.552-1.08775-.576.12786-1.27967.0638-1.79164.19192-.19218-.12812-.19218-.44817-.19218-.768,0-.32005,0-.6401-.19167-.768a3.31448,3.31448,0,0,1-.70416.12786,2.61719,2.61719,0,0,1-2.112-1.6c-.38385,0-.25572.32005-.512.32005h-.06406c-.95988-.44791-1.27967-1.47185-1.98383-2.23982v-.06405c0-.19193.12813-.19193.12813-.31979v-.06407a34.392,34.392,0,0,1-2.30414-4.28794,1.97517,1.97517,0,0,0,.12812-.512c0-.70389-.576-1.15181-.576-2.04789a1.40835,1.40835,0,0,1,.06406-.512c1.088-.7677,1.4078-2.17576,2.176-3.1997.31979-.12787.576-.19192.89582-.32005a1.14006,1.14006,0,0,1,1.088-.89582,1.3356,1.3356,0,0,1,1.024.512,1.23428,1.23428,0,0,1,.6401-.19219c.12812,0,.31978.06406.512.06406a.7829.7829,0,0,0,.576-.256c.76769.12812,1.088.832,1.79164.832a.80944.80944,0,0,0,.38385-.06406c.76822.832,1.02394,2.112,2.4958,2.112.12812,1.02395,1.02395,1.21587,1.28019,2.04789a1.408,1.408,0,0,0-.06406.512,3.07,3.07,0,0,0,.25625.95988Zm-8.95979,40.254c-.12812-1.344-1.27967-1.6-1.79216-2.49581a1.50492,1.50492,0,0,0,.12812-.512c0-.96014-1.34373-1.47212-1.34373-2.432,0-.44791.12812-.83176.89582-.83176.576,0,1.47186.31979,2.176.38385a4.5114,4.5114,0,0,0,.76769-.12812c.576.12812,1.02395.76822,1.53592.89608h.38437c.31979,0,.57552-.06406.89582-.06406a1.5052,1.5052,0,0,1,.512.12811c.31978.70391,1.088,1.08776,1.53592,1.66379a.46275.46275,0,0,1,.38385-.256c.19218,0,.38385.19193.64009.256.70364.19218.512.19218.89582.768.32031.576.89582,1.02395.95989,1.344v.19193c0,.19192-.06406.512-.06406.70389,0,.70416.44843,1.40806.44843,2.0479a.81084.81084,0,0,1-.06406.3841,2.28525,2.28525,0,0,1-2.112,1.21588c-1.72811,0-3.776-1.34374-5.1838-1.79191A1.83927,1.83927,0,0,0,26.54655,91.42846ZM61.04092,99.62a1.09031,1.09031,0,0,1-.44844-.06407,27.1236,27.1236,0,0,1-1.5354-2.55986c-.25624-.63983-.12811-1.47185-.51248-2.17575-.76771-1.344-3.45569-1.21613-5.3114-1.7919-1.53592-.44817-2.81611-1.72784-4.352-1.7919h-.512c-1.02395,0-1.66352.256-2.43174.256-1.91977,0-3.51975-1.92-4.09578-3.07184-.512-.89608-.576-2.432-1.79164-2.62393h-.25625c-.512,0-1.02394.256-1.6.256a1.88876,1.88876,0,0,1-.63957-.12813c-1.15208-.89582-3.13591-1.21586-4.352-2.17575C32.8824,83.55694,31.922,82.533,31.922,82.08508V82.021c.12813-.576,1.53644-.768,2.24008-1.02395.3203-.12812.576-.44791.76822-.512.1276,0,.19166-.064.31978-.064.38386,0,.83176.19192,1.21613.19192,1.59946-.12787,3.19944-.512,4.60776-.512h.31979c1.8557-1.856,2.752-4.67156,5.24784-5.88769.512.12812.70364.32005,1.088.32005a3.26124,3.26124,0,0,0,.57551-.12786c1.34426.7039,1.34426,2.81559,1.7281,4.54368a4.0722,4.0722,0,0,0,1.15207.38386h.12813c1.27966-.19193.95988-2.112,1.34373-3.71168.25625-1.088,1.088-1.664,1.28019-2.30387.70364-.06407,1.8557-.32006,2.81559-.32006a2.874,2.874,0,0,1,1.536.32009,5.84854,5.84854,0,0,1,.064,1.088,25.16,25.16,0,0,1-.576,4.73562c.1922.19192.576.3841,2.81559.3841a30.3332,30.3332,0,0,0,.83229-5.88792c-2.176-.25579-4.03173-.83178-5.18379-2.04793-.38386,0-.83176,0-.95989-.19192.06407-1.40779,1.85571-1.72784,3.2-2.04789a36.88385,36.88385,0,0,1,4.79943-.63984c2.04789,0,6.07961,2.23982,6.07961,4.54369,0,.12813-.06355.256-.06355.38386-2.24007,1.088-3.90412,2.30414-4.09578,5.69576.44792.70416,2.11143.12812,2.36769,1.088a1.74189,1.74189,0,0,1,1.27967-.44791c1.21613,0,2.88017.7039,4.09578.7039.19218,0,.38437-.06406.576-.06406h.12812c1.79216.32,2.87965,2.55986,4.54369,2.87991-.06406.256-.25572.32005-.512.32005-.31979,0-.70416-.12812-.95989-.12812-.12812,0-.19219,0-.25572.06406v.19192c0,.576.57551.832.57551,1.15207,0,.12786-.1276.256-.31979.44791a.23419.23419,0,0,1-.25572-.256c0-.12786.06354-.19193.06354-.32006,0-.064-.06354-.064-.06354-.12786a2.24339,2.24339,0,0,1-1.85623.70391,15.5031,15.5031,0,0,1-2.87965-.38385,7.20852,7.20852,0,0,0-1.53592-.512,9.09342,9.09342,0,0,0-1.40831.31979c-.51145,0-.89582-.19192-1.34373-.19192a1.22949,1.22949,0,0,0-.7677.256,1.17628,1.17628,0,0,0-.96041-.32,4.32023,4.32023,0,0,0-.89582.12812,13.73222,13.73222,0,0,0-.89582,4.86374,9.57429,9.57429,0,0,0,.12812,1.40779c0,.38411-.38437.38411-.38437.768.19218.6401.32031,1.21587.51249,1.7919.7677.832,2.23955.95988,2.6234,2.112-.7677,1.15206-2.4958.95987-3.96766,1.47185C62.19246,97.95621,62.19246,99.62,61.04092,99.62ZM56.88107,66.53368c-.89582.576-1.664,1.40806-2.55986,1.98383-1.40779.89609-2.94424,1.21613-3.712,2.55986a.23533.23533,0,0,1-.19219.06407c-.25572,0-.512-.38386-.89582-.44792a2.04484,2.04484,0,0,1-1.21613.44792c-1.4078,0-2.36768-2.0479-3.77547-2.43175-.38385-.89607-1.664-1.92-1.664-3.2,0-.89582.83227-2.43174,1.15206-3.71167a76.95029,76.95029,0,0,0,1.47187-7.99964c.70416-6.59158,1.53591-7.80772,2.112-8.51161,0-1.344.7677-1.856.7677-3.1997V41.959c1.21613-1.27993,2.04789-2.87965,4.15984-3.1997.19218-.06406.19218-.32005.38437-.38411,1.72758.256,2.04789.256,3.71141.512,1.15207.832,1.40831,2.4958,2.4958,3.39189a5.05766,5.05766,0,0,0-.1276.89607,1.4333,1.4333,0,0,0,.512,1.21588,11.58854,11.58854,0,0,0-.44791,3.32782c0,1.34374.19167,2.75179.19167,4.03172a7.86353,7.86353,0,0,1-.31979,2.4958c-1.664,1.98383-3.51975,4.2239-3.776,7.29574a1.892,1.892,0,0,0,.6401.12786c1.15207,0,2.688-.832,4.09578-.89582,1.21613-.06406,2.43174-.256,3.77547-.256,1.7281,0,4.73588.38385,4.73588,1.6,0,.83176-1.4078,1.08775-1.6,1.91977A21.63068,21.63068,0,0,0,56.88107,66.53368ZM46.44943,86.3087v.12786c0,1.40805,2.752,1.53592,3.96766,2.30414a8.463,8.463,0,0,0,.64009-3.264,6.94661,6.94661,0,0,0-.06406-1.15182C49.39314,84.70872,46.5135,84.83683,46.44943,86.3087Zm11.51965,4.99186c-.06406-1.02394-.512-2.176-.512-3.264a3.2481,3.2481,0,0,1,.19167-1.088c.512.96015.76821,2.24007,1.79216,2.62393a36.55629,36.55629,0,0,0,.576-4.79969,4.16444,4.16444,0,0,0-2.3682-.63983c-1.34373,1.34374-1.27967,4.22364-1.72758,6.52753a14.14415,14.14415,0,0,0,1.98383.6401Z"/><path class="b" d="M86.96142,109.83391a.76864.76864,0,0,0-.31979.32.38635.38635,0,0,1-.25624.06381c-.25573,0-.38386-.32-.70365-.38385-.12811.0638-.19217.0638-.19217.12787,0,.12812.19217.32.19217.44791,0,.06406,0,.06406-.06406.12812-.70415-.12812-.89634-.7039-1.40779-1.088-.38437,0-.576.256-.9604.32006-5.75931-3.19969-10.303-8.25562-10.303-10.5595,0-.38385.06354-.70391.06354-1.088a1.598,1.598,0,0,0-.25572-.89582.88656.88656,0,0,0,.19218-.256,10.14238,10.14238,0,0,1,4.35151.95989c.31978.19192.44791.70389.76822.96015.70364.63983,1.47186,1.02393,2.11143,1.66378,1.79217,1.72784,3.51974,4.15984,6.08013,5.11973.57552-.06407.51145-.768,1.08749-.768a1.08842,1.08842,0,0,1,.06406.44791c0,.576-.31979,1.21613-.31979,1.92a2.02942,2.02942,0,0,0,.25572,1.024v.0638c0,.3841-.512.12812-.576.44817a.23579.23579,0,0,0-.06354.19193c0,.19193.25572.44791.25572.768Zm13.24724-15.35918a2.14249,2.14249,0,0,1-.89582-.256c-.31979-.12811-.70416-.06406-.83177-.19217a10.81,10.81,0,0,1-1.98383-6.14368c0-.19192.06354-.19192.1276-.19192.12813,0,.25625.12812.38386.12812.06406,0,.06406,0,.12811-.06406,0-.19192.06407-.38411.06407-.576,0-1.08775-.38386-2.17575-.38386-3.1997a10.95983,10.95983,0,0,1,.512-1.7919v-.32c0-.6401-.06406-1.344-.06406-2.04789a5.1683,5.1683,0,0,1,.06406-1.02394,11.8924,11.8924,0,0,1,.25572-1.47186c.06406-.768.19218-1.856.19218-2.30388,0-.832-1.27967-1.27993-2.30361-1.27993a2.22756,2.22756,0,0,0-1.34426.38385v.3841c0,1.27994.25625,2.368.25625,3.71168.44791.512,1.27967.64009,1.66352,1.21613a2.33781,2.33781,0,0,0-.1276.89582,1.42723,1.42723,0,0,1-.19218.832c-.25572.7039-1.15208.95988-1.34374,1.59972a3.77617,3.77617,0,0,0-.12812.89608c0,.44791.06406,1.02395.06406,1.53592v.32c-.06406.768-.38437,1.6-.38437,2.23982v.32c.06406.89583.96041,1.53593.96041,2.49581,0,1.664-2.4958,2.94371-4.09578,2.94371-.96041,0-1.664-.44791-4.54369-3.32756-1.7281-1.72811-3.84006-3.64787-3.84006-7.3598a20.11942,20.11942,0,0,1,1.72811-9.02333,7.22657,7.22657,0,0,1,2.04789,1.21587c2.4958-3.58381,5.69524-6.46371,8.70353-9.59962h-.76822c-3.77547,0-6.52752,2.24008-8.8952,3.968-.9604-.19192-1.79217-.576-2.81611-.7039-.19218,0-.31978-.12812-.31978-.76822A6.77858,6.77858,0,0,1,80.75371,66.892c-.06406-1.08775-.89582-2.23982-1.088-3.32756a8.58278,8.58278,0,0,1-.06407-1.344,7.97684,7.97684,0,0,1,.25625-2.23981,13.84342,13.84342,0,0,1,2.8156-2.624,17.28806,17.28806,0,0,0,1.85622-.95988c1.47186-.96015,3.32756-2.55986,5.11973-3.264a6.78272,6.78272,0,0,1,1.34374-.12787c3.5838.38386,6.59158,2.81586,9.27957,3.77574.32031.6401,1.02393,1.344,1.02393,2.176a.94972.94972,0,0,1-.12811.57577c5.69576,2.176,5.88792,5.18379,5.88792,5.56793a2.73294,2.73294,0,0,1-3.07184,2.55986c-.64009,0-1.40779-.19218-2.112-.19218a9.30992,9.30992,0,0,0-3.9036,1.15207c-.44792.31979-.512.7039-.96041,1.15181a2.65752,2.65752,0,0,0-2.30362,1.856,1.08044,1.08044,0,0,0,.6401.19192c.38385,0,.89582-.19192,1.34373-.19192a1.23635,1.23635,0,0,1,.6401.19192,4.27524,4.27524,0,0,1,2.62393-.832,5.35129,5.35129,0,0,1,4.47962,2.368v.12812c0,1.91977-1.6,1.27993-2.688,2.368-1.15155,1.21587-1.15155,6.52752-1.15155,6.91137a37.9859,37.9859,0,0,0,1.27967,10.04753,6.06023,6.06023,0,0,1-.89583,1.53592A6.15575,6.15575,0,0,1,100.20866,94.47473Zm-7.74366,8.1275v.12787s-.06354,1.92-1.72758,1.92c-1.53592,0-3.64787-1.856-4.09578-3.51975a18.32357,18.32357,0,0,1-.19218-2.30388q.09609-.19218.19218-.19219c0-.12786.06406-.12786.1276-.12786C90.22544,98.69838,92.465,101.38637,92.465,102.60223ZM88.36922,82.18738c.25625,2.49581.70416,4.73562,2.176,5.95175a3.66385,3.66385,0,0,0,.512-2.176,8.35889,8.35889,0,0,0-.44791-2.81586C89.58535,83.08322,89.13743,82.50744,88.36922,82.18738Zm2.3682-5.6317c-.89634.0638-1.15207.768-1.47186,1.344a2.71543,2.71543,0,0,0,1.21561.38386.822.822,0,0,0,.6401-.256C90.92909,77.51558,90.99315,76.87574,90.73742,76.55568Zm2.688,21.69479v-.512a1.955,1.955,0,0,1,1.27967-.4479c1.47185,0,4.60776,2.68772,4.60776,3.13589v.12786c0,.768-1.02395,1.02395-1.6,1.53592-2.11194-.51195-4.28744-1.47183-4.28744-3.83977Zm6.78325-1.088a1.506,1.506,0,0,1,1.02394-.31979,6.42739,6.42739,0,0,1,2.43226.89582,1.60218,1.60218,0,0,1,.25572.89582,1.81967,1.81967,0,0,1-1.8557,1.6,1.61107,1.61107,0,0,1-1.28019-.576c-.19164-.83177-.4479-1.59973-.576-2.49582Zm14.3993,9.4715v-.256c.064-.768.44791-1.47186.576-2.23982.44791-2.944.38385-6.39966.70416-9.02359h-.512a12.40979,12.40979,0,0,0-3.07183.576,10.56076,10.56076,0,0,1-3.07184.89582h-.12812c-.31979-.12786-.31979-.25572-.31979-.44791a2.42158,2.42158,0,0,0-.06406-.512c-.25625-.512-.83228-.7039-.95989-1.15181a3.54091,3.54091,0,0,1-.12812-1.15207c0-.44791.06406-.95988.06406-1.40779a3.44122,3.44122,0,0,0-.25624-1.40806,3.0314,3.0314,0,0,1,2.24007-.95988,1.53848,1.53848,0,0,1,1.66353,1.15207c1.664-.12812,3.776.12786,4.73587-.70416v-.512c0-.576.06407-1.21588.06407-1.79191a3.11252,3.11252,0,0,0-.06407-.768,1.76888,1.76888,0,0,0-.576-.06406,2.15424,2.15424,0,0,0-1.91976.89608c-1.6-.06406-2.49581-1.21587-3.39163-2.23982-.70416-.70415-1.4078-1.15206-1.4078-2.30387v-.38411c1.98383-1.088,5.69524-.44792,7.35929-1.72784v-.32006c0-1.02393-.70416-1.72784-.95989-2.55986-1.15207.06406-1.98383,1.02395-3.07184,1.02395a5.36818,5.36818,0,0,1-2.4958-1.21587,23.754,23.754,0,0,1-2.04789-2.55986c-.83177-.95988-1.7281-1.98383-1.7281-3.1997a2.20714,2.20714,0,0,1,.576-1.53592,3.11484,3.11484,0,0,1,.76822-.06406c2.624,0,4.22339,1.72784,6.84731,1.7919h.19218a18.9865,18.9865,0,0,0,4.09579-.96015,20.88371,20.88371,0,0,1,5.05566-.83175c1.27967,0,3.2.19192,3.2,1.34373a2.368,2.368,0,0,1-1.024,1.7281c-1.34426,1.02395-3.96817,1.15181-5.63169,1.72784v.38411c0,1.59972,1.66353,1.53592,2.176,2.62366-.44843.832-1.28019,1.15207-1.664,2.04789,1.088.6401,2.75153.7039,3.58381,1.664-.12813.95988-.83228,1.27993-1.53592,1.91977-.44792.38411-.70416.96015-.95989,1.15207-.70415.44791-1.79216.44791-2.176.95988a3.23214,3.23214,0,0,0-.31978,1.53592,2.69076,2.69076,0,0,0,.4479,1.66378,19.29094,19.29094,0,0,1,5.05568-.89582c1.8557,0,3.5838.512,4.22338,2.176a5.58736,5.58736,0,0,1-1.72758,1.34374,15.289,15.289,0,0,1-2.0479,1.02394c-1.21613.32-2.752.12812-4.15984.38411-1.088.256-2.688.7039-2.688,1.79191v.06406c0,.38385.512.95988.512,1.40779,0,.256-.12812.44791-.512.64009-.06406.19193.19219.19193.19219.19193s.25572,0,.25572.0638a2.90784,2.90784,0,0,0-.19166,1.02394c0,.512.1276,1.02395.1276,1.47212,0,.44791-.1276.768-.51145.89582,0,.44817.57552.38411.57552.768a3.20866,3.20866,0,0,1,.12812.768c0,.576-.19218,1.15206-.19218,1.72785,0,.19219.06406.32.06406.512a10.17729,10.17729,0,0,1,.76823,2.62393v.256c-.06406.832-.576,1.344-.76823,2.176a4.83251,4.83251,0,0,1-1.72758.832c-1.02381-1.02387-2.23995-2.24-2.23995-4.03192Zm4.54369-42.36561c-.31978.95988,0,2.30387-.38384,3.26375a4.24207,4.24207,0,0,1-3.51975,2.176,7.19213,7.19213,0,0,1-3.84005-1.088c-.44792-.44791-.89583-1.27993-1.53593-2.04789a22.22038,22.22038,0,0,1-1.66352-1.92,11.07342,11.07342,0,0,1-1.024-4.73561v-.38411a7.37984,7.37984,0,0,1,1.34373-3.96766,9.60237,9.60237,0,0,1,1.2802-.12812c4.47963,0,4.9916,5.11973,7.55146,7.48766a2.576,2.576,0,0,1,1.27968-.4479,1.09734,1.09734,0,0,1,1.024.63983c0,.51193-.38384.70385-.512,1.152Zm8.51189-2.688c0,1.21587-1.15207,3.26376-2.30413,3.26376-1.088,0-2.81559-2.68773-3.26351-3.51975a6.82365,6.82365,0,0,1-1.53643-4.09578,5.85141,5.85141,0,0,1,.06406-1.02395,1.78779,1.78779,0,0,1,1.15206-.38385c2.81612,0,5.88793,3.45569,5.88793,5.69576Z"/><path d="M189.31888,70.87651a3.48079,3.48079,0,0,1-1.51221-.43213,17.22294,17.22294,0,0,1-5.1123-5.47217,3.66141,3.66141,0,0,1-.72022-1.43994c0-.36035.35987-.50439,1.00831-.50439a6.9861,6.9861,0,0,1,1.15185.07226c4.03223.43213,6.33643,2.376,6.76856,4.75245a5.62,5.62,0,0,1,.144,1.00781A1.79161,1.79161,0,0,1,189.31888,70.87651Zm4.82422,4.6084c-1.08008,2.52051-5.25635,15.98535-6.04834,20.59375-.36035,1.87256-.792,2.95264-1.44043,2.95264-.64795,0-1.584-1.22412-2.87988-4.03272-1.08008-2.3042-1.51221-3.52832-1.51221-4.17627,0-.5039.28809-.648.72022-.72021,1.36767-.35987,3.38427-3.02393,4.896-6.26416.93653-2.01612,3.60059-6.69678,4.82471-9.28907.86377-1.584,1.584-2.376,1.94433-2.376.14356,0,.2876.144.2876.5039A9.98726,9.98726,0,0,1,194.1431,75.48491Zm2.59229-17.20947a2.8797,2.8797,0,0,1-1.51221-.50391c-1.79981-1.0083-3.96045-3.456-5.76026-5.97656a2.77453,2.77453,0,0,1-.64794-1.36817c0-.5039.5039-.71972,1.43994-.71972a7.42989,7.42989,0,0,1,1.22412.07178c4.03222.5039,6.04834,2.08837,6.69629,5.47265a4.41238,4.41238,0,0,1,.07226.936C198.24759,57.41167,197.74369,58.27544,196.73539,58.27544Zm45.86816,19.73a13.62558,13.62558,0,0,1-2.23242-.21631,55.15057,55.15057,0,0,0-9.36084-.64795c-.50391,2.95215-1.08008,6.69678-1.728,11.44922,6.9126.57568,7.9209,1.08008,9.64893,3.168a2.81613,2.81613,0,0,1,.86377,1.65625c0,.5039-.35987.86426-1.2959.86426a12.37452,12.37452,0,0,1-2.88037-.57618c-1.8003-.5039-4.248-1.08007-6.9126-1.65625-1.15186,7.9209-2.16016,10.729-5.32813,13.68116a2.81871,2.81871,0,0,1-1.65625.86425c-.648,0-1.08007-.5039-1.5122-1.36816a16.51712,16.51712,0,0,0-5.18457-5.76074q-.6482-.53981-.64795-.86377c0-.28809.28808-.5044.72021-.5044a3.73215,3.73215,0,0,1,.792.14405,13.98332,13.98332,0,0,0,4.248,1.08007c2.23242,0,3.09668-1.94384,4.53662-8.06445a72.79668,72.79668,0,0,0-13.89746-.936,20.83608,20.83608,0,0,0-9.2168,2.376,3.65934,3.65934,0,0,1-1.7998.72022c-.72022,0-1.08008-.57617-1.29639-1.8003a2.70829,2.70829,0,0,1-.07177-.71972c0-1.36817.72021-2.23242,2.52-3.60059,1.22413-.86377,2.44825-3.09619,4.24854-8.20849-2.44824.28808-3.88818.5039-5.40039.792a16.3789,16.3789,0,0,1-2.16016.28808,3.3979,3.3979,0,0,1-2.16015-.72021c-.72022-.50391-1.0083-.86426-1.0083-1.22412,0-.43213.648-.72022,1.94433-.72022,1.08008,0,4.75244-.28759,9.57666-.86377a40.24961,40.24961,0,0,0,2.01612-10.081,5.026,5.026,0,0,0-.28809-1.94385,2.4879,2.4879,0,0,1-.21582-.93652c0-.43164.21582-.71973.936-.71973a8.17613,8.17613,0,0,1,2.376.50391c4.3208-.07178,12.67334-1.22412,15.69775-2.44824a4.96871,4.96871,0,0,1,1.87208-.43213,5.75684,5.75684,0,0,1,3.09619,1.29638c1.94433,1.2959,2.73632,2.08789,2.73632,2.87989a3.08826,3.08826,0,0,1-.64794,1.44043c-.5044.72021-1.15235,2.66406-1.94434,7.4165a41.7337,41.7337,0,0,1,6.40869-.86377,9.12689,9.12689,0,0,1,5.54443,1.94385c1.15186.72021,1.728,1.5122,1.728,2.08838C245.26761,77.501,244.40335,78.00542,242.60355,78.00542Zm-9.72119-22.75391a48.3636,48.3636,0,0,1-10.22461,1.728c-1.94434.144-3.60059.28808-5.04053.28808a19.44444,19.44444,0,0,1-5.40039-.64843,34.16845,34.16845,0,0,1-9.64893,8.06494,3.31921,3.31921,0,0,1-1.5122.5039c-.28809,0-.43213-.07177-.43213-.28808,0-.2876.36035-.71973,1.0083-1.36768,6.62451-6.48095,11.01709-13.75341,11.01709-16.63379a1.40014,1.40014,0,0,0-.07227-.57617,4.85344,4.85344,0,0,1-.21582-1.22363c0-.72022.28809-1.08057.936-1.08057a6.87559,6.87559,0,0,1,3.312,1.44043c1.44043.86377,2.0166,1.51221,2.0166,2.23194a3.11794,3.11794,0,0,1-.86426,1.80029c-.57617.72021-1.5122,1.87207-4.53662,5.76074a2.71179,2.71179,0,0,0,.79248.07178c1.87207,0,5.25635-.792,12.52881-2.88037a19.76685,19.76685,0,0,1,4.32031-.71973,6.14823,6.14823,0,0,1,2.8086.57568c1.08008.5044,1.584,1.00831,1.584,1.44043C235.25882,54.24321,234.39456,54.74712,232.88236,55.25151ZM208.40042,78.65337A101.60168,101.60168,0,0,1,204.65628,88.23c2.52-.28809,5.61621-.35987,8.78467-.43213,1.00781-3.96,1.728-7.2002,2.376-9.86475C213.29691,78.14946,210.7764,78.36528,208.40042,78.65337Zm8.13672-13.32129c-1.36816.07226-2.59228.144-3.8164.144h-1.22412c-.648,3.81641-1.44,7.4165-2.376,10.87305,2.23193-.21582,4.68017-.50391,7.20068-.792a38.12775,38.12775,0,0,0,.86377-6.76856A7.99949,7.99949,0,0,0,216.53714,65.33208Zm2.376,12.38525c-.57568,2.80811-1.51172,5.9043-2.73584,10.08057,3.38428.07226,6.55225.21631,9.2168.43213.57568-3.02393,1.2959-6.76856,1.94384-10.94483C224.67386,77.35747,221.79349,77.501,218.91312,77.71733Zm9.43311-11.521c0-1.65625-.57618-2.37647-1.8003-2.37647a4.97172,4.97172,0,0,0-.936.144c-2.16016.43213-4.39258.72022-6.40869,1.0083,1.72851,1.00782,2.30419,1.728,2.30419,2.44825a3.08751,3.08751,0,0,1-.28808,1.00781,55.41679,55.41679,0,0,0-1.79981,6.76855c2.80811-.35986,5.54444-.71972,8.28077-1.08007.28808-2.376.5039-4.896.64795-7.34424Z"/><path d="M260.958,97.59087c-.57617.57617-1.0083.86425-1.36816.86425s-.64795-.28808-.86426-.792a4.835,4.835,0,0,1-.64795-2.16015,3.33277,3.33277,0,0,1,.57617-1.8003,23.31968,23.31968,0,0,0,1.584-7.05664c.07226-.72021.21631-1.08008.50439-1.08008.21582,0,.50391.28809.86377,1.00831a11.4484,11.4484,0,0,1,1.44043,5.40039A8.34741,8.34741,0,0,1,260.958,97.59087Zm24.5542-22.46582c-.36035,1.65625-1.58447,5.25634-1.87207,6.04834-.28809.64843-.72021,1.08007-1.22412,1.08007a1.63783,1.63783,0,0,1-1.0083-.57568,2.61882,2.61882,0,0,0-1.80029-.72021,12.6366,12.6366,0,0,0-1.36817.144c-6.12012.86426-8.56836,1.36816-10.22461,1.94433-.144.86377-.35986,1.2959-.72021,1.2959-.21582,0-.57617-.28808-.86377-.86425a15.69225,15.69225,0,0,1-1.8003-5.04c-1.29638-4.96875-2.66406-7.99317-3.52832-9.145a1.639,1.639,0,0,1-.57617-1.0083c0-.35987.43213-.64795,1.51221-.792a4.90694,4.90694,0,0,1,1.51221.144c1.94384-.28809,4.68017-.792,7.4165-1.2959a85.00869,85.00869,0,0,0,6.40869-8.78467q.97192-1.51245-.43213-1.29639a23.58779,23.58779,0,0,1-3.09619.28809,12.51974,12.51974,0,0,1-2.8081-.35986,44.36306,44.36306,0,0,1-10.51319,10.00879,2.35175,2.35175,0,0,1-1.08008.43212.191.191,0,0,1-.21582-.2163,1.58423,1.58423,0,0,1,.43213-.86377A54.89513,54.89513,0,0,0,270.5347,49.70708a9.3627,9.3627,0,0,0,1.08008-3.88867,2.70671,2.70671,0,0,0-.07178-.792,1.78354,1.78354,0,0,1-.07226-.57617.6907.6907,0,0,1,.79248-.792,7.68626,7.68626,0,0,1,3.45605,1.36816c1.22412.72022,1.728,1.36817,1.728,1.87207a1.2577,1.2577,0,0,1-.50391,1.0083,57.38936,57.38936,0,0,0-4.96826,6.98438,14.31552,14.31552,0,0,0,6.98438-2.23193,2.69662,2.69662,0,0,1,1.5122-.5044,2.55261,2.55261,0,0,1,1.584.72022,18.99129,18.99129,0,0,1,2.08838,1.65625c.648.57617.936.936.936,1.29589,0,.28809-.28808.5044-.936.792-2.16016.86425-4.82471,2.88037-10.585,9.21679,2.88037-.71972,5.76025-1.36767,7.77685-1.94384a5.34651,5.34651,0,0,1,1.584-.35987,3.322,3.322,0,0,1,1.65625.50391,10.892,10.892,0,0,1,3.38427,2.16016c.936.72021.936,1.15185,0,2.01611C287.16849,68.93266,286.6641,70.01274,285.51224,75.12505Zm-12.81738.28808a15.81684,15.81684,0,0,1-3.96-.21631c-.72022-.21582-1.08008-.57568-1.08008-.792,0-.28808.21582-.43213.71973-.5039,1.0083-.14405,2.59228-.50391,4.32031-.936v-2.3042c0-1.51221,0-2.44824.07226-3.16846-3.16845.64844-5.68847,1.08008-7.48877,1.36817.57618,3.24023,1.584,7.99267,2.44825,12.52929,1.80029-.50439,3.52832-.936,5.04052-1.22412C272.76712,78.2935,272.76712,76.709,272.69486,75.41313ZM270.607,93.84673c-.28809,1.08007-.72022,1.584-1.22412,1.584-.36036,0-.792-.35986-1.08008-1.00781-.72022-1.44043-1.36817-4.75244-1.87207-6.69678a1.78331,1.78331,0,0,1-.07227-.57617c0-.28809.07227-.43213.28809-.43213a1.337,1.337,0,0,1,.72021.28809c2.44825,1.72851,3.45606,3.38427,3.45606,5.25683A6.42005,6.42005,0,0,1,270.607,93.84673Zm6.04834-.36036a1.232,1.232,0,0,1-.86377-.57568,15.099,15.099,0,0,1-2.73633-6.19287,3.69084,3.69084,0,0,1-.144-.792c0-.28809.144-.43213.28808-.43213a2.1674,2.1674,0,0,1,1.00781.43213c2.59229,1.58447,3.52833,3.3125,3.52833,5.6167v.21582C277.66361,92.91069,277.23148,93.48637,276.65531,93.48637Zm4.53662-27.3623a13.81229,13.81229,0,0,0-1.44043.144c-.86377.07227-2.44824.36035-3.96.64844a6.80758,6.80758,0,0,1,.14355,1.94385c0,.792,0,1.80029-.07178,3.24023a10.56572,10.56572,0,0,1,2.376-.28808,3.99417,3.99417,0,0,1,2.0166.43213c.57569.28808.86377.64794.86377,1.0083,0,.21582-.21582.5039-.71972.57617-1.72852.5039-3.3125.86377-4.75245,1.15185-.07226,1.36817-.144,2.95215-.36035,4.75244,2.16016-.28808,3.88867-.5039,4.53662-.5039h.43213c.43164,0,.71973-.21631,1.00782-1.08008a53.05767,53.05767,0,0,0,1.29638-9.64893c0-.28808.07178-.57617.07178-.86425C282.63187,66.48442,282.272,66.12407,281.19193,66.12407Zm4.68017,24.48242c-.21582,1.36817-.64795,2.01612-1.15185,2.01612-.5044,0-1.0083-.43213-1.51221-1.15235a47.96439,47.96439,0,0,1-3.74463-6.26416,2.61259,2.61259,0,0,1-.35986-.93652c0-.07178.07226-.14356.21582-.14356a3.6182,3.6182,0,0,1,1.08057.35987c3.74414,1.29589,5.54443,3.24023,5.54443,5.47265C285.94437,90.17436,285.8721,90.39018,285.8721,90.60649ZM321.083,83.04594c-.21582,0-.43164-.07226-.71973-.07226a47.29646,47.29646,0,0,0-5.68847-.35986,97.51348,97.51348,0,0,0-11.665.86377V87.15c0,11.44922-.64844,17.20947-1.87207,21.74609-.28809,1.15186-.64844,1.728-.93652,1.728-.2876,0-.57569-.72021-.792-2.16016-.144-.86425-.21582-5.32861-.21582-11.01709,0-4.17627.07178-8.92871.144-13.53711a43.06307,43.06307,0,0,0-8.28077,1.44043,6.946,6.946,0,0,1-2.30419.35987,5.87062,5.87062,0,0,1-3.02442-.936c-1.08008-.648-1.65625-1.15234-1.65625-1.44043,0-.2876.5044-.43164,1.36817-.5039,3.60058-.35987,7.48876-.792,13.89746-1.8003V74.045c-2.3042.21582-3.74463.35986-4.82471.35986a4.11144,4.11144,0,0,1-2.66406-.648c-.648-.43213-1.00782-.72021-1.00782-1.00781,0-.21631.43164-.36035,1.22364-.50439,2.16064-.21582,4.96875-.648,7.34472-1.08008-.07177-2.08789-.07177-4.17627-.07177-6.33643a38.12677,38.12677,0,0,1-5.54444.64795,6.51342,6.51342,0,0,1-3.02441-.64795c-.936-.43213-1.36817-.792-1.36817-1.0083,0-.144.144-.2876.43213-.35986a2.13538,2.13538,0,0,1,.72022-.144,157.42627,157.42627,0,0,0,18.21728-3.456,8.724,8.724,0,0,1,2.44825-.36035,6.49551,6.49551,0,0,1,3.3125.86426c.57568.35986.936.72021.936,1.00781,0,.43213-.72021.79248-2.3042,1.08008-2.37646.43213-6.48047,1.15234-9.793,1.72851,0,1.87207-.07177,4.03223-.144,6.26416a34.4718,34.4718,0,0,1,6.33643-1.00781,6.68545,6.68545,0,0,1,2.37646.50391c.86377.28808,1.36816.648,1.36816,1.0083,0,.28808-.36035.57617-1.0083.86377-.72021.28808-6.62451,1.29638-9.14453,1.72851-.07226,2.73584-.07226,5.18408-.144,6.84033,4.53613-.72021,7.48828-1.15185,11.377-1.94384a12.303,12.303,0,0,1,2.23194-.21631,6.89438,6.89438,0,0,1,4.89648,1.728c.936.86425,1.36816,1.58447,1.36816,2.08837C322.88333,82.68559,322.30716,83.04594,321.083,83.04594ZM296.60111,57.69975a2.28693,2.28693,0,0,1-1.36817-.79248,21.21908,21.21908,0,0,1-4.10449-7.56054,3.674,3.674,0,0,1-.144-.648c0-.21582.07226-.35987.36035-.35987a6.28572,6.28572,0,0,1,1.65625.57569c4.03223,1.72851,4.96826,3.74463,4.96826,5.83252v.72021C297.753,56.90727,297.32132,57.69975,296.60111,57.69975Zm17.06543-8.209a34.93739,34.93739,0,0,0-4.46436,3.74414,50.75065,50.75065,0,0,1-7.05664,5.689,2.65687,2.65687,0,0,1-1.15185.50391.19132.19132,0,0,1-.21631-.21631,1.94236,1.94236,0,0,1,.5039-.936c6.481-8.13672,7.63282-10.36866,7.63282-12.09668V45.3145c0-.72022.2163-1.15234.792-1.15234.64844,0,1.80029.57617,3.52832,1.80029,1.22412.86426,1.72851,1.51221,1.72851,2.01611Q314.96292,48.73516,313.66654,49.49077Z"/><path d="M362.69632,69.3643c-1.87207.21631-4.10449.5044-6.62451.93653-.07226,2.52-.07226,5.18408-.144,7.63232,5.40039.792,7.27246,2.37647,7.48877,4.39258,0,.21582.07177.50391.07177.72021,0,1.22364-.57617,1.94385-1.29589,1.94385a2.00906,2.00906,0,0,1-1.29639-.64795,44.614,44.614,0,0,1-4.96826-5.68847c-.07178,4.53613-.144,8.71289-.144,11.01709v3.312c0,6.69678-.21583,8.49707-.57618,9.57715-.43213.936-.936,1.43994-1.43994,1.43994s-1.08008-.57617-1.584-1.584a9.14984,9.14984,0,0,1-1.15235-3.8164,8.53429,8.53429,0,0,1,.50391-2.73633c.72021-2.59229,1.58447-12.60107,1.80029-20.88184a44.80007,44.80007,0,0,1-16.48925,18.36182,4.46116,4.46116,0,0,1-2.08838.792c-.28809,0-.50391-.144-.50391-.36035,0-.28809.28809-.648.792-1.08008a56.99974,56.99974,0,0,0,15.91358-21.2417q-4.1045.97192-8.42481,2.37647a11.64706,11.64706,0,0,1-3.60058.71972,5.64954,5.64954,0,0,1-3.168-1.00781c-.72022-.57617-1.15235-1.08008-1.15235-1.5122s.57618-.792,1.87207-.792a168.43467,168.43467,0,0,0,16.99366-2.80859V63.02788c0-11.23291-.43213-14.97705-1.15186-15.91309a3.74662,3.74662,0,0,1-.72021-1.72851c0-.57569.35986-.792.936-.792a5.635,5.635,0,0,1,2.44824.792c2.52,1.36816,3.45606,2.01611,3.45606,2.80859a3.05413,3.05413,0,0,1-.64795,1.584c-.648,1.08007-1.43994,6.76855-1.65625,18.07373a20.95013,20.95013,0,0,0,3.67236-.936c1.87256-.50439,3.24024-.50439,4.24854,0a1.61326,1.61326,0,0,1,.792,1.15186C364.85648,68.71636,364.13626,69.22075,362.69632,69.3643Zm-12.88916-6.26416c-.28808,1.44-.86377,2.08789-1.584,2.08789a1.74024,1.74024,0,0,1-.936-.28808c-1.22412-.648-2.5205-2.66406-3.88867-5.40039a1.34042,1.34042,0,0,1-.2876-.792q0-.64819.86377-.64795a1.99767,1.99767,0,0,1,.64795.07177c3.3125.72022,5.25684,2.3042,5.25684,4.32032A1.98883,1.98883,0,0,1,349.80716,63.10014Zm15.40918-3.88867c-1.08008.43213-3.09619,1.58447-5.76025,3.09668a1.71688,1.71688,0,0,1-.86426.2876.48119.48119,0,0,1-.50391-.43164,1.1058,1.1058,0,0,1,.35987-.79248,17.41488,17.41488,0,0,0,3.09668-5.32813c.21582-.72021.43164-1.15234,1.00781-1.15234a3.77982,3.77982,0,0,1,1.80029.936c1.36817,1.00831,1.94434,1.8003,1.94434,2.37647C366.29691,58.63579,365.86478,58.99565,365.21634,59.21147Zm32.11524,15.84131c-.28809,0-.57618-.07178-.93653-.07178-1.43994-.144-3.168-.144-4.896-.144a67.3568,67.3568,0,0,0-7.9209.43213c.07178,3.6001.07178,6.76855.07178,9.57666,0,13.249-.648,18.07373-1.728,21.67383-.43213,1.5122-.936,2.3042-1.2959,2.3042-.43213,0-.792-.86377-.86426-2.3042-.144-1.87207-.21582-5.61621-.21582-10.08057,0-6.48047.144-14.54541.21582-20.59375a53.01758,53.01758,0,0,0-9.28857,2.01611,17.5774,17.5774,0,0,1-4.46436,1.08008,5.02145,5.02145,0,0,1-2.3042-.72021c-.936-.50391-1.44043-.936-1.44043-1.2959,0-.43213.72022-.72022,2.23243-.86426,2.66406-.35986,9.14453-1.36816,15.26513-2.44824.07227-5.32861,0-14.18506-.21582-18.36133-.28808-5.68848-.86426-7.84912-2.08838-9.28906a2.92958,2.92958,0,0,1-.792-1.584c0-.5039.43213-.86425,1.36817-.86425a9.20988,9.20988,0,0,1,2.88037.648c2.95214,1.15234,3.96,1.94433,3.96,2.95263a2.82533,2.82533,0,0,1-.21582,1.00782c-.43213.64794-.86426,3.96044-.936,8.353-.07226,2.16016-.144,8.2085-.144,13.105v3.24024c2.66406-.57617,5.25635-1.08008,6.26465-1.36817a16.66714,16.66714,0,0,1,4.248-.72021,8.87823,8.87823,0,0,1,4.17676,1.22412c1.08008.57617,1.584,1.29639,1.584,1.80029C399.8516,74.4771,399.0596,75.05278,397.33158,75.05278Zm-23.40235-5.54443a2.71137,2.71137,0,0,1-.72021-.07178c-1.00781-.144-2.5918-.936-5.11231-3.3125a.62205.62205,0,0,1-.21582-.43164,1.01636,1.01636,0,0,1,1.00782-.86426,9.15153,9.15153,0,0,1,1.36816-.07226c3.52832,0,5.18457,1.29638,5.18457,3.16845v.21631C375.36966,69.14848,374.86527,69.50835,373.92923,69.50835Zm2.16016-10.65674a1.45194,1.45194,0,0,1-1.43994,1.36816.91077.91077,0,0,1-.43213-.07226,11.51117,11.51117,0,0,1-4.75244-4.03223,1.58416,1.58416,0,0,1-.43213-.86377c0-.28808.36035-.43213,1.29639-.43213h.21582c3.52832,0,5.61669,1.43994,5.61669,3.45606A1.57959,1.57959,0,0,1,376.08939,58.85161Z"/><path d="M433.97562,84.918c-7.05664,3.88818-15.40918,9.50488-16.27344,10.36865a2.11733,2.11733,0,0,1-1.65625.86426c-.72021,0-1.65625-.50391-3.02441-1.51221-1.15186-.936-1.728-1.728-1.728-2.23242,0-.648.72022-1.00782,2.01611-1.08008,1.87256-.07178,6.62452-1.94385,10.729-3.96V74.40483a25.73151,25.73151,0,0,1-4.32031.5044,4.6616,4.6616,0,0,1-1.44-.144c-1.36816-.28808-2.01611-.79248-2.01611-1.22412,0-.28808.21582-.57617.71973-.72021,1.44043-.28809,4.96875-1.43994,7.05664-2.16016-.07178-7.9209-.35987-10.873-1.2959-12.24121a11.42847,11.42847,0,0,1-2.08838.21631,8.94519,8.94519,0,0,1-3.52832-.79248c-.936-.35987-1.43994-.71973-1.43994-1.08008,0-.43164.648-.792,1.87207-.936.936-.144,7.05664-2.01611,8.35254-2.52a12.981,12.981,0,0,1,4.46435-1.22413,8.96889,8.96889,0,0,1,2.23243.35987q1.94383.54052,1.94433,1.5122c0,.43213-.43213,1.00831-1.44043,1.44043a51.6758,51.6758,0,0,1-7.63232,2.3042c2.08789.86377,2.66406,1.43994,2.66406,2.73584a9.28269,9.28269,0,0,1-.21631,1.8003c-.14355.72021-.43164,4.24853-.64795,7.27246a16.20726,16.20726,0,0,1,4.75244-.86377c.36036,0,.57618.07178.792.07178.936.2163,1.44043.64794,1.44043,1.29638,0,.50391-.36036,1.08008-1.29639,1.65576a29.649,29.649,0,0,1-5.9043,2.08838V85.85405c5.32862-2.80811,8.35254-4.10449,9.64893-4.10449a.70789.70789,0,0,1,.57568.21631C437.50394,82.25346,435.99173,83.83794,433.97562,84.918Zm39.60352,15.26513a14.11927,14.11927,0,0,1-3.60059-.64795,100.4315,100.4315,0,0,0-12.60107-.57617c-2.23194,0-4.39209,0-6.04834.144a114.02219,114.02219,0,0,0-15.48145,2.44825,5.61208,5.61208,0,0,1-1.584.21582,6.16875,6.16875,0,0,1-4.17627-1.79981,2.8065,2.8065,0,0,1-.93653-1.36816c0-.5044.57617-.72022,2.08838-.72022.35986,0,.792.07227,1.2959.07227h.43213c1.65625,0,6.62451-.36035,16.99365-1.51221l.07178-9.07275a29.56884,29.56884,0,0,1-3.38428.144,11.81665,11.81665,0,0,1-4.68017-.72021q-.86427-.43214-.86426-.86426c0-.43213.64795-.71973,2.01611-.86377,2.0166-.21631,4.6084-.57617,6.98486-1.0083,0-.07178.07178-4.68018.07178-9.43262-1.87207.28809-4.104.648-6.4082.936-.144.792-.64844,1.22412-1.0083,1.22412h-.21582c-.86426,0-1.36817-.28809-2.3042-8.209-1.22412-9.64844-2.16016-13.105-3.38428-15.04931a4.15986,4.15986,0,0,1-.86426-1.94385c0-.5044.28809-.72022.86426-.72022a9.4889,9.4889,0,0,1,3.24024.936c4.89648-.28809,17.28125-2.59229,21.7456-4.17627a4.53538,4.53538,0,0,1,1.58447-.35986c1.15186,0,2.44825.71972,5.40039,2.73584,1.728,1.15234,2.376,2.01611,2.376,2.88037a2.60928,2.60928,0,0,1-.936,1.728c-.936.936-2.01612,3.45655-2.59229,6.12061-2.01611,9.7207-3.09619,11.80908-4.68018,13.89746-.64794.86377-1.22412,1.2959-1.65625,1.2959s-.64794-.43213-.792-1.00781c-.21631-1.15235-.36035-1.29639-1.08008-1.36817a8.2416,8.2416,0,0,0-1.36816-.07226,23.80581,23.80581,0,0,0-4.6084.5039c-.07226,4.96875-.144,9.50489-.144,9.57715,2.16015-.43213,3.88818-.72021,4.46435-.936a6.80812,6.80812,0,0,1,2.52-.5044,4.11041,4.11041,0,0,1,2.3042.64844q1.08033.64746,1.08008,1.2959c0,.43213-.43164.86426-1.2959,1.22412-.792.43213-3.96045.936-9.14453,1.728l-.144,9.07275c3.74414-.50391,8.06445-1.00781,13.105-1.584.86426-.07178,1.65625-.14405,2.376-.14405A8.50346,8.50346,0,0,1,474.587,96.439a3.19111,3.19111,0,0,1,1.36816,2.23193C475.95511,99.5352,475.2349,100.18315,473.57914,100.18315ZM448.521,65.47612a8.45215,8.45215,0,0,1-3.67236-.792c-.72022-.28809-1.08008-.57617-1.08008-.792,0-.28809.71972-.50391,2.01611-.64795.71973-.07227,2.73633-.43213,4.53613-.79248-.07177-5.83252-.5039-8.56836-1.5122-9.64844-3.88819.57568-5.83252.86377-7.48828.936.936,4.96827,2.01611,14.25733,2.44824,19.65772,1.65576-.28809,4.248-.72022,6.48047-1.0083,0-2.80811.07177-5.54444.07177-7.05664A17.89222,17.89222,0,0,1,448.521,65.47612Zm13.249-14.40137a2.74267,2.74267,0,0,0-1.15234-.21582c-1.15186,0-3.168.35987-8.85645,1.36817,2.16016,1.00781,2.80811,1.80029,2.80811,2.52a2.22209,2.22209,0,0,1-.21582.936,30.8834,30.8834,0,0,0-.64844,5.76074,13.24541,13.24541,0,0,1,4.39258-1.0083,2.49,2.49,0,0,1,1.51221.36035,1.21489,1.21489,0,0,1,.792,1.08008c0,.35987-.28809.792-.936,1.00782-.792.28808-3.60058,1.15234-5.83252,1.72851,0,1.87207-.07226,4.53613-.07226,7.34424a51.90623,51.90623,0,0,1,5.32861-.648,2.45367,2.45367,0,0,1,.792.07227,1.0272,1.0272,0,0,0,.43213.144c.50391,0,.936-.64844,1.8003-4.75244a95.71637,95.71637,0,0,0,1.584-12.74512C463.49808,51.795,463.28226,51.36284,461.77005,51.07475Z"/></svg>