<svg xmlns="http://www.w3.org/2000/svg" viewBox="0 0 287.96423 289.26037"><defs><style>.a{fill:#910000;}.b{fill:#9d1b1b;}.c{fill:#fff;}</style></defs><circle class="a" cx="145.9799" cy="144.56576" r="136.1589"/><path class="b" d="M107.5282,284.94379c.36072.15126.568.1203,0,0Z"/><path class="b" d="M38.94678,43.23984c.08581-.08368.1195-.13352.20068-.21875a5.78537,5.78537,0,0,1-.04358-.88941Z"/><path class="b" d="M78.4812,15.30826l.29407-.07358C78.68225,15.10965,78.66333,14.94684,78.4812,15.30826Z"/><path class="b" d="M.96387,145.43765a1.63446,1.63446,0,0,0,.14477.81262A4.7547,4.7547,0,0,1,.96387,145.43765Z"/><path class="b" d="M194.09729,280.49458l-.19019.08834c.17652-.00583.35218-.02649.53882-.01958Z"/><path class="b" d="M193.3302,281.217c-1.064.16133.15772-.436.5769-.63408a8.24,8.24,0,0,0-3.39343.92123C190.64307,281.87828,192.738,281.10721,193.3302,281.217Z"/><path class="b" d="M287.86584,162.86639l.09839.49085A2.2314,2.2314,0,0,0,287.86584,162.86639Z"/><path class="b" d="M20.43091,141.22806c.03076.20617.0426.43924.07788.6289A1.28037,1.28037,0,0,0,20.43091,141.22806Z"/><path class="b" d="M282.23889,187.05835l.51123.44525C282.57861,187.19653,282.40869,187.08679,282.23889,187.05835Z"/><path class="b" d="M39.10388,42.13168l.06946-.42709A1.64893,1.64893,0,0,0,39.10388,42.13168Z"/><path class="b" d="M120.692,1.37946a.8188.8188,0,0,0,.31543.42816l.12451-.01752Z"/><path class="b" d="M278.71362,117.461a.67741.67741,0,0,0,.22034-.15817l-.62036-.72434A3.57157,3.57157,0,0,0,278.71362,117.461Z"/><path class="b" d="M180.64673,6.12418c.06885-.05841.22375-.09082.25256-.16535a43.76362,43.76362,0,0,0-6.98254-1.80215l-.35718.71771C175.93506,5.19907,178.27856,5.70963,180.64673,6.12418Z"/><path class="b" d="M226.79663,49.56387c-1.04626-1.64709-2.22522-3.169-3.3866-4.7485a93.37255,93.37255,0,0,1,16.19361,14.96908c4.10815,4.83426,7.78039,9.5448,12.58667,15.70731l-.74549-.54227c.44324,1.06235,1.62549,1.344,3.833,4.4011.52991.77667,1.12439,1.72558,1.78772,2.89733.32459.58957.69605,1.21891,1.03113,1.93863q.4953,1.08363,1.03442,2.36155.53907,1.28068,1.12183,2.77142c.36291,1.00763.694,2.11056,1.05884,3.28128.3396,1.18161.77282,2.40726,1.06384,3.77884q.44623,2.03861.95044,4.342l-.145.0542a4.371,4.371,0,0,1,.78882,2.44372c-.1283-1.465-.366-2.90173-.60425-4.34985a39.49936,39.49936,0,0,1,3.94946,7.42368,1.20661,1.20661,0,0,1-.39257,1.23095c.83337,2.69611,1.77294,5.37052,2.42761,8.12491l-.392,2.74185c.57446,1.19385,1.22815,1.42292,1.84338,2.22031a4.674,4.674,0,0,1,.77063,1.839,12.87031,12.87031,0,0,1,.24378,1.61566,13.52608,13.52608,0,0,1,.04565,2.27573c1.11829-2.83313,1.30591,3.33011,1.93836,2.37985-.13489.37579-.30115,1.2088-.46814,1.87769.20654,1.02713.29992,2.29965.49414,3.645.18542,1.34893.38183,2.77829.56885,4.13928a30.90192,30.90192,0,0,0,1.0415,6.18207s.17029-1.03577.43713-2.66028c.25122-1.62879.71558-3.86725.96363-6.26316.30273-2.398.67492-4.97256.8468-7.238.21118-2.26779.50256-4.258.64575-5.44641.19714,1.52606.21106,2.40225.28552,2.817.05884.417.10523.38321.15.117.08618-.53125.19006-2.00074.29992-2.63642l-.43225-.34665c-.29773-3.695.61133-3.87585.53223-5.764a.65458.65458,0,0,0-.23108.158l.16309.2099c-.129.20571-.25806.12561-.38343-.05173-.18469.08353-.35827-.05621-.53845-1.05136l.13843.16885a47.06822,47.06822,0,0,1-1.14087-5.282l.74365-.21195a10.2543,10.2543,0,0,1-1.3634-3.91546c-.19666-.94828-.37317-2.01416-.54712-3.14429-.22241-1.115-.4364-2.29614-.64319-3.4931-.21606-1.19352-.386-2.41718-.62048-3.57782-.25012-1.16-.49134-2.27835-.71265-3.30478-.22729-1.029-.44348-1.96738-.6449-2.75919a16.34574,16.34574,0,0,0-.63684-1.84546c-.63781-3.9006-3.802-7.63476-5.6886-11.99688-3.57251-6.69745-.89685-3.87729-2.37732-7.48145-2.19079-4.31436-.23254,1.30539-1.31762-.2908l-1.101-2.711c-.38025-.8992-.80774-1.77075-1.21289-2.6619,2.01928,2.68216,1.35156.93836,1.23754.26233-.69983-1.04181-1.44006-2.27786-2.19348-3.55511-.73364-1.29166-1.60949-2.52814-2.39209-3.7012a24.31875,24.31875,0,0,0-2.29333-2.96259,3.72254,3.72254,0,0,0-1.959-1.24414c-.96826-1.40021-1.6709-2.48038-2.20752-3.34729-.55041-.85455-.96081-1.47235-1.28418-2.00635a15.90707,15.90707,0,0,0-2.02575-2.80182c.47888.9086,1.63513,2.49112,1.41894,2.71561-1.38965-2.44315-1.01806-.82486-.3612.0838a30.61889,30.61889,0,0,1-3.48059-3.76678c-.72474-.85364-1.5094-1.77768-2.31556-2.72711-.79748-.96232-1.61547-1.95615-2.48034-2.86606-.859-.92209-1.70008-1.82489-2.48255-2.66483-.40136-.41244-.78772-.80948-1.15381-1.18576-.383-.35724-.75439-.68457-1.10229-.98425-1.39441-1.1962-2.45105-1.89856-2.88135-1.69864l.1886-.24445c-1.52869.40689-1.06067,2.31263-3.74353,1.1153l-1.224-1.56229-2.6604-1.2272c-1.34-1.4541-.37988-1.18317-.29114-1.30948-1.03283-.57623-2.18554-1.1763-3.33423-1.91513-1.16369-.71552-2.33581-1.55588-3.57128-2.35654-2.49952-1.54965-5.01026-3.35913-7.54908-4.68152.631.97586,1.26734,1.91578,1.86243,2.90574l1.738,2.97985c-.92871-.74493-2.011-1.71258-3.212-2.60522-1.20129-.89139-2.46594-1.81018-3.6571-2.62412a20.90373,20.90373,0,0,0-3.25379-1.89618c-.9209-.42526-1.61718-.62283-1.94543-.4678-.713-.73837-1.42383-1.50217-2.1593-2.22806-4.06153-2.76877-5.73047-3.2301-6.788-3.09366-1.05444.09848-1.47632.61451-3.18066-.31268-1.3866-.91653-2.78516-1.84311-4.23364-2.65838,1.55761.41842,3.07946.95059,4.60229,1.47885-1.09534-.54483-2.0271-1.00827-2.86377-1.42441-.84741-.388-1.59643-.74329-2.31653-1.096-1.44482-.68964-2.75439-1.43585-4.552-2.29306-.00305.01218-.04712.01129-.05.02307.24976.11151.404.20889.42066.29l-.67322-.12463c-.735.48455-3.29346.29632-6.62586-.46054-2.37646-.50409-4.53576-.73768-7.03344-1.08338-1.25476-.1387-2.5929-.32379-4.09046-.61752-.7489-.14688-1.53784-.32092-2.37732-.52991-.84314-.17169-1.73779-.36893-2.69433-.60968L155.801,3.95871c-.95411-.19342-1.90955-.41608-2.87-.585l-2.89124-.45767.02881-1.023c2.87159.0401,7.0044.28558,11.34461.59295,2.16491.23044,4.38086.46631,6.5155.69355l5.988.97711.22009-.43543c-2.171-.382-4.507-.70657-6.65832-.95288-2.16272-.17581-4.13233-.33719-5.56739-.56967a12.24457,12.24457,0,0,1-1.304-.45972,8.16267,8.16267,0,0,1-1.33093-.6062c-.721-.43442-.939-.89139.42126-1.13278L156.879.7887c-3.68091-.31391-6.45654-.27008-8.77954-.34253-2.32361-.098-4.19873-.00217-6.09717-.02936-.95-.01459-1.90515-.02927-2.92444-.04495-1.02014-.0257-2.102.02728-3.31067.02914-1.21057.00876-2.54443.01846-4.06018.02945-1.51684.02951-3.21057.15253-5.15564.2432l1.40039.34c-1.50268.349-3.00036.67084-4.23706.86484a4.16456,4.16456,0,0,1-2.70727-.07089c-9.20472,1.38525-18.64441,3.48843-24.84815,4.377-.28821.52014-.57226,1.04071-.84289,1.58734-1.84839.6536-5.31653.06388-5.57141,1.981-1.24158.68646-2.437,1.46829-3.64966,2.19647a31.13751,31.13751,0,0,0-3.17346,1.63471,12.72988,12.72988,0,0,1-3.54822,1.50772l-.00025-.00058a.05114.05114,0,0,0-.01648.005l-.58166.13837a.2173.2173,0,0,0,.07641.07358c-2.84973,1.14767-2.69177,1.41217-2.65454,1.67621.03589.26825-.02734.56714-3.22168,2.00366A2.44472,2.44472,0,0,0,71.02,20.58749a5.15364,5.15364,0,0,1-2.38074,2.5195l-3.81128.391a19.70036,19.70036,0,0,0-5.75842,4.07043c-.77527.76273-1.56287,1.647-2.61548,2.65286-1.03259,1.03089-2.38135,2.12223-4.038,3.6099-3.62049,2.31769-6.22083,2.6271-4.9115-.24716-.9856,1.88528-1.10913,2.40435-1.45093,2.93728-.33581.53421-.86352,1.10666-2.4873,3.18289-1.03724.08921-.73523-.39114-.30017-1.61685-1.9668,1.33576-2.37781,1.95578-2.59827,2.54825a5.20187,5.20187,0,0,1-1.52051,2.38547c.18274,1.58954.81983,3.75564.11279,4.61551l1.19886-.70447c-1.03846,1.513-2.03382,3.159-3.2771,4.67914-.60437.77536-1.28186,1.512-1.95044,2.27978-.66675.76947-1.38184,1.52255-2.15381,2.25559l-.38782-.50653c-.82861,1.257-1.72473,2.45922-2.48938,3.7561l-.80115-.2373c-1.168,1.80859-2.3894,3.57662-3.50122,5.41458l.65638-.62149c-.37024.6611-1.16163,2.07486-2.09815,3.58853-.46777.75735-.971,1.5408-1.47449,2.27112-.48034.7445-.9436,1.44683-1.38867,2.0075l-.3269-.31167a29.43632,29.43632,0,0,0-3.30554,4.83041c-.88868,1.68225-1.65674,3.40292-2.39673,5.17716-.68445,1.80148-1.29847,3.67724-1.99927,5.623-.36475.9671-.68872,1.97873-1.02686,3.0213-.34594,1.03931-.71862,2.1041-1.13037,3.19977l-.38427-1.47c-1.00391,1.33356-.76294,1.66449-.496,2.07935.27137.4187.53247.90869-.27319,2.637l-1.09936-.18564a4.8286,4.8286,0,0,1-.89173,3.636,17.00324,17.00324,0,0,0-2.0022,2.46795l1.67762-.62512-1.48536,4.111a9.38571,9.38571,0,0,1-1.15734,2.2613c-.31006.42889-.58411.56417-.82727.52819-.48194-.06994-.85913-.834-1.12244-1.2727.09375,1.17157.22668,2.34427.34253,3.50375l-1.38574.34418c.9259,2.6947-.861,2.31055-.80762,6.66925-.53565.26022-.61707-.85468-1.07471.54114l.27014,3.61261.44458,3.5946c-.07129-1.42261-.20312-2.86175-.21777-4.2915l1.749.7904a10.8059,10.8059,0,0,1-.1488,4.98224,10.41032,10.41032,0,0,0-.60791,3.97837c-.12292-.72559-.27527-1.45658-.35376-2.18345-.0011,5.09357-.77234,5.29487-1.39832,8.1475.39686-.87619,1.02137-2.19407,1.10828-.136.059,1.50778-.67615.78418-.91943,2.20551.61474.194,1.06262,1.20248,1.2749,2.56277a17.60971,17.60971,0,0,1-.0459,4.72128.62852.62852,0,0,1-.46692-.31888,4.59414,4.59414,0,0,1,.29053,2.72892L0,148.153l1.38342,2.77789c-.3407,1.89758.93714,4.55566-.03149,4.37646l-.356-1.04715c.18836,4.75135.63867,9.49805,1.29895,14.21991l-1.05212.37711c.87231.57669,1.07214,2.51889,1.28186,4.23117.20032,1.71307.54834,3.15939,1.40027,2.73016-.184,1.42029.53564,3.99149,1.14026,6.02356.61962,2.02863.96484,3.58167-.2793,3.10929.30395,1.14529.62378,2.21563.95434,3.2323.37378,1.00329.7627,1.95163,1.1532,2.8702.80225,1.82972,1.53406,3.5683,2.45349,5.297.89405,1.73776,1.7284,3.55948,2.65064,5.59006.97839,2.00635,1.85986,4.30463,2.90747,6.9783.12866,2.20618,1.52954,5.82352,3.6311,9.53156.51465.93249,1.0293,1.89611,1.59741,2.83206.58826.92373,1.17884,1.85107,1.76014,2.76385.58313.91162,1.1571,1.80872,1.71008,2.67313.57764.84781,1.13354,1.66354,1.65552,2.42963a142.98276,142.98276,0,0,0,12.806,14.2602c2.20093,2.0241,4.2987,4.15108,6.73547,6.17031,1.20374,1.02334,2.40332,2.112,3.70911,3.17465,1.317,1.04687,2.68371,2.13332,4.11609,3.272a25.38435,25.38435,0,0,0,5.11621,5.30093,69.40174,69.40174,0,0,0,6.82507,4.56136c4.88013,2.78221,9.94605,5.25985,13.83691,8.05142l2.76587.28792a16.07389,16.07389,0,0,0,2.03772,1.52708c.75879.457,1.5774.89473,2.441,1.32152a51.45539,51.45539,0,0,0,5.64966,2.40892,128.69206,128.69206,0,0,1,12.39246,5.006,34.1406,34.1406,0,0,1,3.83728.45194,1.33468,1.33468,0,0,1-.9187-1.17113c2.27746,1.19788,7.3717,1.75754,6.73462,2.91681l-.65589-.017c-.32776.57656,1.58606.87125,3.88709,1.217,2.32312.24646,5.02466.53345,6.33252,1.32506l-1.30213-1.61736,2.32862.5275,2.34851.41716-1.30445.0974c10.46473-.05164,17.823.44769,25.17713.59341,7.3009.12663,14.66174-.05461,23.89721-3.28639-1.11926.95714-.21777.597,1.03309.19076,1.23828-.46573,2.81274-.99435,3.11779-.22952a10.1257,10.1257,0,0,0,3.64771-.03718A12.18657,12.18657,0,0,0,184.996,284.689c1.96375-1.02789,3.72791-2.24583,5.5177-3.1848-.02466-.07606-.00781-.18062.16895-.3726,2.20837-.70458,4.45947-1.30193,6.62561-2.14009-3.13867,3.44735,4.05139-3.42985,1.12817-.397,8.74964-2.58037,18.2655-7.33322,27.26648-13.42209A176.56659,176.56659,0,0,0,250.689,244.25438l-1.02014.30257c.93909-.94767,1.90039-1.98743,2.86536-3.04966.91687-1.10479,1.84692-2.22552,2.75122-3.31506a53.91036,53.91036,0,0,1,5.089-5.56848,12.72684,12.72684,0,0,0,3.35071-5.16815c.744-1.80652,1.17492-3.42145,1.5404-4.11356a13.3824,13.3824,0,0,1,3.11084-4.68494c.9375-.971,1.57422-1.21588,1.05921-.41494,2.18249-4.24863,2.69445-8.94715,6.10864-14.5054.62573-.32505,1.30261-1.552,1.98987-3.19336.6427-1.66053,1.2229-3.762,1.80945-5.77854.30774-1.00357.54467-2.01355.77563-2.94781.236-.93247.46912-1.78815.70215-2.50925.46594-1.44165.93249-2.34833,1.4176-2.24945l-.13562-.1167a36.48485,36.48485,0,0,0,2.13049-5.846c.53626-1.988.822-4.03384,1.17688-6.07452.38489-2.03632.53479-4.13272.911-6.22934.16186-1.05307.411-2.10349.59716-3.17893.19629-1.074.43543-2.15734.73267-3.25463a2.08018,2.08018,0,0,1,.21435.50814,140.05979,140.05979,0,0,0-4.761-18.30062q-3.345,2.50464-6.6864,4.77331l-.71009,1.783-.79663,1.75958-1.59936,3.46344c-.50452,1.1453-1.11792,2.2663-1.70655,3.3775l-1.76037,3.29715a134.2639,134.2639,0,0,1-3.59705,18.554,138.0675,138.0675,0,0,1-6.391,17.87842A130.49768,130.49768,0,0,1,241.87219,223.662a124.9917,124.9917,0,0,1-59.473,40.50564l-4.6532,2.862c-7.35364.54843-15.381,2.02818-23.75537,2.73285-8.33972.72595-17.00549.65454-24.57629-1.29671l-.489,1.22319a9.15938,9.15938,0,0,1-3.745-.91762,10.5857,10.5857,0,0,0-1.22974-.80971c-1.25207-.22767-2.51709-.39984-3.764-.66548l-3.73864-.82577-1.87281-.40973-1.85009-.50434-3.70777-.99855c-1.22949-.357-2.43933-.77993-3.66223-1.16352-1.21545-.40555-2.45544-.7461-3.644-1.22921-2.396-.91345-4.82349-1.75782-7.1565-2.83007a128.48828,128.48828,0,0,1-13.75073-6.87975,126.34744,126.34744,0,0,1-12.68945-8.53832,123.68792,123.68792,0,0,1-11.43958-9.89955,120.30914,120.30914,0,0,1-9.85949-11.12588A107.55213,107.55213,0,0,1,32.3158,198.36725c-.32874-1.80386-1.80787-5.0477-2.92127-8.33914-.2948-.81513-.58752-1.62467-.86828-2.40088-.2417-.78983-.45606-1.55124-.64563-2.25141a15.82388,15.82388,0,0,1-.6377-3.28473,75.65045,75.65045,0,0,1-5.47473-17.36917c-.339-1.50363-.483-3.04-.71973-4.55929-.22009-1.52225-.43152-3.0437-.51343-4.57388q-.16461-2.29015-.32775-4.56144-.03077-2.27691-.06116-4.52679l.152.45087c-.05457-.939-.15491-1.87888-.17444-2.81968l-.04883-2.82507c.11035-.23675.26257-.26147.35608-.07858a23.99391,23.99391,0,0,1-.22229-5.38477,45.621,45.621,0,0,1,.66882-6.15915c.38318-2.1084.73255-4.26339,1.30994-6.32507.53735-2.06778.99328-4.09552,1.5907-5.94608l.03369.46982q.48174-2.05911.96142-4.10913c.33911-1.36163.75928-2.69894,1.1272-4.04712.69043-2.71176,1.69165-5.31515,2.525-7.96286q.74376-1.94439,1.4851-3.88226l.73889-1.93832.83094-1.897q.82909-1.89756,1.65576-3.78964L34.96765,86.559l.91626-1.84567,1.00012-1.799c.6709-1.19629,1.31568-2.40738,2.00086-3.59354,1.46826-2.31158,2.80993-4.705,4.4115-6.92374A124.14716,124.14716,0,0,1,53.34375,59.45383a114.65228,114.65228,0,0,1,55.35254-34.67472q1.94073-.34415,3.8905-.75415.97266-.21135,1.95374-.42456l1.98523-.35949q1.99182-.36232,4.00036-.77762l4.0802-.67072c2.72437-.53653,5.53345-.77661,8.34742-1.21216q2.12694-.201,4.27648-.40414,1.07538-.10414,2.15589-.20874l2.17395-.10492,4.37939-.20389,4.4159.03241c.7384.01,1.47912.00473,2.219.029l2.2179.14728c1.47912.11142,2.967.17935,4.447.34079a88.288,88.288,0,0,1,17.47619,3.71109c1.92749,1.20068,14.62073,4.48926,26.19739,10.59265a134.13863,134.13863,0,0,1,15.689,9.22663c2.18628,1.38766,3.93188,2.80215,5.36438,3.78219C225.39917,48.50259,226.33838,49.28064,226.79663,49.56387Z"/><path class="b" d="M266.92249,107.52438l-.05713-.17926C266.35486,107.51114,266.62463,107.72064,266.92249,107.52438Z"/><path class="b" d="M210.59863,19.09653l.31018.17434-.84875-1.2861Z"/><path class="b" d="M264.08862,66.49979a15.54456,15.54456,0,0,0-1.56225-2.40061c-.25586-.29385-.28211-.18188-.23841.06552.327.48758.64746.93509.95728,1.32462A7.98069,7.98069,0,0,0,264.08862,66.49979Z"/><path class="b" d="M272.69385,130.61948c.15283,1.53027.3966.91934.63794-.02011-.25623-1.5568-.43457-2.63987-.43457-2.63987C272.88,128.83582,272.70886,129.72693,272.69385,130.61948Z"/><path class="b" d="M279.06506,123.25549l.51941.4325C279.31018,122.75906,279.16064,122.82391,279.06506,123.25549Z"/><path class="c" d="M109.96955,87.71681c-.84816,1.27176-1.19457,2.89089-1.19457,6.16773,0,1.54193.07625,3.43123.23063,5.85991.11578,2.00414.193,3.58561.193,4.896,0,3.6628-.5394,4.93456-1.92789,6.3993-.771.771-1.31036,1.15693-1.77257,1.15693-.54033,0-.92534-.57894-1.19551-1.50334-.27017-.92535-.46221-1.8507-.73237-3.23825-.15438-.92535-.30877-.96394-1.19552-.96394a33.1272,33.1272,0,0,0-4.81878.578,16.78682,16.78682,0,0,1-2.58306.23157c-.42361,0-.84816-.0386-1.27177-.07719-.386,2.23571-.92535,3.16105-1.58053,3.16105-.578,0-1.19551-.73237-1.8121-1.8121a5.758,5.758,0,0,1-.73237-2.7751,5.94909,5.94909,0,0,1,.42361-2.12086c.38595-.96395.61752-4.39517.61752-7.94124,0-1.58053-.03859-3.19965-.15438-4.62674-.15438-2.08133-.65518-3.932-1.38849-4.74159-.5008-.578-.84722-1.04113-.84722-1.349,0-.27016.26923-.42454.92441-.42454a22.11645,22.11645,0,0,1,4.24079.65612,41.13766,41.13766,0,0,0,9.32973-2.08227,3.959,3.959,0,0,1,5.16613.23157c2.04274,1.27177,2.8137,1.96554,2.8137,2.73651A3.47506,3.47506,0,0,1,109.96955,87.71681Zm-5.474.88581c-.15439-1.84976-.30877-2.15852-1.54194-2.15852h-.54033a40.61686,40.61686,0,0,0-6.4765.771,9.28287,9.28287,0,0,1-1.8507.27017,48.24586,48.24586,0,0,1,.42455,7.44044A17.3995,17.3995,0,0,0,98.40411,93.846a7.55109,7.55109,0,0,1,2.42869-.5008,2.70673,2.70673,0,0,1,1.58053.42361c.88675.54033,1.34989,1.04113,1.34989,1.42614,0,.42455-.50174.73331-1.46568.96395a27.28772,27.28772,0,0,1-6.01335.88675,8.81352,8.81352,0,0,1-1.8121-.15438c-.0386,2.62166-.23157,5.4363-.46315,8.01937a18.42288,18.42288,0,0,0,4.54955-.73237,11.11267,11.11267,0,0,1,2.776-.46315,3.86876,3.86876,0,0,1,3.00667,1.42615,11.996,11.996,0,0,0,.30877-2.58307c.03859-1.50334.07625-3.35309.07625-5.281C104.72623,93.92314,104.65,90.41472,104.4956,88.60262Z"/><path class="c" d="M130.03728,87.17647c-.69378.193-1.42615.34736-2.08133.46315-.07719.84816-.193,1.65772-.27017,2.39009a6.06254,6.06254,0,0,1,1.07973-.11579,3.47508,3.47508,0,0,1,1.07879.15438c.69472.192,1.07973.5008,1.07973.80957,0,.34641-.5394.73237-1.65772.92534-.73237.15344-1.38755.26923-1.96648.385-.03766.15438-.07625.27016-.11485.42455-.27017.9244-.50174,1.65772-.69471,2.11992,3.162.771,3.66279,1.15692,3.74,2.39009v.386c0,1.19458-.5008,1.84976-1.15692,1.84976a1.91529,1.91529,0,0,1-1.31036-.80956c-.771-.88676-1.23411-1.38756-2.04367-2.42869-1.61913,2.73745-3.50748,4.318-6.9773,6.09148a15.99775,15.99775,0,0,1-2.3129,1.04114,1.33428,1.33428,0,0,1-.46314.11578c-.11579,0-.15438-.03859-.15438-.11578,0-.23157.80956-1.04114,2.42868-2.35244a15.214,15.214,0,0,0,5.43631-7.94124c-2.00508.42455-2.776.61659-3.43123.80957a12.10347,12.10347,0,0,1-2.89089.73237c-.57893,0-1.00254-.26923-1.8121-.92535-.771-.61659-1.19551-1.0016-1.19551-1.27177,0-.34736.771-.4622,2.54447-.5008,1.19551-.03859,4.81877-.46314,7.32465-.88675.15438-.92535.23157-1.7735.30876-2.776-2.08226.27016-2.69885.193-3.77858-.23158-.92441-.385-1.42615-.69377-1.42615-.88675,0-.26923.61659-.385,1.77351-.385a26.53923,26.53923,0,0,0,3.547-.54034v-.65518a13.41456,13.41456,0,0,0-.193-2.42868,2.51066,2.51066,0,0,0-.38595-.96395,3.64187,3.64187,0,0,1-.92441-1.77256c0-.34736.26923-.54034.92441-.54034a10.78129,10.78129,0,0,1,2.08227.30877c2.00413.4622,2.66026.80956,2.66026,1.58053a4.05743,4.05743,0,0,1-.386,1.34895,7.73672,7.73672,0,0,0-.30876,2.12087,4.97488,4.97488,0,0,1,1.38849-.34736,2.07684,2.07684,0,0,1,1.00254.34736c.88581.385,1.349.73237,1.349,1.07878C131.84938,86.52129,131.27139,86.86865,130.03728,87.17647ZM148.581,98.8577a36.00787,36.00787,0,0,1-5.16613.61658,2.37861,2.37861,0,0,1-2.27431-1.04019,59.14923,59.14923,0,0,1-3.89437-5.55209,14.71258,14.71258,0,0,1-6.12913,6.36165,11.36736,11.36736,0,0,0,3.31543-1.11832,2.46645,2.46645,0,0,1,1.349-.46315,5.17253,5.17253,0,0,1,2.04367.57893c2.42869,1.0402,3.23825,1.50334,3.23825,2.23571a4.55073,4.55073,0,0,1-.57893,1.61913,4.93091,4.93091,0,0,0-.42361,2.3129c0,.69377.0386,1.61912.15439,3.00761,0,.192.03859.385.03859.61659a9.992,9.992,0,0,1-1.38849,5.12754c-.92441,1.31036-1.65772,2.04273-2.23571,2.04273-.69378,0-1.23317-1.00254-1.69632-3.19965-.23157-1.15692-.65518-1.65772-1.73491-1.65772a4.40319,4.40319,0,0,0-.96394.07719c-1.88835.30876-3.12246.4622-4.43282.578-.11579,2.00508-.96395,3.08387-1.50334,3.08387h-.0386c-1.15692,0-2.12086-1.349-2.12086-3.31544a8.79041,8.79041,0,0,1,.07719-.963,21.66275,21.66275,0,0,0,.193-2.69885,14.308,14.308,0,0,0-.84816-5.32052,3.96226,3.96226,0,0,1-.65518-1.54193c0-.26923.193-.385.61658-.385a12.7001,12.7001,0,0,1,2.23571.34642c1.3499-.192,2.73745-.42361,4.04781-.65518a4.43311,4.43311,0,0,1,1.07973-1.58053,15.84665,15.84665,0,0,0,3.6628-6.74667,10.03334,10.03334,0,0,1-1.38849.11579,4.66667,4.66667,0,0,1-1.31036-.193c-.5394-.192-.84816-.42361-.84816-.61658,0-.27017.5008-.5394,1.69631-.69378.69378-.07719,1.42615-.23157,2.23571-.386a28.781,28.781,0,0,0,.42455-2.89089h-.42455a4.14912,4.14912,0,0,1-2.08132-.386c-.69378-.385-1.04114-.578-1.04114-.69377,0-.15438.5008-.23063,1.38755-.385q1.21436-.23159,2.3129-.34736c.0386-.578.07719-1.07973.07719-1.50334a3.97281,3.97281,0,0,0-.53939-2.3515,4.18256,4.18256,0,0,1-.80956-1.69631q0-.46314.69377-.46315a11.00221,11.00221,0,0,1,2.3129.42455c2.15946.578,2.969.96395,2.969,1.54194a2.5129,2.5129,0,0,1-.54034,1.15692,4.94937,4.94937,0,0,0-.4622,1.73491,4.61954,4.61954,0,0,1,1.73491-.42455,4.13755,4.13755,0,0,1,1.42614.30876c.73237.23063,1.19552.5394,1.19552.88675,0,.46221-.73237,1.0016-2.42869,1.46475a15.59979,15.59979,0,0,1-2.35149.4236c-.11579.92535-.193,1.69632-.30877,2.3515,1.00254-.26923,1.92789-.578,2.69886-.84816a7.91763,7.91763,0,0,1,2.69791-.771,2.679,2.679,0,0,1,1.69632.69471c.69377.5008,1.11832.963,1.11832,1.349,0,.578-1.11832.96394-3.932,1.04113-1.00254.0386-3.00762.26923-4.74253.5394a1.671,1.671,0,0,0-.0386.193,24.06915,24.06915,0,0,0,10.641,6.052c1.88835.57893,2.8137.92535,2.8137,1.19552C151.43325,98.3569,150.4693,98.54894,148.581,98.8577Zm-12.52938,2.89089c0-.69378-.07719-.963-.80956-.963a2.7346,2.7346,0,0,0-.54034.03859c-1.11738.11485-3.97062.42361-7.24746.963.03859,1.11833.11578,2.15946.15438,3.162,2.69885-.96394,3.932-1.34989,4.81878-1.34989a3.45327,3.45327,0,0,1,1.69631.50174c.50174.26922.771.578.771.84815,0,.385-.42361.69378-1.38755.84816a45.6835,45.6835,0,0,1-5.85991.53939c.07719,1.156.07719,2.19712.11578,3.00668,2.00414-.26923,3.354-.5008,4.58721-.73237a7.93112,7.93112,0,0,1,1.34989-.193,2.10447,2.10447,0,0,1,1.46475.61753c.07719.03859.11578.07719.193.11484a.8667.8667,0,0,0,.385.193c.193,0,.23157-.193.27016-.578.07719-.73237.07719-1.73491.07719-2.776C136.09016,104.44744,136.05157,102.78972,136.05157,101.74859Z"/><path class="c" d="M168.01985,109.65217a2.93417,2.93417,0,0,1-.54033.0386c-.15344,0-.26923-.0386-.26923-.07719,0-.07719.30782-.23157.88676-.42455,6.01335-2.3129,9.56036-6.09054,9.56036-9.79194a6.89118,6.89118,0,0,0-.07719-.88675c-.42361-2.69791-2.54448-4.04781-5.35817-4.04781a14.1362,14.1362,0,0,0-8.13422,3.1234c-.11579,1.46475-.15438,2.73651-.15438,3.89343,0,2.50588.193,4.27938.193,5.70553a10.13621,10.13621,0,0,1-.11579,1.58053c-.23157,1.54193-.73237,2.92949-2.31384,3.43123a1.95094,1.95094,0,0,1-.65518.11578,1.53571,1.53571,0,0,1-1.61913-1.61912v-.65612c0-1.734-.88675-2.62073-2.3129-5.01176q-.23157-.46173,0-.4622a1.89381,1.89381,0,0,1,.386.15438,20.4006,20.4006,0,0,0,2.2743.80956,1.55987,1.55987,0,0,0,.46221.11579c.193,0,.23157-.15438.27016-.46315a23.15865,23.15865,0,0,0,.07719-2.35149v-2.69886a34.54286,34.54286,0,0,0-5.35911,5.93711,1.39155,1.39155,0,0,1-1.07879.57893,1.40791,1.40791,0,0,1-1.15692-.69472,6.02056,6.02056,0,0,1-.69377-2.7751,2.13327,2.13327,0,0,1,.07719-.73237c.385-1.31131.53939-.92535,1.04113-1.27271,1.69538-1.27177,5.58975-4.27938,7.40185-6.86151.03765-.84816.11484-1.50428.11484-2.04367-.69377.42361-1.88835,1.23411-2.58212,1.61912a1.75793,1.75793,0,0,1-.88676.193,5.23572,5.23572,0,0,1-1.92788-.46315,3.35963,3.35963,0,0,1-2.04368-2.39009c0-.15438-.03765-.30782-.03765-.42361,0-.34735.15344-.46314.578-.27016a3.08792,3.08792,0,0,0,1.156.23157c1.54287,0,3.354-1.11833,6.01429-2.39009.0386-.65518.0386-1.3113.0386-2.04367v-.964a3.54559,3.54559,0,0,0-1.77351-3.354c-.578-.34642-.4622-.73237.34736-.92441a4.39373,4.39373,0,0,1,1.27176-.193,5.86536,5.86536,0,0,1,4.2022,1.77351,2.15932,2.15932,0,0,1,.578,1.27176,3.08656,3.08656,0,0,1-.578,1.50334,3.65629,3.65629,0,0,0-.46221,1.73491h.15344a2.24561,2.24561,0,0,1,1.73491.73237,3.33227,3.33227,0,0,1,1.11833,1.96649c0,.61658-.5394,1.00254-1.11833,1.46474a33.826,33.826,0,0,0-2.58212,2.85323v.46221a3.51566,3.51566,0,0,1-.0386.61658,18.36252,18.36252,0,0,1,9.86913-3.31544c4.16359,0,7.36325,2.12087,7.97983,6.32306a7.9593,7.9593,0,0,1,.11579,1.349C182.05258,104.75621,177.46443,108.611,168.01985,109.65217Z"/><path class="c" d="M196.29145,114.471c-.27016.23157-.42455.34736-.50174.34736-.03859,0-.03859-.0386-.03859-.07719a1.63889,1.63889,0,0,1,.193-.46315c3.31543-6.05194,4.47235-13.531,4.47235-21.35737,0-1.349,0-2.66026-.07719-4.00922-.193-3.12246-.88675-4.16359-1.50333-4.27938h-.0386c-.80956,0-3.70139,3.04621-5.12754,10.67869-.30876,1.69631-.15438,2.85323-.50174,4.16359a1.22983,1.22983,0,0,1-1.11738,1.07973,1.83874,1.83874,0,0,1-1.04114-.42455,6.12,6.12,0,0,1-1.92788-2.96808,2.08254,2.08254,0,0,1-.15344-.73237c0-.61658.4236-.73237.50079-1.69631.5008-3.43123,1.11833-7.63342,1.27177-11.1023a9.5062,9.5062,0,0,0,.07719-1.00254,2.30763,2.30763,0,0,0-.80956-1.88929q-.34595-.28946-.34642-.4622c0-.11579.15438-.193.385-.193h.193c2.27431.385,3.39263.88675,3.81624,2.8523a3.91932,3.91932,0,0,1,.07719,1.00253c0,.92535-.15438,2.19712-.23063,3.62421,2.19711-3.354,4.20125-5.4749,6.12914-5.4749,2.04367,0,4.27938,2.54447,4.39516,6.97823.0386,1.46475.07719,2.92949.07719,4.39517C204.46426,100.78559,203.42313,108.18743,196.29145,114.471Z"/><path class="c" d="M71.86272,142.12032c-5.31958,9.48317-8.94378,12.99158-20.54782,16.11405a2.23181,2.23181,0,0,1-.385.07719c-.193,0-.30876-.0386-.30876-.15439s.15438-.26922.5008-.4622c7.7492-4.318,12.72236-8.52017,17.00174-18.04194-5.01175.80957-10.6015,2.19712-15.11245,2.92949h-.34736a4.53289,4.53289,0,0,1-3.85483-2.58307.808.808,0,0,1-.15439-.42361c0-.15438.15439-.193.54034-.193h.578c3.85483,0,12.76-1.27177,18.08053-2.00414.96394-.15438,1.15692-.69472,1.69632-.69472a2.20422,2.20422,0,0,1,1.07973.46315,10.56113,10.56113,0,0,1,2.7751,2.50587,1.21952,1.21952,0,0,1,.27017.69378C73.67482,141.04059,72.40211,141.11778,71.86272,142.12032ZM65.502,133.40717A74.9924,74.9924,0,0,0,57.83,135.528c-.34641.07719-.5008.07719-.5008,0s.0772-.193.26923-.34735c.57893-.46221.92535-.88676,1.61913-1.38756-2.96808-.193-4.08641-1.00254-4.81878-2.15851a.88875.88875,0,0,1-.11579-.34736c0-.15438.11579-.193.50174-.193a58.72391,58.72391,0,0,0,8.21141-1.07879c1.8507-.34736.73237-.46314,3.16106-.46314h.07719c1.50333,0,2.42868.73237,2.42868,1.54193C68.66306,131.94243,67.69912,132.90637,65.502,133.40717Z"/><path class="c" d="M104.024,134.40971c-4.01016,10.79447-8.17375,14.76509-18.92869,20.31624-1.00254.50174-1.42709,1.54287-2.19806,1.54287a1.18179,1.18179,0,0,1-.578-.15438c-3.27684-1.7735-4.20219-3.354-4.20219-5.4363a5.42886,5.42886,0,0,1,.0386-.771c.03859-.34641.15438-.5008.30876-.5008.15344,0,.30782.15439.5008.42361a2.90893,2.90893,0,0,0,2.42869,1.00254,5.32137,5.32137,0,0,0,1.73491-.30782c8.67361-3.20059,15.42027-8.25,20.39343-16.26937a.73788.73788,0,0,1,.42455-.34642.17594.17594,0,0,1,.15344.193A1.18947,1.18947,0,0,1,104.024,134.40971ZM87.94758,137.07a1.565,1.565,0,0,1-1.58053,1.04113,2.72075,2.72075,0,0,1-.53939-.03859c-1.58053.84815-2.198,1.23317-3.27684,1.84975a1.07076,1.07076,0,0,1-.50174.23157c-.0386,0-.0386-.03859-.0386-.07719a2.28766,2.28766,0,0,1,.193-.53939c.42455-.80956.88675-1.61913,1.2727-2.27431-2.46728-1.15692-4.24078-2.81464-4.24078-5.16613v-.30876c.03859-.42361.07719-.61659.192-.61659.07719,0,.23158.11579.42455.34736,1.15692,1.349,5.01176,1.38755,6.20633,2.00414a3.17617,3.17617,0,0,1,2.04367,2.69885A2.19535,2.19535,0,0,1,87.94758,137.07Z"/><path class="c" d="M134.64613,142.89128c-.385,0-.84816,0-1.31036-.03859-.771-.0386-1.58053-.0386-2.39009-.0386-1.8507,0-3.77858.07719-5.70647.23157-.771,8.7894-3.43028,12.33641-11.21808,16.42282a1.63592,1.63592,0,0,1-.61659.26922c-.03859,0-.07719,0-.07719-.03859q0-.17227.46221-.578c4.896-4.74159,6.70806-8.86659,7.32465-15.69044-2.65932.27016-5.1266.61658-7.01589.88675a26.573,26.573,0,0,1-3.547.27017,4.39153,4.39153,0,0,1-3.66186-1.3113,1.72543,1.72543,0,0,1-.38595-.5394c0-.15438.193-.15438.65518-.193,4.16359-.26922,9.32973-.88675,14.10991-1.50333,0-.23158.0386-.5008.0386-.80957,0-.34641.03859-.69377.03859-.96394,0-2.11992-.34642-3.12246-1.00254-3.70045a41.471,41.471,0,0,1-9.213,1.8507h-.23157c-.46315,0-.42455-.193.11578-.42455,5.78272-2.66026,8.98237-4.43377,11.604-6.4379.5008-.386,1.11738-.80957,1.11738-1.349a.86279.86279,0,0,0-.11578-.38595c-.34642-.5394-.26923-.73238.23157-.73238h.15438c1.73491.11579,2.66026.69378,4.81878,2.46729.386.30876.53939.578.53939.771,0,.5394-1.11738.73237-1.77256,1.07973-1.77351.88676-3.354,1.65772-4.93457,2.3129a6.88763,6.88763,0,0,1,2.8523,1.46474c.42455.34736.578.61659.578.92535,0,.61659-.61659,1.31036-.65518,2.776a3.812,3.812,0,0,1-.0386.578c1.07973-.15438,2.12087-.27017,3.1234-.42455a15.29921,15.29921,0,0,1,3.66186-.5008c2.85324,0,5.12754.84816,5.08894,2.15852C137.2292,142.58252,136.41964,142.89128,134.64613,142.89128Z"/><path class="c" d="M166.68408,141.11778c-3.04622,2.85323-5.20473,4.6258-8.443,5.9371a2.93083,2.93083,0,0,1-.42455.15438.96814.96814,0,0,1-.26923.07719c-.03859,0-.07719,0-.07719-.03859a2.45721,2.45721,0,0,1,.5008-.65613,26.91006,26.91006,0,0,0,5.16614-8.057c-2.46729.88675-5.32052,2.12086-8.13422,3.354-.193,2.04368-.30876,4.125-.53939,7.05543v.4622c0,1.81211.9244,2.54448,3.161,2.54448,5.281-.0386,5.62834-.84816,7.36325-.84816h.23063c2.00508.11579,3.162,1.07973,3.162,2.08133,0,.80956-.771,1.61912-2.46728,2.04367a25.82286,25.82286,0,0,1-5.9757.53939H158.7419c-4.85737-.11578-7.44044-2.39009-7.44044-6.78525v-.385c.03859-1.61912.07719-3.16105.07719-5.05035-1.54193.73237-2.96808,1.42615-4.20219,1.96649a7.0436,7.0436,0,0,1-2.92949.771,4.46263,4.46263,0,0,1-3.5856-2.04367c-.192-.23063-.30783-.385-.30783-.5008,0-.15438.192-.193.578-.193a10.5013,10.5013,0,0,0,3.19966-.61658c2.08226-.65518,4.66439-1.50334,7.286-2.39009v-4.78018c0-2.04368-.385-3.43123-1.58052-3.85578-.385-.15438-.578-.30782-.578-.4622,0-.193.23157-.34736.73237-.50174a4.82018,4.82018,0,0,1,1.54193-.23063c1.15692,0,2.58307.4622,4.35657,2.23571a1.18618,1.18618,0,0,1,.42361.80956c0,.61658-.578,1.27176-.771,2.96808-.11578.88675-.193,1.69631-.26922,2.46728,2.96808-1.0016,5.74412-2.00414,7.74826-2.69791.53939-.193.65518-.46315,1.04113-.46315a4.089,4.089,0,0,1,1.38756.42455,7.49125,7.49125,0,0,1,2.969,2.8137.92229.92229,0,0,1,.192.54034C168.611,140.4626,167.37785,140.50119,166.68408,141.11778Z"/><path class="c" d="M181.39269,146.09094a2.16353,2.16353,0,0,1-1.58053.73237,1.47016,1.47016,0,0,1-1.54287-1.19458,23.04809,23.04809,0,0,0-2.15852-6.28446c-.11579-.23157-.11579-.30782,0-.30782a2.02415,2.02415,0,0,1,.34736.07625c1.31036.54033,3.70045,1.50428,4.93456,3.58561a4.44375,4.44375,0,0,1,.4622,1.92788A2.09592,2.09592,0,0,1,181.39269,146.09094Zm14.88088-4.39517c-3.97156,9.75334-6.55463,12.06718-16.65439,15.57465a1.14723,1.14723,0,0,1-.46314.07719c-.11579,0-.15344-.03859-.15344-.07719,0-.07719.11484-.23063.42361-.42361,7.286-4.27938,10.83307-8.59736,13.22316-16.693a3.403,3.403,0,0,0,.15438-1.04113,1.72975,1.72975,0,0,0-.57893-1.349c-.23063-.193-.34642-.34641-.34642-.5008,0-.11578.15438-.193.5008-.23157a3.73971,3.73971,0,0,1,.65518-.03859c1.3499,0,2.69885.4622,4.04875,2.42868a1.03583,1.03583,0,0,1,.192.5008C197.27517,140.4626,196.62,140.8862,196.27357,141.69577Zm-7.479-2.58307a12.76852,12.76852,0,0,0-1.85069,3.08481,1.69566,1.69566,0,0,1-1.27271,1.61912c-.11484,0-.23063.0386-.34642.0386-.96394,0-1.34989-.65613-1.85069-1.61913-.385-.88675-.15439-2.969-1.42615-5.35911q-.23157-.46173,0-.4622a.96814.96814,0,0,1,.26923.07719c1.2727.5008,2.27524,1.04019,3.74,3.31544.80957-.386,1.61913-.65613,2.46729-1.00254a2.65947,2.65947,0,0,0,.30876-.11579.28727.28727,0,0,1,.15344-.03859c.03859,0,.03859,0,.03859.03859C189.02516,138.76628,188.948,138.88207,188.79453,139.1127Z"/><path class="c" d="M222.30005,145.62873a1.65974,1.65974,0,0,1-1.50428.73237,4.3025,4.3025,0,0,1-2.92949-1.34989,44.47337,44.47337,0,0,0-5.85991-5.089c0,4.1636.11579,7.672.23157,11.37341.07719,2.69791.193,3.161.193,4.20219v.42361c-.07719,2.3129-1.00254,3.547-2.04367,3.547s-2.23571-1.3499-2.62167-4.318a2.73017,2.73017,0,0,1-.03859-.5394c0-1.07972.69472-.69471.771-4.125.0386-.96394.0386-2.15946.0386-3.46982,0-4.54955-.15344-10.5629-.385-14.6493-.07719-1.61913-.69378-3.31544-1.77351-3.6628-.34736-.11579-.53939-.27017-.53939-.385q0-.28947.80956-.46315a6.10455,6.10455,0,0,1,1.38755-.15438c1.27177,0,2.3129.50174,3.77764,1.8507.57893.53939.771.92535.771,1.3113a24.06579,24.06579,0,0,0-.5008,2.46634c-.03859,1.92789-.07719,3.74-.07719,5.4363a27.36442,27.36442,0,0,1,8.59736,2.54447,3.70576,3.70576,0,0,1,2.00414,3.12247A2.404,2.404,0,0,1,222.30005,145.62873Z"/><path class="c" d="M247.10936,153.82037a7.30075,7.30075,0,0,1-7.046,5.505,6.30018,6.30018,0,0,1-3.60537-1.11362c-1.90059-1.27835-2.81747-3.37568-2.81747-6.39083a16.51888,16.51888,0,0,1,.13085-2.16228c-1.96648-.52434-2.85135-1.70479-2.85135-3.34274a6.28379,6.28379,0,0,1,.29464-1.80269c.09884-.29464.19674-.45844.26264-.45844s.13085.1638.13085.49139c.06589,1.17951,1.2454,1.83469,2.7205,2.06438.032-.45844.42549-1.99849.819-3.57148-.72108.0979-1.44215.1958-2.19523.29464-.09885,0-.1638.03295-.22969.03295-.22969,0-.1638-.13179.19674-.36054.55728-.39349,1.01572-.754,1.70384-1.24541a4.17092,4.17092,0,0,1-2.42492-3.70328c0-.13084.03295-.22968.03295-.36053.032-.32759.06495-.45844.1638-.45844.06495,0,.16379.0979.32759.32759a5.02161,5.02161,0,0,0,3.44063,1.54005,31.916,31.916,0,0,0,.62318-3.27684,5.59214,5.59214,0,0,0,.0979-.98372,2.38989,2.38989,0,0,0-.98277-2.12933c-.19674-.13179-.29559-.26264-.29559-.36054,0-.13179.1638-.26264.45938-.32759a5.34369,5.34369,0,0,1,1.21246-.16474,3.909,3.909,0,0,1,3.146,1.80269,2.86,2.86,0,0,1,.62223,1.80269,3.4349,3.4349,0,0,1-.29464,1.34331c-.32759.754-.68813,1.60594-1.08161,2.49081a2.05618,2.05618,0,0,1,1.4092,1.8347c0,.06589-.03295.16379-.03295.26263-.0979.85193-.98277,1.34331-2.45787,1.44215a1.21889,1.21889,0,0,1-.36053.03295c-.45844,1.21246-.88487,2.45693-1.24447,3.73528.72013-.06589,1.37626-.16379,1.6709-.19674a4.37142,4.37142,0,0,1,.65518-.03295c1.34331,0,2.19617.49233,2.22818,1.606v.06589c0,.819-.786,1.54005-2.94926,1.83469a9.1559,9.1559,0,0,1-1.605.13179c-.22969,0-.45938-.03294-.72107-.03294a13.544,13.544,0,0,0-.09885,1.60594,6.92973,6.92973,0,0,0,1.4751,4.68605,2.88164,2.88164,0,0,0,2.19523,1.04866c1.4751,0,3.0481-1.17951,3.76917-4.03086a8.23282,8.23282,0,0,0,.22875-2.09733,17.79489,17.79489,0,0,0-1.573-6.94717c-.19674-.42644-.22875-.65613-.0979-.65613.0659,0,.2617.13179.49139.42644,2.94925,3.34273,4.6531,4.91573,4.6531,7.832A11.09377,11.09377,0,0,1,247.10936,153.82037Z"/><path class="c" d="M76.56194,204.11865a39.41,39.41,0,0,1-4.85737.34641,19.35273,19.35273,0,0,1-7.90359-1.46474,5.72683,5.72683,0,0,1-3.739-5.55115,12.57214,12.57214,0,0,1,1.349-5.20473c.15439-.34642.34736-.53939.46315-.53939s.192.11578.192.385a.95926.95926,0,0,1-.03859.30876,12.14137,12.14137,0,0,0-.192,1.8893c0,2.62166,1.27177,4.0864,4.24079,5.24238a11.68435,11.68435,0,0,0,4.125.65612c.69378,0,1.349-.07719,1.81116-.11578,2.73745-.23158,3.00762-.54034,3.74-.54034a10.1631,10.1631,0,0,1,1.38755.193c1.65772.30876,2.3515,1.11832,2.3515,1.96648C79.49143,202.76969,78.374,203.88707,76.56194,204.11865Zm-1.11832-19.08308a2.108,2.108,0,0,1-1.46475.578c-.69377,0-1.50333-.26922-2.69885-.26922a11.50328,11.50328,0,0,0-3.85483.73237,1.73691,1.73691,0,0,1-.30877.07719c-.07719,0-.11578-.0386-.11578-.07719a1.12248,1.12248,0,0,1,.193-.38595,31.56069,31.56069,0,0,1,3.00762-2.8523c.15344-.11579.23063-.23157.23063-.30876s-.03859-.15438-.15438-.27017c-.73237-.69378-2.46728-1.11738-4.5872-1.23317a2.79719,2.79719,0,0,1-2.46729-1.27271.50781.50781,0,0,1-.11578-.26922c0-.11579.07719-.15438.30876-.27017a10.6594,10.6594,0,0,1,4.58721-1.00254,11.49644,11.49644,0,0,1,5.9371,1.58053,4.17318,4.17318,0,0,1,2.19711,3.46982A2.2844,2.2844,0,0,1,75.44362,185.03557Zm5.9371-.73237a1.06184,1.06184,0,0,1-.5008-.11578c-1.42709-.771-2.04367-3.31544-3.46982-4.74159-.15438-.11578-.23157-.193-.23157-.27017s.193-.07719.53939-.07719a12.2391,12.2391,0,0,1,3.354,1.46475c.27017-.42361.42455-.61659.54034-.84722.15344-.27017.26923-.386.30782-.386.07719,0,.07719.15438.07719.4622a12.23664,12.23664,0,0,0,.42455,3.1234v.15344A1.09528,1.09528,0,0,1,81.38072,184.3032Zm4.74158-2.00507a1.32813,1.32813,0,0,1-.5008.11578c-.50174,0-.92534-.34642-1.50333-1.156-.34736-.54033-1.8893-2.776-2.85324-3.161-.27017-.11579-.42361-.23158-.42361-.30877,0-.03859.11485-.07719.30782-.07719h.193c2.08133.07719,4.08641.84816,5.05035,2.3129a2.14752,2.14752,0,0,1,.42361,1.19552A1.05283,1.05283,0,0,1,86.1223,182.29813Z"/><path class="c" d="M109.20047,184.26461c-1.42615.4622-2.89089.92535-4.35563,1.27176,1.23317,3.547,4.39422,4.01016,5.088,5.62928a5.43543,5.43543,0,0,1,.46314,2.15852c0,1.349-.61658,2.42869-1.8121,2.42869h-.03859c-1.8121-.0386-1.11833-1.88929-6.28352-1.88929-.46315,0-1.00254,0-1.61913.03859h-.34735c-.27017,0-.42361-.03859-.42361-.11578,0-.07625.23063-.23064.65518-.46221,1.31036-.61658,2.73745-1.19551,4.47142-1.92789a14.17162,14.17162,0,0,1-3.39169-5.12659,21.91359,21.91359,0,0,1-4.01016.4236c-3.00667,0-5.281-.88675-6.16773-3.161a1.669,1.669,0,0,1-.15438-.5394c0-.07719,0-.11578.07719-.11578a2.75274,2.75274,0,0,1,.73237.23063,10.78284,10.78284,0,0,0,3.77858.61752,24.481,24.481,0,0,0,5.088-.65612c-.30783-2.65931-.192-5.01081-1.50334-5.93616-.61659-.46314-.92535-.771-.92535-1.04113,0-.30877.38595-.5008,1.15692-.65518a9.71517,9.71517,0,0,1,1.77351-.23158,4.26082,4.26082,0,0,1,3.16105,1.38756,1.57836,1.57836,0,0,1,.578,1.07973,6.42779,6.42779,0,0,1-.385,1.38755,13.15572,13.15572,0,0,0-.42455,3.04621c.46315-.11579.92535-.27017,1.46474-.42455,2.42869-.771.54034-.96394,3.04622-1.31036a4.66441,4.66441,0,0,1,.69377-.0386c1.38755,0,2.04273.65518,2.04273,1.46475C111.62915,182.68408,110.81959,183.72521,109.20047,184.26461Zm-3.46888,21.70473h-.8105c-6.20633,0-9.48318-2.35243-9.48318-5.51349a6.03548,6.03548,0,0,1,.771-2.73651c.23157-.46314.42455-.69472.5394-.69472.07719,0,.11578.11579.11578.30877a2.03978,2.03978,0,0,1-.03859.46314v.34642c0,2.15852,2.19805,3.43122,6.28446,3.43122.53939,0,1.156-.03859,1.7735-.07719.61659-.03859,1.23317-.07719,1.77257-.07719,1.69631,0,3.04621.30876,3.31543,1.42615a4.25226,4.25226,0,0,1,.0772.69472C110.04863,205.044,108.77686,205.85356,105.73159,205.96934Zm9.213-24.51937a1.07827,1.07827,0,0,1-.5008-.11485c-1.42614-.7719-2.04367-3.31544-3.46982-4.74252-.15438-.11579-.23157-.192-.23157-.26923s.193-.07719.54034-.07719a12.22382,12.22382,0,0,1,3.354,1.46474c.26923-.42455.42361-.61658.5394-.84816.15438-.27016.27016-.386.30876-.386.07719,0,.07719.15438.07719.46314a12.20059,12.20059,0,0,0,.42361,3.12247v.15438A1.09388,1.09388,0,0,1,114.94459,181.45Zm4.74253-2.00414a1.33253,1.33253,0,0,1-.50174.11579c-.5008,0-.92535-.34736-1.50334-1.15692-.34736-.5394-1.88929-2.776-2.85323-3.16106-.26923-.11579-.42361-.23157-.42361-.30876,0-.0386.11579-.07719.30876-.07719h.192c2.08227.07719,4.0864.84815,5.05035,2.31384a2.13982,2.13982,0,0,1,.42455,1.19457A1.056,1.056,0,0,1,119.68712,179.44583Z"/><path class="c" d="M134.46163,191.78224a34.37453,34.37453,0,0,0-1.84976,6.16773,3.98708,3.98708,0,0,0-.11578.84816,3.81376,3.81376,0,0,0,.4236,1.42709,1.11521,1.11521,0,0,1,.07719.34641c0,.65518-.771,1.23412-1.50333,1.3499a5.55634,5.55634,0,0,1-.771.03766,5.744,5.744,0,0,1-3.89343-1.58053c-2.35244-2.04273-3.39263-6.39931-4.125-12.83721a5.771,5.771,0,0,0-1.11832-3.27684c-.193-.23157-.30877-.386-.30877-.5008,0-.15438.23157-.23157.73237-.386a5.37078,5.37078,0,0,1,1.27271-.193,3.37334,3.37334,0,0,1,2.3515,1.00254,3.50959,3.50959,0,0,1,1.46474,2.66026,5.25288,5.25288,0,0,1-.07719.80956,18.09318,18.09318,0,0,0-.15344,2.62166c0,2.54447.385,5.35817,1.46474,6.4379.26923.27017.42361.385.578.385s.30876-.11484.53939-.385c1.65772-1.8507,3.12341-3.58561,4.58815-5.16613.193-.193.34642-.30783.42361-.30783s.11578.07625.11578.192A.88864.88864,0,0,1,134.46163,191.78224Zm16.80876,1.92789a1.57865,1.57865,0,0,1-1.65772,1.11738,2.7193,2.7193,0,0,1-1.61912-.53939c-1.00254-.80957-3.12246-1.3499-5.74413-1.3499-.23157,0-.38595-.03766-.38595-.15344,0-.0386.07719-.15438.30876-.23157,1.27177-.578,2.776-1.27271,4.04781-1.92789a17.81544,17.81544,0,0,0-2.50587-3.66186,6.74439,6.74439,0,0,1-1.8507-3.81718v-.23063c0-.23157.0386-.30876.23157-.30876a1.8824,1.8824,0,0,1,.42361.03859c3.08481.578,7.63342,5.62834,8.25,6.9773a6.07444,6.07444,0,0,1,.69472,2.69885A5.73276,5.73276,0,0,1,151.27039,193.71013Z"/><path class="c" d="M175.52807,206.31576a5.8243,5.8243,0,0,1-3.08387-1.54193,22.05781,22.05781,0,0,0-3.04621-2.11993c-.53939,2.19712-3.19965,3.00668-5.8985,3.12246h-.578c-2.27431,0-4.51-.386-5.58975-1.46474A4.363,4.363,0,0,1,156.638,201.69c0-1.8121.73237-3.932,2.85229-4.54955a6.10223,6.10223,0,0,1,1.58053-.192,20.32635,20.32635,0,0,1,4.97316.80957c-.0386-1.31131-.0386-2.73745-.07719-4.24079a11.30528,11.30528,0,0,1-1.96554.193,5.15471,5.15471,0,0,1-4.78018-2.50588,1.19636,1.19636,0,0,1-.193-.42455c0-.0386.03859-.07719.11578-.07719a1.89094,1.89094,0,0,1,.46221.11578,5.04489,5.04489,0,0,0,1.65772.23158,17.63413,17.63413,0,0,0,4.62674-.73237c-.0386-1.8507-.07719-3.6628-.11579-5.20473-1.07973.07719-2.00508.11578-2.85323.11578-2.92949,0-4.58721-.54033-5.24239-2.39009a1.75562,1.75562,0,0,1-.11578-.42455c0-.07719,0-.07719.07719-.07719a3.2672,3.2672,0,0,1,.385.07719,10.40013,10.40013,0,0,0,1.88929.15438,36.3615,36.3615,0,0,0,5.78272-.73237c-.07719-2.35149-.34736-4.318-1.7735-5.01175-.386-.193-.578-.34736-.578-.5008,0-.193.192-.34736.61658-.46315a5.9293,5.9293,0,0,1,1.8507-.34641c1.23317,0,2.2743.61658,3.739,2.23571a2.0552,2.0552,0,0,1,.61659,1.42614,6.10981,6.10981,0,0,1-.578,2.08227,25.45529,25.45529,0,0,1,3.19965-.30876c1.38755,0,2.39009.34736,2.62167,1.54193a3.85134,3.85134,0,0,1,.07719.61659.90027.90027,0,0,1-.23158.69471,4.73,4.73,0,0,1-2.58306.771c-1.31036.15344-2.3129.23063-3.43123.30782-.03765,1.23411-.03765,2.62167-.03765,4.04781.30782-.192.65518-.34641,1.04019-.578a5.13894,5.13894,0,0,1,2.3515-.771,2.15415,2.15415,0,0,1,1.7735.92535,1.12987,1.12987,0,0,1,.23157.65518c0,.92534-1.349,1.88929-2.66026,2.46728a28.171,28.171,0,0,1-2.7365,1.07973c.03765,2.08132.07625,4.16359.15344,6.09054a29.27944,29.27944,0,0,1,6.323,3.1234,2.74112,2.74112,0,0,1,.69378,4.08641A1.10759,1.10759,0,0,1,175.52807,206.31576ZM160.377,199.64629a3.35258,3.35258,0,0,0-1.156.15438c-.386.11578-.65613.88675-.65613,1.58053a1.38352,1.38352,0,0,0,.23158.84815,4.86708,4.86708,0,0,0,2.776.61659,8.88352,8.88352,0,0,0,1.38755-.11485c1.58053-.193,2.66026-.73331,3.00668-1.73491A17.10473,17.10473,0,0,0,160.377,199.64629Z"/><path class="c" d="M211.38884,185.07417a5.42873,5.42873,0,0,1-.771-.0386,77.68464,77.68464,0,0,0-8.21141.11579c-.03859,1.8507-.03859,3.81624-.11578,5.66693a5.81585,5.81585,0,0,1,.7719,3.23825,16.67019,16.67019,0,0,1-9.09816,14.10992,1.76992,1.76992,0,0,1-.61752.23157c-.15344,0-.07719-.193.23157-.61753a28.50584,28.50584,0,0,0,4.85737-9.599,5.30167,5.30167,0,0,1-2.89089.84816,4.79266,4.79266,0,0,1-2.3129-.578,2.66182,2.66182,0,0,1-1.42709-2.50588,4.69688,4.69688,0,0,1,.42455-1.88929,11.02425,11.02425,0,0,0,1.27177-3.19965,2.42854,2.42854,0,0,1,1.96648-2.2743,5.16684,5.16684,0,0,1,1.349-.15439,4.45333,4.45333,0,0,1,1.73491.30877c.03859-1.07973.03859-2.19806.07719-3.27685-9.86913.84816-10.67869,1.96555-12.9144,2.08133h-.38595a4.23982,4.23982,0,0,1-3.73905-2.11992,1.39909,1.39909,0,0,1-.193-.50174c0-.193.23158-.193.69378-.193,2.81464-.03859,11.10324-1.07879,16.5386-1.69537,0-3.933-.27017-6.93964-1.50334-7.3256-.92535-.30782-.88675-.69377.11579-1.07879a3.59551,3.59551,0,0,1,1.31036-.23157,7.36818,7.36818,0,0,1,3.6628,1.23317,1.73126,1.73126,0,0,1,1.04019,1.58147,3.40239,3.40239,0,0,1-.192,1.11739,17.86443,17.86443,0,0,0-.54033,4.27938c4.58814-.5394,6.09148-.88675,6.82385-.92535h.34736c2.3129,0,3.932,1.07973,3.932,2.15946v.15344C213.50971,184.68822,212.81593,185.07417,211.38884,185.07417Zm-13.338,6.66947c-.88675-.80956-2.50588-.92535-2.81464-.34736-.27017.54034-.5008,2.12087-.69378,2.62167a1.69889,1.69889,0,0,0-.07719.38595,1.26855,1.26855,0,0,0,1.42615,1.19458,2.51162,2.51162,0,0,0,1.19552-.30783,2.69418,2.69418,0,0,0,1.19457-1.69631,7.53684,7.53684,0,0,0,.07719-.88675A1.21746,1.21746,0,0,0,198.05084,191.74364Z"/><path class="c" d="M215.2032,206.70171a4.69009,4.69009,0,0,1-4.70393-4.66533,4.78957,4.78957,0,0,1,4.78018-4.703,4.68436,4.68436,0,0,1-.07625,9.36832Zm0-7.98077a3.34065,3.34065,0,0,0-3.31544,3.31544,3.31519,3.31519,0,0,0,6.62994,0A3.34045,3.34045,0,0,0,215.2032,198.72094Z"/><path class="c" d="M110.26941,274.92908c.33923.12492.52392.12474,0,0Z"/><path class="c" d="M47.04907,50.911l.187-.2009a4.82943,4.82943,0,0,1,.11731-.67105Z"/><path class="c" d="M83.3429,24.6123l.26208-.08908C83.54285,24.45386,83.54968,24.34927,83.3429,24.6123Z"/><path class="c" d="M11.13354,145.37683a2.319,2.319,0,0,0,.09192.75638A6.83018,6.83018,0,0,1,11.13354,145.37683Z"/><path class="c" d="M190.82092,271.23891l-.17993.0749c.15869-.02208.318-.0533.48425-.06845Z"/><path class="c" d="M190.05652,271.76877c-.96936.21156.18762-.28771.58447-.455a12.08451,12.08451,0,0,0-3.13855.929C187.58081,272.46117,189.53845,271.7623,190.05652,271.76877Z"/><path class="c" d="M278.57922,161.67157l.03687.45151A3.01857,3.01857,0,0,0,278.57922,161.67157Z"/><path class="c" d="M22.56665,141.28662c.01294.20252.02747.42993.03931.6171A2.03066,2.03066,0,0,0,22.56665,141.28662Z"/><path class="c" d="M273.45276,184.31909l.269.35092C273.64832,184.4104,273.55481,184.328,273.45276,184.31909Z"/><path class="c" d="M47.35339,50.03906l.12342-.337A1.74392,1.74392,0,0,0,47.35339,50.03906Z"/><path class="c" d="M122.48486,11.55176a.45175.45175,0,0,0,.2649.23657l.1156-.01788Z"/><path class="c" d="M272.63611,118.70233a.35679.35679,0,0,0,.122-.13293l-.43116-.72443A5.99941,5.99941,0,0,0,272.63611,118.70233Z"/><path class="c" d="M178.41223,15.0545c.05823-.03009.19751-.03787.21777-.08078a59.75657,59.75657,0,0,0-6.54345-1.6054l-.282.40756C174.02136,14.116,176.20581,14.63168,178.41223,15.0545Z"/><path class="c" d="M225.64929,50.916c-1.16614-1.46476-2.45325-2.80384-3.71777-4.19162A103.42653,103.42653,0,0,1,237.81116,61.4061c4.06946,4.69961,7.70678,9.31738,12.21069,15.49179l-.62024-.60391c.49451,1.00262,1.39673,1.44918,3.45569,4.49707.4939.77407,1.06055,1.70987,1.71216,2.8536.31909.57541.6875,1.18756,1.02722,1.8848.32825.70242.68249,1.46091,1.0658,2.28125q.5526,1.23692,1.191,2.66592c.39428.96775.76648,2.02573,1.18,3.14829.38953,1.13293.87768,2.3078,1.241,3.62286q.56159,1.95594,1.19641,4.16638l-.085.03174a6.55059,6.55059,0,0,1,.806,2.39679c-.247-1.40106-.59766-2.77115-.948-4.14807a52.84159,52.84159,0,0,1,3.41211,7.43851c.14575.711.0022,1.01272-.10742,1.11966.78674,2.6532,1.6715,5.28454,2.28173,7.99035l.00074,2.605a14.04837,14.04837,0,0,0,1.27307,2.285c.386.81872.85547,2.18643,1.00024,5.6123.52551-2.68222.93628,3.29681,1.26428,2.40515-.06164.35706-.1195,1.156-.18566,1.798.184,1.00369.25463,2.24615.41491,3.55975.13343,1.31595.32581,2.70843.44727,4.039a48.51851,48.51851,0,0,0,.6709,6.01853l.23047-2.57908c.12377-1.57684.40551-3.73831.46276-6.04061.1095-2.30457.26673-4.767.2428-6.9227.01331-2.15824.11243-4.03989.1062-5.15491.37085,2.92328.36231,3.31583.41663,2.81055.0083-.50437.03113-1.87912.04114-2.48636l-.28015-.353c-.41565-3.515.11755-3.62112-.05-5.402-.04187.00861-.0835.07215-.12793.13172l.111.20916c-.06421.18427-.14661.09977-.23291-.07623-.10486.06528-.21436-.07965-.40637-1.026l.09716.16864c-.41076-1.42822-.90319-3.93964-1.11645-5.03628l.43384-.13251a16.62605,16.62605,0,0,1-1.20386-3.75641c-.2124-.89673-.42212-1.9003-.639-2.96054-.25366-1.04978-.52063-2.154-.78943-3.26621-.27038-1.11285-.50012-2.25122-.78894-3.32855-.30261-1.07538-.59436-2.11212-.86206-3.0636-.27917-.9534-.5332-1.82126-.74866-2.55743-.2478-.72556-.48168-1.31156-.6604-1.7222-.92114-3.54208-3.519-7.26123-5.46093-11.31012-3.4552-6.28772-1.19678-3.46023-2.79334-6.73044-2.207-3.96811.05042,1.05625-.95556-.45657L255.544,71.073c-.41114-.81171-.86646-1.596-1.29969-2.398,1.87329,2.54205,1.10755.99368.91455.41992-.66674-.97134-1.394-2.10852-2.13659-3.28027-.72376-1.18552-1.58545-2.31388-2.343-3.39408a33.78905,33.78905,0,0,0-2.16089-2.767,5.03178,5.03178,0,0,0-1.658-1.31793c-1.88843-2.567-2.84155-3.86276-3.52624-4.79352a23.34329,23.34329,0,0,0-2.0138-2.50888c.51758.78089,1.66516,2.20124,1.54248,2.337-1.47473-2.12433-.91223-.81442-.257.00153-.75659-.6225-1.87573-1.96833-3.29711-3.5012-.708-.77026-1.47437-1.60412-2.262-2.461-.78088-.86554-1.58239-1.75724-2.42541-2.57068-.83435-.827-1.65113-1.63663-2.411-2.38983-.38611-.37244-.75769-.7309-1.11-1.07062-.37219-.31738-.72388-.61722-1.0498-.8952-1.31983-1.096-2.28492-1.77939-2.59729-1.70963l.11047-.14325c-1.16345.03006-.458,1.47931-2.83569.15332l-1.27161-1.30963-2.3938-1.31287c-1.34509-1.25018-.5072-.89563-.45508-.96963-1.92749-1.10294-4.15429-2.53452-6.4663-4.05862-2.37378-1.41962-4.7699-3.055-7.16858-4.26954.68591.73716,1.3811,1.442,2.041,2.19663l1.94641,2.27972c-.9165-.644-1.98584-1.48242-3.1643-2.24914-1.17884-.76554-2.41394-1.557-3.56812-2.26752a25.55049,25.55049,0,0,0-3.1206-1.68954,4.29992,4.29992,0,0,0-1.7815-.56415c-.72973-.57144-1.45483-1.16593-2.20068-1.7233-7.96033-4.547-6.09741-1.74246-9.35559-3.30679-1.35413-.72223-2.71472-1.45261-4.11743-2.07578,1.46386.39,2.89416.88794,4.32543,1.38187-1.04663-.45438-1.93688-.84091-2.73645-1.18805-.8081-.32312-1.52429-.60953-2.215-.88571-1.38184-.54987-2.63648-1.14566-4.35193-1.80811-.00183.00714-.04224.00327-.04395.01016.23792.08646.38746.15717.40943.20752l-.6272-.12674c-.63318.24137-2.99829-.08227-6.12781-.77871-2.23486-.44138-4.2478-.726-6.58972-1.06577-1.17627-.1373-2.4331-.30585-3.84228-.54553-.70471-.11984-1.44763-.25748-2.23841-.41791-.79419-.12491-1.63708-.26364-2.53784-.43094l-1.86511.6138c-.8999-.13668-1.79993-.30133-2.704-.41479l-2.71875-.2941.017-.59946c2.68725.02567,6.55237.28592,10.60705.60556,2.02161.23175,4.09095.469,6.08423.69745,1.97974.33438,3.88391.656,5.59.94422l.174-.24713c-2.026-.35584-4.19873-.69816-6.20252-.96329-2.01416-.19794-3.85095-.37924-5.19348-.57923-1.28711-.33862-4.63476-1.13418-2.13159-1.37478l-2.59436.39047c-3.42932-.30383-6.01709-.26947-8.18262-.33868-2.16626-.09369-3.91455.00427-5.68335-.001-.88488-.00024-1.77453-.00052-2.72387-.00079-.94983-.00657-1.95606.066-3.07972.0946l-3.77124.12311c-1.40759.06476-2.97778.2236-4.77917.35666l1.27978.1409c-1.40478.27337-2.80725.52136-3.95959.69949a5.79694,5.79694,0,0,1-2.489.11966c-8.552,1.34579-17.27491,3.51813-22.8617,4.75281-.31274.35263-.623.70608-.92175,1.08478-1.712.631-4.68726.65719-5.1427,1.9013-1.17493.58017-2.30786,1.25144-3.45911,1.87189-1.152.49222-2.03638.98538-2.97375,1.46249a18.60654,18.60654,0,0,1-3.25318,1.48481l-.00024-.00034-.01477.00555-.51758.1716a.10063.10063,0,0,0,.05505.03785c-2.6029,1.14489-2.49951,1.309-2.50647,1.4793-.0072.17353-.10559.38389-3.01538,1.82251-2.06457.60291-1.54773,1.89365-4.26184,3.46387l-3.21972.86148A28.28429,28.28429,0,0,0,65.3114,35.9668c-.73877.68054-1.53784,1.41659-2.53076,2.33136-.99085.91858-2.27051,1.90271-3.81067,3.2872-3.23352,2.32126-5.29455,2.968-3.79077.64569-1.08765,1.539-1.26257,1.95694-1.61389,2.41089-.34668.45593-.84522.972-2.43982,2.80169-.80567.241-.4917-.17117.04748-1.16037-1.72631,1.32471-2.1394,1.85993-2.39978,2.35135a7.14679,7.14679,0,0,1-1.53711,2.0755c-.13147,1.18167-.03332,2.73926-.71411,3.52311l1.02039-.74643c-1.05322,1.33337-2.04468,2.81726-3.22876,4.21905-.57556.71536-1.20984,1.40329-1.82153,2.13156q-.91481,1.0947-1.93055,2.1723l-.19311-.34017c-.80054,1.14981-1.66663,2.24813-2.40857,3.43722l-.52625-.05911c-1.10937,1.66791-2.27136,3.29773-3.33044,4.9946l.55029-.62046c-.36.6062-1.12451,1.9068-2.00671,3.313-.44068.70352-.90967,1.43442-1.37048,2.12085-.43873.7-.8523,1.36582-1.23633,1.90643l-.17371-.21362c-4.48108,6.06635-6.31518,12.12766-9.36169,20.27274l-.069-1.25745c-.7909,1.2952-.67749,1.55957-.55847,1.89771.12329.34106.21765.74368-.46021,2.3818l-.66541-.04654a6.93141,6.93141,0,0,1-.93383,3.3465,18.30223,18.30223,0,0,0-1.47547,2.41281l1.08509-.7254L16.146,108.6864a13.21789,13.21789,0,0,1-.91138,2.14636c-.21973.41614-.39551.56141-.53992.5485-.28454-.0242-.46142-.68827-.58093-1.06134-.03723,1.05084-.03833,2.10571-.05664,3.151l-.86157.41638c.36645,2.38373-.71863,2.15085-.9314,6.129-.33472.2695-.31824-.74326-.67273.55783l-.0509,3.28909.11035,3.2876c.024-1.30774-.0105-2.6287.06567-3.93772l.99414.63517a15.88626,15.88626,0,0,1-.3059,4.61312,13.8192,13.8192,0,0,0-.50562,3.71c-.05127-.66959-.13062-1.34348-.14014-2.01221-.15442,4.72131-.60083,4.93344-1.04187,7.58594.25025-.818.65552-2.05533.65174-.14536.02014,1.40134-.40369.74039-.559,2.06287.35876.17224.61255,1.105.72509,2.37109a31.11216,31.11216,0,0,1-.03308,4.39844.423.423,0,0,1-.27649-.29889,6.63754,6.63754,0,0,1,.1941,2.54153l-.8274-.78067.83521,2.59681c-.18823,1.75808.65918,4.25469.07678,4.06558l-.23645-.98007c.21265,4.41323.66919,8.81747,1.31934,13.1947l-.6045.288c.55371.57617.788,2.37058,1.01392,3.951.21716,1.58151.558,2.917,1.032,2.58875a26.19981,26.19981,0,0,0,1.15454,5.569c.56128,1.88693.91175,3.31875.10852,2.78051.288,1.05793.57886,2.04972.87171,2.99469.334.93223.67419,1.81635,1.01111,2.67511.694,1.7103,1.30249,3.34574,2.09863,4.97.77185,1.63278,1.496,3.34369,2.33826,5.23425.8955,1.86728,1.73339,3.99341,2.78527,6.434a34.11055,34.11055,0,0,0,3.757,8.61469c.4834.85766.962,1.74661,1.48938,2.61056.54468.85333,1.09156,1.71,1.62989,2.55319.53942.84256,1.07019,1.67163,1.58166,2.47052l1.54272,2.23755a134.14126,134.14126,0,0,0,11.56885,13.4288c1.99927,1.91361,3.90247,3.92782,6.12793,5.83918,1.09888.96876,2.19348,1.99971,3.38892,3.00555,1.20727.99077,2.46008,2.019,3.77331,3.09662a34.26989,34.26989,0,0,0,4.95069,4.66437c1.92675,1.49632,4.09668,2.89883,6.27575,4.30179,4.45594,2.67779,9.08533,5.13256,12.811,7.50634l2.41186.574a21.03783,21.03783,0,0,0,1.96119,1.28209c.72021.39236,1.48913.77964,2.29565,1.16557,1.61719.76279,3.36023,1.57552,5.24158,2.24521,3.71374,1.46928,7.76758,2.81109,11.56347,4.45578,2.01282.30534,3.04651.51341,3.50208.62079-.35059-.1287-.86536-.39086-.93445-.79874,2.15833.9666,6.8512,1.673,6.35632,2.3244l-.59838-.05937c-.25391.32306,1.50622.64484,3.62695,1.02335a27.32952,27.32952,0,0,1,5.87939,1.16375l-1.28357-1.04072,2.17041.452,2.18836.34764-1.19922.00182c9.65344.46816,16.55872.82549,23.39148.8355a73.9881,73.9881,0,0,0,22.28076-2.84293c-1.09167.63869-.2395.36981.93713.05254,1.1648-.374,2.645-.81266,2.86622-.37421a14.23992,14.23992,0,0,0,3.3258-.296,16.412,16.412,0,0,0,2.946-.99556c1.86267-.81154,3.58166-1.69265,5.27978-2.47969-.01452-.04457.01111-.11119.18958-.249,2.053-.67961,4.146-1.25569,6.15722-2.05967-3.18042,2.54892,3.991-2.64734,1.04639-.38457a106.65818,106.65818,0,0,0,25.30029-12.70346,151.38061,151.38061,0,0,0,23.2555-19.48285l-.81824.40854c.869-.88965,1.77051-1.85364,2.67908-2.83594.86328-1.02279,1.739-2.06036,2.59033-3.069,1.74878-1.97854,3.25207-3.95929,4.62744-5.284a17.32316,17.32316,0,0,0,3.22436-4.74124c.82166-1.59347,1.38953-2.99261,1.743-3.63214a19.93659,19.93659,0,0,1,2.87976-4.39718c.7782-.96695,1.24328-1.27042.7771-.51514,2.10534-3.90909,3.17175-8.00748,6.11633-13.3403a10.23136,10.23136,0,0,0,1.70227-3.05747c.61585-1.54562,1.22449-3.4833,1.83972-5.34591,1.15064-3.75733,2.03565-7.32511,2.64014-7.23432l-.07166-.092a54.22118,54.22118,0,0,0,1.8407-5.511c.50366-1.8574.812-3.7595,1.18884-5.65857.4054-1.89463.58985-3.84864.95057-5.80991.37646-1.9606.673-3.97226,1.1134-6.03906a2.36831,2.36831,0,0,1,.10461.463,135.69119,135.69119,0,0,0-2.36938-17.1058q-1.983,2.3788-3.96411,4.61935l-.43372,1.738-.51672,1.72271-1.04236,3.41251c-.32092,1.13309-.74646,2.24783-1.14917,3.35767l-1.20642,3.308a131.76473,131.76473,0,0,1-3.7616,18.19824,135.20034,135.20034,0,0,1-6.48669,17.46857,128.43351,128.43351,0,0,1-17.00208,24.264,123.24762,123.24762,0,0,1-58.79651,39.7162l-4.73291,2.24675c-7.08752,1.03518-15.03137,2.46092-23.26318,3.07666a88.29711,88.29711,0,0,1-24.18481-1.09685l-.41358.70061a13.15232,13.15232,0,0,1-3.69665-.76136c-.57-.23059-.73487-.41076-1.24793-.56864-1.23144-.22706-2.475-.4023-3.70105-.66762l-3.67529-.82653-1.84021-.41243-1.818-.50393-3.64136-1.0022a128.05319,128.05319,0,0,1-27.644-12.07374,125.54773,125.54773,0,0,1-23.58179-18.20226,122.4024,122.4024,0,0,1-9.668-10.90649,111.85178,111.85178,0,0,1-14.45239-23.9368c-.476-1.70044-1.96131-4.88214-3.09388-8.10919-.29968-.79932-.59716-1.59317-.88244-2.35437-.23938-.77689-.46839-1.52039-.67871-2.203a25.81945,25.81945,0,0,1-.79944-3.183,89.66638,89.66638,0,0,1-4.8739-17.22556c-.31482-1.48025-.44776-2.99008-.672-4.48315-.20837-1.49588-.4115-2.9903-.49341-4.49228q-.165-2.24813-.32873-4.47778-.04083-2.23467-.08106-4.44278l.09363.4436c-.0376-.92248-.11829-1.84549-.12183-2.769l-.00048-2.77222c.06713-.2334.15661-.25946.20959-.08081a32.06978,32.06978,0,0,1-.03186-5.27817,56.49286,56.49286,0,0,1,.61743-6.04876c.33679-2.07468.62525-4.19886,1.13147-6.23651.4679-2.04331.85877-4.04993,1.40015-5.88254l-.02075.45086q.472-2.029.94213-4.04907c.33338-1.34155.74561-2.65954,1.1095-3.98733.68457-2.6702,1.6709-5.23505,2.50232-7.83939q.73864-1.91291,1.47473-3.81934l.73645-1.90539.82556-1.86493q.82619-1.86382,1.65-3.72232l1.82263-3.62979.91357-1.8103.99463-1.76462c.66724-1.17313,1.31043-2.35962,1.99268-3.52155,1.4574-2.266,2.79687-4.60705,4.38513-6.77878A122.74721,122.74721,0,0,1,54.97314,60.9494a117.0782,117.0782,0,0,1,54.33374-34.21313q1.87885-.43176,3.79224-.87143l1.91187-.46659c.64233-.14642,1.29589-.25958,1.94616-.39563l3.93177-.82208q1.99457-.34254,4.01843-.69015c2.686-.53614,5.45654-.77249,8.23327-1.184q2.09784-.18522,4.21766-.37244l2.12585-.18787,2.14221-.08676,4.31385-.16366,4.34716.06265,2.18384.04239,2.18335.15353c1.45606.11426,2.92041.18561,4.37781.34375a101.25,101.25,0,0,1,17.27014,3.4288c1.96033.93259,14.53906,4.167,25.95837,10.25412a126.28657,126.28657,0,0,1,15.42225,9.23984c2.13867,1.397,3.84375,2.815,5.23535,3.80835C224.31055,49.82413,225.21716,50.614,225.64929,50.916Z"/><path class="c" d="M264.54871,108.25278l-.05384-.17646C264.19678,108.17688,264.38513,108.4061,264.54871,108.25278Z"/><path class="c" d="M206.67908,26.704l.29358.15945-.91846-.96926Z"/><path class="c" d="M256.797,71.32141c-1.59009-2.60791-1.80469-2.63379-1.63819-2.22644.31153.45447.61194.875.8949,1.24591A11.8409,11.8409,0,0,0,256.797,71.32141Z"/><path class="c" d="M269.80688,130.94135c.165,1.49411.27894.90838.37623.00714-.22754-1.52121-.38575-2.57947-.38575-2.57947C269.82971,129.21738,269.772,130.07437,269.80688,130.94135Z"/><path class="c" d="M273.21619,124.19266l.3374.4382C273.33057,123.73782,273.24536,123.78992,273.21619,124.19266Z"/></svg>