<svg xmlns="http://www.w3.org/2000/svg" viewBox="0 0 784.57182 99.92729"><defs><style>.a{fill:#910000;}.b{fill:#fff;}</style></defs><path class="a" d="M204.48745,94.95621l.673-3.42476c9.37383.14364,2.64733,3.98921,11.3306,3.31989,3.49069-4.793,14.38409.80189,17.433-1.72039-.0759.38492,4.16406.61973,3.86421,2.136,1.354-2.61326,4.377-.52308,7.06718-1.14178.98483-.7141-.69541-.80443-1.40422-1.61556l6.14927-.80568c2.37976.899,2.938,2.46534.32657,2.69835,16.001,1.27776,92.8658,5.39887,110.15182,4.438-2.17733-2.04-7.53264-.80308-9.4924-3.98072,4.59864-1.66354,6.7051.75338,8.75444-1.05213,1.6549,4.69977,10.004,1.32365,13.36122,6.11979l1.36359-2.61528,2.23365,1.66423c20.124-2.33509,4.61287-1.24709,22.38924-.25617,10.30415-.19349,15.27176-3.75827,20.97263-2.28917-.85073-.04516-3.08741-1.71027-.40684-2.32916.40684,2.32916,7.13429-1.51849,8.38515.85218,2.61834-.239,11.07529.2351,8.27638-2.99638,1.4043,1.61216,8.94154,2.4175,4.41786,3.69922,2.54522.14606,5.00361.66419,6.85139.001l-3.252-.952c8.61217-.28313,13.24964,2.27037,18.91163-.484l-3.15254-1.32686c5.14722-.09405,9.45351-.24249,11.40831,2.93709L465.8,96.68792c8.53179.09561,13.68006-.00382,20.8238-1.52743l-2.53582-.13862c9.12238-2.94736,56.55769-4.55639,64.9847-8.31051l-3.79325-2.51566,7.21952-1.90241c-.84886-.04685-3.627,7.839-4.32234,7.02931,15.3833.09148,95.41849-.1437,109.5881,1.79235,5.70251,1.46834.95075,3.88908.87787,4.27313,6.9924-.765,3.062-2.52107,8.98715-2.18937,1.60926.47268-.37487,1.90337-1.29259,2.232,2.60472-.23479,4.9969.65938,5.219-.47508-3.23107-.95033-1.79261-3.943-3.128-5.93421l7.6218.41929-.37783,1.9011c1.69953.09283,4.42095-5.12782,11.89208-3.94694,12.62326,1.087,26.36677.7022,39.06769,1.40732-.22156,1.13962-2.90406,1.76058-5.59321,2.37626,1.70327.09419,4.30618-.14542,5.859.70939-3.02806-2.08516,5.36208-1.2359,2.97957-2.13722,9.40625-4.4709,21.36311.03754,29.64652-2.9574.80509-4.17937,19.08773-71.68644,19.1909-76.67375,2.55021.14311,5.08589.28593,5.85708.71278-.63406-1.18647-5.63767-1.84988-8.317-1.23411l-.515,2.663c-6.15218.81074-1.404-1.61648-7.39347-1.5597-.274-2.193,5.24467-2.54736,10.10088-2.65689-4.36307-.34463-8.68115-2.02876-10.50958.32861-4.08671-.99517.512-2.663-4.41407-3.7009-3.535.57063-8.20545,2.61532-12.225,1.23772l.07959-.38392c-9.78927-2.4613-15.11844,3.00489-24.059.58664l.9829-.71121c-3.1506-1.33126-9.44014.23973-15.14265-1.22826,1.6256.47477,3.01353,2.0866-.43718,2.276-6.56094-1.51527-11.08495-.22936-15.86588-2.03231L692.18864,6.4624c-22.93234-.89273-113.612.27681-136.665.14246l.91-.32378c-35.1351.34369-107.21135-1.31371-143.56241.88618-5.56852-2.22385-13.32083-1.888-19.16347-2.59934,3.23793.94609,2.092,2.41865-.44851,2.28005-17.83673-.61173-1.23408,1.43233-19.297,1.96011-20.81732,1.53071-100.28479-2.346-118.69125-4.52427C245.29966,7.18605,232.98122,4.58,223.23434,6.344l.99272-.71266c-10.448.95429-69.39589-3.14639-81.53459-2.28606l1.619.478c-10.60426,1.71144-9.095-1.659-17.39783-2.89071,1.02186,3.50978-8.07169,5.30116-11.53021,5.49329l.1467-.75991c-5.21824.47942-17.0746,3.264-25.68229,3.55367l.37573-1.90113c-7.21294,1.90125-20.67739.77065-25.83514.86494C52.61853,7.14964,34.51224,3.453,18.70017,5.64707L8.63173,0,7.13008.50893S-10.62462,65.8228,9.90014,80.23717l-.37075,1.896,4.12-.16036c4.91832,1.03982,7.24745-1.12043,6.87278.77338l-6.75968-.3722c4.94919.65408,1.465,1.59148-.45106,2.62985A24.22,24.22,0,0,1,19.02147,86.119c.99247-.71183-.70219-.80456-1.46559-1.2344,2.68239-.6157,6.435-2.32825,9.66643-1.38311,5.07613.28445.26012,3.08989,6.18325,3.41941,31.23128,2.11924,61.47656,4.95346,93.08231,5.17749.70219.80457-.1532.75851-1.073,1.09445,9.5368-.62505,17.991-.1527,26.67642-.825a7.49076,7.49076,0,0,1,3.71847,2.89412C154.41217,93.65211,203.71445,94.5271,204.48745,94.95621Z"/><path class="b" d="M78.73109,38.2997c-1.01221,1.51806-1.42627,3.45068-1.42627,7.36084,0,1.84033.0918,4.09472.27588,6.99267.13818,2.39258.23,4.27881.23,5.84278,0,4.3706-.644,5.88867-2.30029,7.6372-.91992.91993-1.564,1.37989-2.11621,1.37989-.64405,0-1.104-.68994-1.42627-1.79395-.32178-1.10449-.55176-2.20849-.874-3.86474-.18408-1.104-.36816-1.14991-1.42627-1.14991a39.624,39.624,0,0,0-5.75048.69,20.04056,20.04056,0,0,1-3.08252.27587c-.50586,0-1.01172-.04589-1.51807-.09179-.46,2.66845-1.104,3.77246-1.88623,3.77246-.68994,0-1.42627-.874-2.16211-2.16211a6.867,6.867,0,0,1-.874-3.3125A7.0905,7.0905,0,0,1,54.9,57.34609c.46-1.1504.73632-5.24463.73632-9.47706,0-1.88623-.04589-3.81835-.18408-5.521-.18408-2.48389-.78222-4.69238-1.65625-5.6582-.59814-.69043-1.0122-1.24219-1.0122-1.61036,0-.32226.32226-.50634,1.104-.50634a26.44781,26.44781,0,0,1,5.06055.78222A49.02571,49.02571,0,0,0,70.08168,32.871a5.94061,5.94061,0,0,1,2.89843-1.01172,5.95394,5.95394,0,0,1,3.26661,1.28808c2.438,1.51807,3.35839,2.3462,3.35839,3.26612A4.15082,4.15082,0,0,1,78.73109,38.2997Zm-6.53271,1.0581c-.18409-2.208-.36817-2.57617-1.84034-2.57617h-.644a48.36226,48.36226,0,0,0-7.729.91992,11.08951,11.08951,0,0,1-2.2085.32227,57.62085,57.62085,0,0,1,.50635,8.87891,20.73694,20.73694,0,0,0,4.64648-1.28809,8.99456,8.99456,0,0,1,2.89844-.59814,3.22615,3.22615,0,0,1,1.88623.50634c1.05811.64405,1.60986,1.2417,1.60986,1.70215,0,.50586-.59814.874-1.748,1.1499A32.61058,32.61058,0,0,1,62.39906,49.433a10.51345,10.51345,0,0,1-2.16211-.18408c-.04639,3.12842-.27637,6.48681-.55225,9.56933a21.97753,21.97753,0,0,0,5.42872-.874,13.26864,13.26864,0,0,1,3.3125-.55225,4.615,4.615,0,0,1,3.58837,1.70215,14.32876,14.32876,0,0,0,.36768-3.08252c.04639-1.79394.09229-4.00244.09229-6.30273C72.47426,45.70644,72.382,41.5204,72.19838,39.3578Z"/><path class="b" d="M105.36293,37.65566c-.82813.23-1.70215.41406-2.48389.55224-.09228,1.01221-.23047,1.978-.32226,2.852a7.26109,7.26109,0,0,1,1.28808-.13769,4.15082,4.15082,0,0,1,1.28809.18408c.82812.23,1.28808.59766,1.28808.96582,0,.41406-.644.874-1.978,1.104-.874.18409-1.65625.32227-2.3462.46045-.04589.1836-.09228.32178-.13818.50586-.32178,1.104-.59814,1.978-.82812,2.53028,3.77246.91992,4.3706,1.38037,4.4624,2.85253v.46c0,1.42626-.59766,2.208-1.37988,2.208a2.28937,2.28937,0,0,1-1.56446-.96582c-.91992-1.0581-1.47217-1.65625-2.438-2.89843-1.93213,3.26611-4.18652,5.15234-8.32714,7.26855a18.93439,18.93439,0,0,1-2.76026,1.24219,1.5854,1.5854,0,0,1-.55176.13818c-.13818,0-.18408-.0459-.18408-.13818,0-.27588.96582-1.24219,2.898-2.80615a18.15785,18.15785,0,0,0,6.48682-9.47706c-2.39209.50586-3.312.73584-4.09424.96631a14.49441,14.49441,0,0,1-3.45068.874c-.68995,0-1.19581-.32227-2.16211-1.1045-.91993-.73584-1.42627-1.1958-1.42627-1.51806,0-.41406.92041-.55176,3.03662-.59815,1.42627-.0459,5.75049-.55175,8.74072-1.0581.18408-1.104.27637-2.11621.36816-3.312-2.48437.32177-3.22021.23-4.5083-.27637-1.10449-.46-1.70215-.82813-1.70215-1.05811,0-.32177.73584-.46,2.11622-.46a31.69006,31.69006,0,0,0,4.23242-.644v-.78223a16.03973,16.03973,0,0,0-.23-2.898,2.99284,2.99284,0,0,0-.46045-1.15039,4.35029,4.35029,0,0,1-1.104-2.11621c0-.41406.32227-.644,1.104-.644a12.8867,12.8867,0,0,1,2.48437.36816c2.39258.55176,3.17432.96582,3.17432,1.88623a4.85362,4.85362,0,0,1-.46,1.60987,9.24091,9.24091,0,0,0-.36817,2.53027,5.94439,5.94439,0,0,1,1.65625-.41406,2.47647,2.47647,0,0,1,1.19629.41406c1.05811.46045,1.61036.874,1.61036,1.28809S106.8351,37.28749,105.36293,37.65566Zm22.1289,13.93945a42.8745,42.8745,0,0,1-6.165.73633,2.84018,2.84018,0,0,1-2.71435-1.24219,70.65072,70.65072,0,0,1-4.64649-6.62451c-1.37988,3.12793-4.04834,5.6123-7.31494,7.59082a13.52411,13.52411,0,0,0,3.95655-1.33447,2.94913,2.94913,0,0,1,1.61035-.55176,6.18223,6.18223,0,0,1,2.43847.68994c2.89795,1.24219,3.86426,1.79394,3.86426,2.66846a5.43767,5.43767,0,0,1-.68994,1.93212,5.8704,5.8704,0,0,0-.50635,2.76026c0,.82812.0459,1.93213.18409,3.58838,0,.23.04589.46.04589.73584a11.928,11.928,0,0,1-1.65625,6.11914c-1.104,1.564-1.978,2.438-2.668,2.438-.82812,0-1.47216-1.19629-2.02441-3.81836-.27588-1.38037-.78223-1.978-2.07031-1.978a5.26413,5.26413,0,0,0-1.1499.0918c-2.2544.36816-3.72657.55224-5.29053.68994-.13818,2.39258-1.15039,3.68066-1.79443,3.68066h-.0459c-1.38037,0-2.53028-1.61035-2.53028-3.95654a10.53242,10.53242,0,0,1,.0918-1.1499,25.85463,25.85463,0,0,0,.23-3.22071,17.0854,17.0854,0,0,0-1.01172-6.34863,4.72008,4.72008,0,0,1-.78222-1.84033c0-.32178.23-.46.73584-.46a15.12962,15.12962,0,0,1,2.66845.41406c1.61035-.23,3.2666-.50586,4.83057-.78223a5.28941,5.28941,0,0,1,1.28808-1.88623,18.91541,18.91541,0,0,0,4.37061-8.05078,11.93538,11.93538,0,0,1-1.65625.13819,5.5877,5.5877,0,0,1-1.564-.23c-.64405-.23-1.01221-.50635-1.01221-.73633,0-.32178.59814-.644,2.02392-.82813.82813-.09179,1.70264-.27588,2.66846-.46a34.48115,34.48115,0,0,0,.50635-3.45019h-.50635a4.95737,4.95737,0,0,1-2.48437-.46045c-.82813-.46-1.24219-.68994-1.24219-.82764,0-.18408.59814-.27637,1.65625-.46045q1.44946-.27612,2.76025-.41406c.04639-.68994.09229-1.28809.09229-1.79395a4.74735,4.74735,0,0,0-.64405-2.80664,4.98023,4.98023,0,0,1-.9663-2.02392q0-.55225.82812-.55225a13.14765,13.14765,0,0,1,2.76025.50635c2.57618.68994,3.54249,1.1499,3.54249,1.83984a2.99752,2.99752,0,0,1-.644,1.38037,5.8802,5.8802,0,0,0-.55224,2.07032,5.52246,5.52246,0,0,1,2.07031-.50635,4.94381,4.94381,0,0,1,1.70215.36816c.87451.27588,1.42627.644,1.42627,1.05811,0,.55224-.874,1.19629-2.89844,1.748a18.57358,18.57358,0,0,1-2.80615.50635c-.13819,1.104-.23,2.02442-.36817,2.80615,1.19629-.32177,2.3003-.68994,3.22071-1.0122a9.45073,9.45073,0,0,1,3.22021-.91992,3.20162,3.20162,0,0,1,2.02441.82812c.82764.59814,1.334,1.1499,1.334,1.61035,0,.68994-1.334,1.1499-4.69238,1.24219-1.19629.0459-3.58887.32178-5.6587.644a1.96057,1.96057,0,0,0-.04638.23c5.06055,4.4624,7.499,5.56641,12.69775,7.22266,2.2544.68994,3.3584,1.104,3.3584,1.42627C130.89613,50.99745,129.74574,51.22743,127.49183,51.59511Zm-14.95214,3.45068c0-.82812-.0918-1.15039-.96583-1.15039a3.23174,3.23174,0,0,0-.644.04639c-1.33447.13769-4.73877.50586-8.64892,1.1499.04589,1.334.13769,2.57617.18408,3.77246,3.22021-1.15039,4.69238-1.61035,5.75049-1.61035a4.12431,4.12431,0,0,1,2.02441.59814c.59766.32227.91992.69.91992,1.01221,0,.46-.50635.82813-1.65625,1.01221a54.35341,54.35341,0,0,1-6.99267.644c.09179,1.37988.09179,2.62207.13769,3.58838,2.39258-.32227,4.00244-.59814,5.47461-.874a9.44967,9.44967,0,0,1,1.61035-.23,2.51257,2.51257,0,0,1,1.748.73584c.09228.04589.13818.09228.23047.13818a1.04078,1.04078,0,0,0,.46.23c.23,0,.27588-.23.32178-.68994.09228-.87451.09228-2.07031.09228-3.3125C112.58607,58.266,112.53969,56.288,112.53969,55.04579Z"/><path class="b" d="M151.04164,64.47694a3.50969,3.50969,0,0,1-.644.0459c-.18409,0-.32227-.0459-.32227-.09228,0-.0918.36816-.27588,1.05811-.50586,7.17675-2.76026,11.40917-7.269,11.40917-11.68555a8.2386,8.2386,0,0,0-.09179-1.0581c-.50586-3.22022-3.03662-4.83057-6.39453-4.83057a16.87453,16.87453,0,0,0-9.70752,3.72656c-.1377,1.74805-.1836,3.2666-.1836,4.64649,0,2.99023.23,5.10693.23,6.80908a12.13894,12.13894,0,0,1-.13818,1.88623c-.27588,1.83984-.874,3.49609-2.76025,4.09424a2.331,2.331,0,0,1-.78223.13818,1.83213,1.83213,0,0,1-1.93213-1.93213v-.78222c0-2.07032-1.0581-3.12842-2.76025-5.981q-.27612-.55152,0-.55176a2.24624,2.24624,0,0,1,.46.18408,24.10839,24.10839,0,0,0,2.71435.96582,1.85684,1.85684,0,0,0,.55176.13819c.23047,0,.27637-.18409.32227-.55225a27.73193,27.73193,0,0,0,.09179-2.80615V53.11366a41.151,41.151,0,0,0-6.39453,7.08448,1.66362,1.66362,0,0,1-1.28808.69043,1.68148,1.68148,0,0,1-1.38037-.82813,7.18494,7.18494,0,0,1-.82813-3.3125,2.54422,2.54422,0,0,1,.09229-.874c.46-1.56446.644-1.10449,1.24218-1.51807,2.02393-1.51855,6.6709-5.10693,8.833-8.189.0459-1.01221.1377-1.79444.1377-2.43848-.82813.50586-2.25391,1.47217-3.082,1.93213a2.09766,2.09766,0,0,1-1.05811.23,6.26046,6.26046,0,0,1-2.30029-.55176,4.01108,4.01108,0,0,1-2.43848-2.85254c0-.18408-.0459-.36816-.0459-.50586,0-.41406.18408-.55224.68994-.32226a3.69165,3.69165,0,0,0,1.38037.27588c1.84034,0,4.00245-1.334,7.17676-2.852.0459-.78223.0459-1.56446.0459-2.43848v-1.1499a4.23013,4.23013,0,0,0-2.11621-4.00245c-.68994-.41406-.55176-.874.41406-1.104a5.24767,5.24767,0,0,1,1.51807-.23047,7.00015,7.00015,0,0,1,5.01465,2.1167,2.58091,2.58091,0,0,1,.68994,1.51807,3.6924,3.6924,0,0,1-.68994,1.79394,4.36493,4.36493,0,0,0-.55176,2.07032h.18359a2.67956,2.67956,0,0,1,2.07032.874,3.97638,3.97638,0,0,1,1.33447,2.34619c0,.73633-.644,1.19629-1.33447,1.74854a40.44728,40.44728,0,0,0-3.082,3.40429V46.581a4.173,4.173,0,0,1-.04638.73584,21.91463,21.91463,0,0,1,11.77734-3.95654c4.96875,0,8.78711,2.53027,9.52344,7.54492a9.53661,9.53661,0,0,1,.13769,1.61035C167.78724,58.63417,162.31263,63.23476,151.04164,64.47694Z"/><path class="b" d="M189.68178,70.22743c-.32227.27588-.50635.41407-.59815.41407-.04639,0-.04639-.0459-.04639-.0918a1.94984,1.94984,0,0,1,.23047-.55225c3.95606-7.22265,5.33643-16.148,5.33643-25.48681,0-1.61036,0-3.17432-.0918-4.78467-.23047-3.72656-1.0581-4.96875-1.79443-5.10645h-.0459c-.96631,0-4.4165,3.63428-6.11865,12.74317-.36817,2.02441-.18408,3.40429-.59815,4.96875a1.46947,1.46947,0,0,1-1.334,1.28808,2.19844,2.19844,0,0,1-1.24219-.50586,7.30312,7.30312,0,0,1-2.30029-3.54248,2.465,2.465,0,0,1-.18408-.874c0-.73633.50586-.87451.59814-2.02441.59766-4.09424,1.334-9.10889,1.51807-13.24952a11.35318,11.35318,0,0,0,.09179-1.19629,2.75581,2.75581,0,0,0-.96582-2.2539q-.41454-.345-.41406-.55225c0-.13818.18408-.23.46-.23h.23c2.71436.46,4.04834,1.05811,4.55469,3.4043a4.68951,4.68951,0,0,1,.0918,1.19629c0,1.104-.18409,2.62207-.27588,4.32422,2.62207-4.00244,5.01465-6.53272,7.31494-6.53272,2.438,0,5.10644,3.03662,5.24463,8.32715.0459,1.748.09179,3.49609.09179,5.24463C199.4347,53.8954,198.19252,62.72841,189.68178,70.22743Z"/><path class="b" d="M245.297,46.85683c-6.34863,11.31738-10.67334,15.5039-24.52051,19.23a2.61736,2.61736,0,0,1-.46045.09228c-.23,0-.36767-.0459-.36767-.18408s.18359-.32226.59765-.55225c9.24707-5.15234,15.18213-10.167,20.28858-21.53027-5.981.96582-12.65137,2.62207-18.03418,3.49658h-.41407a5.41084,5.41084,0,0,1-4.60058-3.08252.9725.9725,0,0,1-.18408-.50634c0-.1836.18408-.23.64453-.23h.68994c4.60059,0,15.22754-1.51807,21.57617-2.39209,1.15039-.18409,1.38037-.82813,2.02442-.82813a2.6308,2.6308,0,0,1,1.28808.55225,12.61478,12.61478,0,0,1,3.3125,2.99023,1.45854,1.45854,0,0,1,.32178.82813C247.45912,45.56874,245.94105,45.66054,245.297,46.85683Zm-7.59082-10.39746a89.3222,89.3222,0,0,0-9.15479,2.53027c-.41406.09229-.59814.09229-.59814,0,0-.0918.0918-.23.32178-.41357.68994-.55225,1.104-1.0586,1.93213-1.65625-3.542-.23-4.87647-1.19629-5.75049-2.57666a1.063,1.063,0,0,1-.13819-.41407c0-.18359.13819-.23.59815-.23A69.89847,69.89847,0,0,0,234.716,32.411c2.208-.41407.874-.55176,3.77247-.55176h.09179c1.79444,0,2.89844.874,2.89844,1.83984C241.47865,34.71132,240.32875,35.86171,237.70619,36.45937Z"/><path class="b" d="M290.19349,37.65566c-4.78466,12.88134-9.75341,17.62011-22.58886,24.24462-1.1958.59815-1.70215,1.84034-2.62207,1.84034a1.4101,1.4101,0,0,1-.68995-.18409c-3.91064-2.11621-5.01464-4.00244-5.01464-6.48681a6.49552,6.49552,0,0,1,.04589-.91992c.0459-.41407.18409-.59815.36817-.59815s.36767.18408.59814.50635a3.47376,3.47376,0,0,0,2.898,1.1958,6.32758,6.32758,0,0,0,2.07032-.36768c10.35107-3.81884,18.40234-9.84521,24.33691-19.41455a.87946.87946,0,0,1,.50586-.41406.2105.2105,0,0,1,.18408.23A1.42459,1.42459,0,0,1,290.19349,37.65566ZM271.00941,40.83a1.86726,1.86726,0,0,1-1.88623,1.24219,3.26557,3.26557,0,0,1-.644-.0459c-1.88623,1.01221-2.62256,1.47217-3.91065,2.208a1.2761,1.2761,0,0,1-.59814.27637c-.0459,0-.0459-.0459-.0459-.09229a2.72633,2.72633,0,0,1,.23-.644c.50586-.96582,1.05811-1.93213,1.51807-2.71436-2.94434-1.37988-5.06055-3.3584-5.06055-6.16455v-.36816c.0459-.50586.09229-.73584.23-.73584.09229,0,.27637.13769.50635.41406,1.37988,1.60986,5.98047,1.65625,7.40674,2.39209,1.61035.82813,2.438,1.97852,2.438,3.22021A2.62655,2.62655,0,0,1,271.00941,40.83Z"/><path class="b" d="M330.12123,47.77675c-.46,0-1.01221,0-1.56445-.0459-.91993-.0459-1.88624-.0459-2.85206-.0459-2.20849,0-4.50878.0918-6.80908.27588-.91992,10.48926-4.09424,14.72168-13.3872,19.59815a1.952,1.952,0,0,1-.73633.32226c-.0459,0-.0918,0-.0918-.0459q0-.20727.55176-.69043c5.84277-5.65869,8.00537-10.581,8.74121-18.72412-3.17432.32227-6.11865.73633-8.373,1.05811a31.7568,31.7568,0,0,1-4.23242.32226c-2.16211,0-3.3584-.46-4.37061-1.56445a2.06471,2.06471,0,0,1-.46-.644c0-.1836.23-.1836.78223-.23,4.96826-.32178,11.1333-1.05811,16.83789-1.794,0-.27637.0459-.59814.0459-.96631,0-.41406.0459-.82812.0459-1.1499,0-2.53027-.41406-3.72656-1.1958-4.4165a49.48481,49.48481,0,0,1-10.99561,2.208h-.27588c-.55224,0-.50586-.23.13819-.50585,6.90039-3.17432,10.71923-5.29053,13.84765-7.68311.59766-.46,1.334-.96582,1.334-1.60986a1.02643,1.02643,0,0,0-.13819-.46045c-.41406-.644-.32177-.874.27637-.874h.18359c2.07032.13819,3.17432.82813,5.751,2.94434.46.36816.644.69043.644.92041,0,.644-1.33447.874-2.11621,1.28809-2.11621,1.0581-4.00244,1.978-5.88867,2.76025a8.22717,8.22717,0,0,1,3.4043,1.748c.50586.41406.68994.73632.68994,1.104,0,.73633-.73584,1.56445-.78174,3.3125a4.50762,4.50762,0,0,1-.04639.68994c1.28809-.18359,2.53028-.32178,3.72657-.50586a18.24611,18.24611,0,0,1,4.3706-.59814c3.4043,0,6.11865,1.0122,6.07276,2.57617C333.20326,47.40907,332.23744,47.77675,330.12123,47.77675Z"/><path class="b" d="M368.945,45.66054c-3.63477,3.4043-6.21094,5.52051-10.0752,7.085a3.50573,3.50573,0,0,1-.50634.18408,1.17009,1.17009,0,0,1-.32178.0918c-.04639,0-.09229,0-.09229-.0459a2.92,2.92,0,0,1,.59815-.78223c1.70215-1.93213,4.73877-5.6123,6.16455-9.61474-2.94434,1.0581-6.34863,2.53027-9.707,4.00244-.23,2.438-.36817,4.92236-.644,8.41894v.55176c0,2.16211,1.104,3.03662,3.77247,3.03662,6.30273-.04638,6.71679-1.0122,8.7871-1.0122h.27588c2.39258.13769,3.77246,1.28808,3.77246,2.48437,0,.96582-.91992,1.93213-2.94433,2.438a30.7694,30.7694,0,0,1-7.13086.644h-1.42627c-5.79639-.13769-8.87891-2.85205-8.87891-8.09668v-.46c.0459-1.93262.09229-3.77246.09229-6.02685-1.84033.874-3.54248,1.70214-5.01465,2.34619a8.40459,8.40459,0,0,1-3.49658.91992,5.32523,5.32523,0,0,1-4.27832-2.438c-.23-.27588-.36817-.46-.36817-.59814,0-.18409.23-.23.69-.23a12.51263,12.51263,0,0,0,3.81884-.73633c2.48389-.78174,5.56641-1.794,8.69483-2.85205V39.266c0-2.43848-.46-4.09473-1.88623-4.60059q-.68994-.27612-.68994-.55224c0-.23.27587-.41407.874-.59815a5.73786,5.73786,0,0,1,1.84033-.27588c1.37988,0,3.082.55225,5.19824,2.66846a1.4136,1.4136,0,0,1,.50635.96582c0,.73633-.69043,1.51855-.92041,3.54248-.1377,1.0581-.23,2.02441-.32178,2.94434,3.54248-1.19581,6.8545-2.39209,9.24707-3.22022.644-.23.78174-.55225,1.24219-.55225a4.89231,4.89231,0,0,1,1.65625.50635,8.94133,8.94133,0,0,1,3.542,3.3584,1.09325,1.09325,0,0,1,.23.644C371.24476,44.87831,369.7726,44.9247,368.945,45.66054Z"/><path class="b" d="M391.75892,51.59511a2.57867,2.57867,0,0,1-1.88623.87451,1.755,1.755,0,0,1-1.84033-1.42627,27.503,27.503,0,0,0-2.57617-7.499c-.1377-.27588-.1377-.36817,0-.36817a2.34606,2.34606,0,0,1,.41406.09229c1.56445.644,4.41651,1.79394,5.88867,4.27832a5.29033,5.29033,0,0,1,.55225,2.30029A2.49733,2.49733,0,0,1,391.75892,51.59511Zm17.75782-5.24463c-4.73829,11.63965-7.82129,14.3999-19.874,18.58643a1.37075,1.37075,0,0,1-.55224.09179c-.1377,0-.1836-.0459-.1836-.09179,0-.09229.1377-.27588.50586-.50635,8.69483-5.10645,12.92725-10.25879,15.77979-19.91992a4.07669,4.07669,0,0,0,.18359-1.24219,2.06492,2.06492,0,0,0-.68945-1.61035c-.27637-.23-.41406-.41407-.41406-.59815,0-.13769.18359-.23.59765-.27588a4.47609,4.47609,0,0,1,.78223-.04589c1.61035,0,3.2207.55175,4.831,2.89843a1.22782,1.22782,0,0,1,.2295.59766C410.713,44.87831,409.9308,45.38466,409.51674,46.35048Zm-8.92481-3.082a15.25058,15.25058,0,0,0-2.208,3.68017,2.02209,2.02209,0,0,1-1.51855,1.93213c-.1377,0-.27588.04639-.41406.04639-1.14991,0-1.60987-.78223-2.208-1.93213-.46-1.05859-.18408-3.54248-1.70215-6.395q-.27612-.55224,0-.55224a1.17388,1.17388,0,0,1,.32178.09228c1.51855.59815,2.71435,1.24219,4.46289,3.95654.96582-.46,1.93213-.78222,2.94433-1.19629a3.07767,3.07767,0,0,0,.36768-.13818.34928.34928,0,0,1,.18408-.0459c.0459,0,.0459,0,.0459.0459C400.86781,42.85439,400.776,42.99208,400.59193,43.26845Z"/><path class="b" d="M450.77845,51.04335a1.977,1.977,0,0,1-1.79394.874,5.131,5.131,0,0,1-3.49609-1.61035,52.95208,52.95208,0,0,0-6.99317-6.07275c0,4.96875.13867,9.15527.27637,13.57178.0918,3.22021.22949,3.77246.22949,5.01464v.50586c-.0918,2.76026-1.19531,4.23243-2.4375,4.23243s-2.66894-1.60987-3.12891-5.15235a3.26627,3.26627,0,0,1-.04589-.644c0-1.28809.82812-.82813.91992-4.92285.0459-1.1499.0459-2.57617.0459-4.14014,0-5.42871-.1836-12.60547-.46-17.48193-.0918-1.93262-.82813-3.95655-2.11622-4.37061-.41406-.13818-.64355-.32226-.64355-.46q0-.3457.96582-.55225a7.285,7.285,0,0,1,1.65625-.18408c1.51856,0,2.76074.59815,4.50879,2.2085.68945.644.91992,1.104.91992,1.564,0,.73584-.55176,1.47217-.59863,2.94434-.0459,2.30029-.0918,4.4624-.0918,6.48682A32.675,32.675,0,0,1,448.755,45.89052a4.4226,4.4226,0,0,1,2.3916,3.72656A2.85091,2.85091,0,0,1,450.77845,51.04335Z"/><path class="b" d="M486.77162,60.82021c-.70313,3.63574-4.45606,6.56787-8.4043,6.56787a7.51228,7.51228,0,0,1-4.30078-1.3291c-2.26758-1.52491-3.36133-4.02686-3.36133-7.62305a19.85791,19.85791,0,0,1,.15625-2.58057c-2.3457-.62549-3.40136-2.03271-3.40136-3.9873a7.467,7.467,0,0,1,.35156-2.1499c.11719-.35206.23437-.54737.3125-.54737.0791,0,.15722.19531.15722.58643.07813,1.40722,1.48536,2.189,3.24415,2.46289.03906-.54736.50878-2.38477.97753-4.26123-.86035.11719-1.71972.23437-2.61914.35156-.11718,0-.19531.03906-.27343.03906-.27442,0-.19532-.15625.23437-.42968.66406-.46924,1.21192-.89942,2.0332-1.48584a4.974,4.974,0,0,1-2.89355-4.41748c0-.15625.03906-.27344.03906-.42969.03906-.39112.07813-.54737.19531-.54737.07813,0,.19629.11719.39161.39063.50781.78223,1.99316,1.564,4.10449,1.8374a38.26863,38.26863,0,0,0,.74316-3.90918,6.61166,6.61166,0,0,0,.11719-1.17285,2.85491,2.85491,0,0,0-1.17285-2.541c-.23438-.15625-.35254-.3125-.35254-.43018,0-.15625.19629-.3125.54785-.39063a6.41938,6.41938,0,0,1,1.44629-.1958,4.66287,4.66287,0,0,1,3.75293,2.15039,3.41533,3.41533,0,0,1,.74316,2.14991,4.08953,4.08953,0,0,1-.35254,1.603c-.39062.89893-.82031,1.91553-1.29,2.9712a2.45277,2.45277,0,0,1,1.68164,2.189c0,.07813-.03907.19531-.03907.313-.11718,1.01611-1.17285,1.60254-2.93261,1.71972a1.447,1.447,0,0,1-.42969.03956c-.54785,1.44628-1.05567,2.93164-1.48535,4.45654.85937-.07861,1.6416-.1958,1.99316-.23486a5.25379,5.25379,0,0,1,.78223-.03907c1.60254,0,2.61914.58643,2.6582,1.91553v.07813c0,.97753-.93848,1.8374-3.51855,2.18945a10.996,10.996,0,0,1-1.915.15625c-.27344,0-.54785-.03906-.86035-.03906A16.24841,16.24841,0,0,0,473.715,58.162a8.26567,8.26567,0,0,0,1.75879,5.59034,3.43929,3.43929,0,0,0,2.61914,1.251c1.75976,0,3.63574-1.40722,4.49609-4.80859a9.816,9.816,0,0,0,.27344-2.502,21.24372,21.24372,0,0,0-1.876-8.28759c-.23437-.5083-.27343-.78174-.11718-.78174.07812,0,.3125.15625.58593.5083,3.51856,3.9873,5.55176,5.86377,5.55176,9.34326A13.13579,13.13579,0,0,1,486.77162,60.82021Z"/><path class="b" d="M523.32045,64.47694a47.09717,47.09717,0,0,1-5.79688.41407,23.09486,23.09486,0,0,1-9.43066-1.74854A6.834,6.834,0,0,1,503.63,56.518a15.00477,15.00477,0,0,1,1.61035-6.21094c.18359-.41406.41406-.644.55176-.644.13867,0,.23047.13818.23047.46a1.14462,1.14462,0,0,1-.0459.36816,14.31873,14.31873,0,0,0-.23047,2.2544c0,3.12842,1.51855,4.87646,5.06055,6.25684a13.9732,13.9732,0,0,0,4.92285.78173c.82812,0,1.61035-.09179,2.16211-.13769,3.2666-.27637,3.58789-.644,4.46289-.644a12.0938,12.0938,0,0,1,1.65527.23c1.97852.36767,2.80664,1.334,2.80664,2.34619C526.81654,62.86659,525.48256,64.20058,523.32045,64.47694Zm-1.334-22.77294a2.51491,2.51491,0,0,1-1.748.69043c-.82813,0-1.79493-.32227-3.22071-.32227a13.75423,13.75423,0,0,0-4.60058.874,2.10338,2.10338,0,0,1-.36817.09229c-.09179,0-.13769-.04639-.13769-.09229a1.34055,1.34055,0,0,1,.22949-.46,37.73041,37.73041,0,0,1,3.58887-3.40429c.18359-.13819.27539-.27588.27539-.36817,0-.0918-.0459-.18408-.1836-.32178-.874-.82812-2.94433-1.33447-5.47461-1.47216a3.33887,3.33887,0,0,1-2.94433-1.51856.61132.61132,0,0,1-.1377-.32178c0-.13818.0918-.18408.36817-.32226a12.72113,12.72113,0,0,1,5.47461-1.1958,13.70658,13.70658,0,0,1,7.084,1.88623,4.97825,4.97825,0,0,1,2.623,4.14013A2.72717,2.72717,0,0,1,521.98646,41.704Zm7.085-.874a1.2786,1.2786,0,0,1-.59863-.13769c-1.70215-.92041-2.43848-3.95655-4.14062-5.65869-.1836-.13819-.27539-.23-.27539-.32227,0-.0918.22949-.0918.64355-.0918a14.59717,14.59717,0,0,1,4.00293,1.748c.32129-.50586.50586-.73584.64355-1.01221.18457-.32177.32227-.46.36817-.46.0918,0,.0918.18408.0918.55225a14.6063,14.6063,0,0,0,.50585,3.72607v.18408A1.30565,1.30565,0,0,1,529.07142,40.83Zm5.65821-2.39209a1.59468,1.59468,0,0,1-.59766.13819c-.59863,0-1.10449-.41407-1.79492-1.38038-.41406-.644-2.25391-3.3125-3.4043-3.77246-.32226-.13818-.50586-.27588-.50586-.36816,0-.0459.1377-.0918.36817-.0918h.22949c2.48437.0918,4.877,1.01221,6.02734,2.76026a2.556,2.556,0,0,1,.50586,1.42627A1.259,1.259,0,0,1,534.72963,38.43788Z"/><path class="b" d="M564.215,40.78407c-1.70215.55225-3.45117,1.104-5.19922,1.51807,1.47266,4.23242,5.24512,4.78467,6.07324,6.7168a6.49127,6.49127,0,0,1,.55176,2.57617c0,1.61035-.73633,2.89844-2.16211,2.89844h-.0459c-2.16211-.0459-1.334-2.2544-7.499-2.2544-.55176,0-1.19629,0-1.93262.04639h-.41406c-.32129,0-.50586-.04639-.50586-.13819s.27637-.27587.78223-.55224c1.56445-.73584,3.2666-1.42578,5.33691-2.30029a16.88932,16.88932,0,0,1-4.04883-6.11866,26.05622,26.05622,0,0,1-4.78418.50635c-3.58887,0-6.30273-1.0581-7.36133-3.77246a1.99251,1.99251,0,0,1-.18359-.644c0-.09229,0-.13819.0918-.13819a3.28831,3.28831,0,0,1,.874.27588A12.87206,12.87206,0,0,0,548.297,40.14a29.232,29.232,0,0,0,6.07227-.78223c-.36817-3.17431-.2295-5.98046-1.79395-7.08447-.73633-.55224-1.10449-.92041-1.10449-1.24219,0-.36816.46-.59814,1.38086-.78222a11.58826,11.58826,0,0,1,2.11621-.27588,5.08216,5.08216,0,0,1,3.77246,1.65576,1.88165,1.88165,0,0,1,.68945,1.28857,7.60637,7.60637,0,0,1-.46,1.65577,15.74544,15.74544,0,0,0-.50586,3.63476c.55176-.13818,1.10449-.32226,1.748-.50635,2.89844-.91992.64453-1.1499,3.63476-1.564a5.59406,5.59406,0,0,1,.82813-.0459c1.65625,0,2.43848.78174,2.43848,1.748C567.11342,38.89784,566.14662,40.14,564.215,40.78407ZM560.07435,66.685h-.96582c-7.40722,0-11.31738-2.80615-11.31738-6.57861a7.1971,7.1971,0,0,1,.91992-3.2666c.27539-.55176.50586-.82813.64356-.82813.09277,0,.13867.13819.13867.36817a2.43754,2.43754,0,0,1-.0459.55224v.41407c0,2.57617,2.62207,4.09423,7.49805,4.09423.64453,0,1.38086-.04589,2.11621-.09179.73633-.0459,1.47265-.09229,2.11621-.09229,2.02441,0,3.63476.36817,3.957,1.70215a5.0869,5.0869,0,0,1,.0918.82812C565.2267,65.581,563.70814,66.54677,560.07435,66.685Zm10.99512-29.25927a1.26609,1.26609,0,0,1-.59766-.13819c-1.70312-.91992-2.43847-3.956-4.14062-5.65869-.18457-.1377-.27637-.23-.27637-.32178,0-.09228.23047-.09228.64453-.09228a14.59074,14.59074,0,0,1,4.002,1.74853c.32226-.50634.50586-.73633.64453-1.0122.18359-.32227.32129-.46.36719-.46.09277,0,.09277.18409.09277.55176a14.61258,14.61258,0,0,0,.50586,3.72657v.18408A1.30631,1.30631,0,0,1,571.06947,37.42568Zm5.6582-2.39209a1.58917,1.58917,0,0,1-.59765.13769c-.59766,0-1.10449-.41406-1.79395-1.37988-.41406-.644-2.25488-3.3125-3.40429-3.77246-.32227-.13819-.50684-.27588-.50684-.36817,0-.0459.13867-.09179.36816-.09179h.23047c2.48438.09179,4.876,1.01171,6.02637,2.76025a2.5549,2.5549,0,0,1,.50586,1.42627A1.259,1.259,0,0,1,576.72767,35.03359Z"/><path class="b" d="M595.81459,49.75526a41.15872,41.15872,0,0,0-2.208,7.36084,4.761,4.761,0,0,0-.1377,1.01172,4.53571,4.53571,0,0,0,.50586,1.70264,1.34294,1.34294,0,0,1,.0918.41406c0,.78174-.91992,1.47217-1.79394,1.60987a6.49916,6.49916,0,0,1-.91993.04589,6.858,6.858,0,0,1-4.64648-1.88623c-2.80664-2.438-4.04883-7.63671-4.92285-15.31933a6.88061,6.88061,0,0,0-1.334-3.91065c-.23047-.27588-.36816-.46-.36816-.59814,0-.18408.27637-.27588.874-.46a6.40288,6.40288,0,0,1,1.51856-.23,4.024,4.024,0,0,1,2.80566,1.19629c1.42676,1.28808,1.748,2.2998,1.748,3.17431a6.27311,6.27311,0,0,1-.0918.96582,21.6617,21.6617,0,0,0-.18359,3.12842c0,3.03662.46,6.395,1.748,7.68311.32227.32177.50586.46.69043.46.1836,0,.36719-.13819.64356-.46,1.97851-2.2085,3.72656-4.27881,5.47461-6.165.23047-.23.41406-.36768.50586-.36768.09277,0,.13867.0918.13867.23A1.05164,1.05164,0,0,1,595.81459,49.75526Zm20.05859,2.3003a1.88492,1.88492,0,0,1-1.97851,1.334,3.24034,3.24034,0,0,1-1.93164-.644c-1.19629-.96631-3.72657-1.61035-6.85547-1.61035-.27539,0-.46-.0459-.46-.18408,0-.0459.09277-.18409.36816-.27588,1.51855-.68994,3.3125-1.51807,4.83105-2.3003-.32226-.91992-1.28808-2.16211-2.99023-4.3706a8.04518,8.04518,0,0,1-2.209-4.5542v-.27637c0-.27588.04589-.36767.27636-.36767a2.26041,2.26041,0,0,1,.50586.04589c3.68067.69,9.10938,6.7168,9.84571,8.32666a7.25993,7.25993,0,0,1,.82812,3.22071A6.86266,6.86266,0,0,1,615.87318,52.05556Z"/><path class="b" d="M650.41908,67.099a6.95348,6.95348,0,0,1-3.68066-1.84033,26.29112,26.29112,0,0,0-3.63477-2.53027c-.64355,2.62256-3.81836,3.58838-7.03809,3.72656h-.69043c-2.71386,0-5.38281-.46-6.67089-1.748a5.20876,5.20876,0,0,1-.82813-3.12842c0-2.16211.874-4.69239,3.4043-5.42871a7.27579,7.27579,0,0,1,1.88672-.23,24.29459,24.29459,0,0,1,5.93457.9663c-.0459-1.56445-.0459-3.2666-.0918-5.061a13.50258,13.50258,0,0,1-2.34668.23047,6.1512,6.1512,0,0,1-5.70508-2.99072,1.4288,1.4288,0,0,1-.22949-.50586c0-.0459.0459-.0918.1377-.0918a2.27183,2.27183,0,0,1,.55273.13769,6.01625,6.01625,0,0,0,1.97754.27588,20.982,20.982,0,0,0,5.52051-.874c-.0459-2.208-.0918-4.37012-.1377-6.21045-1.28808.0918-2.39258.1377-3.4043.1377-3.49609,0-5.4746-.644-6.25683-2.852a2.09684,2.09684,0,0,1-.1377-.50586c0-.09229,0-.09229.0918-.09229a3.77992,3.77992,0,0,1,.46.09229,12.45374,12.45374,0,0,0,2.25391.18359,43.30608,43.30608,0,0,0,6.90136-.874c-.09179-2.80616-.41406-5.15235-2.11621-5.98047-.46-.23-.69043-.41407-.69043-.59815,0-.23.23047-.41406.73633-.55224a7.09651,7.09651,0,0,1,2.208-.41407c1.47266,0,2.71484.73633,4.46289,2.66846a2.45756,2.45756,0,0,1,.73633,1.70215,7.30174,7.30174,0,0,1-.69043,2.48437,30.38781,30.38781,0,0,1,3.81836-.36816c1.65625,0,2.85254.41406,3.12793,1.84033a4.49389,4.49389,0,0,1,.09277.73584,1.07145,1.07145,0,0,1-.27637.82813c-.41406.41406-1.28808.69043-3.082.92041-1.56445.18408-2.76074.27588-4.09472.36816-.0459,1.47168-.0459,3.12793-.0459,4.83008.36816-.23.78222-.41406,1.24219-.68994a6.12629,6.12629,0,0,1,2.80566-.91992,2.57,2.57,0,0,1,2.11621,1.104,1.34592,1.34592,0,0,1,.27637.78223c0,1.104-1.61035,2.2539-3.17383,2.94433a33.618,33.618,0,0,1-3.2666,1.28809c.0459,2.48437.09179,4.96875.18359,7.26855a34.96112,34.96112,0,0,1,7.54492,3.72657,3.27142,3.27142,0,0,1,.82813,4.87646A1.31624,1.31624,0,0,1,650.41908,67.099ZM632.339,59.14a4.02017,4.02017,0,0,0-1.38086.18408c-.46.13819-.78125,1.05811-.78125,1.88623a1.65583,1.65583,0,0,0,.27539,1.01221,5.81024,5.81024,0,0,0,3.3125.73584,10.51089,10.51089,0,0,0,1.65625-.1377c1.88672-.23,3.17481-.874,3.58887-2.07031A20.40847,20.40847,0,0,0,632.339,59.14Z"/><path class="b" d="M697.10853,41.75038a6.431,6.431,0,0,1-.91992-.04638,92.91708,92.91708,0,0,0-9.79883.13818c-.0459,2.2085-.0459,4.55469-.13867,6.76269a6.942,6.942,0,0,1,.9209,3.86475,19.89424,19.89424,0,0,1-10.85742,16.83789,2.12139,2.12139,0,0,1-.73633.27588c-.18359,0-.0918-.23.27637-.73633A34.04152,34.04152,0,0,0,681.6515,57.392a6.32788,6.32788,0,0,1-3.45117,1.01221,5.70882,5.70882,0,0,1-2.75977-.69043,3.17523,3.17523,0,0,1-1.70214-2.99023,5.60059,5.60059,0,0,1,.50586-2.25391c.64355-1.42627,1.42578-2.62256,1.51855-3.81885a2.89946,2.89946,0,0,1,2.3457-2.71435,6.19144,6.19144,0,0,1,1.61035-.1836,5.3225,5.3225,0,0,1,2.07032.36768c.0459-1.28809.0459-2.62207.09179-3.91016-11.77734,1.01221-12.74316,2.34619-15.41211,2.48438h-.46a5.05842,5.05842,0,0,1-4.46191-2.53028,1.66242,1.66242,0,0,1-.23047-.59814c0-.23.27637-.23.82813-.23,3.35839-.04639,13.25-1.28857,19.73632-2.02441,0-4.69239-.32226-8.28077-1.79394-8.74122-1.10449-.36767-1.0586-.82763.13769-1.28808a4.299,4.299,0,0,1,1.56446-.27588,8.78877,8.78877,0,0,1,4.37011,1.47217,2.06545,2.06545,0,0,1,1.24219,1.88623,4.04939,4.04939,0,0,1-.22949,1.334,21.32231,21.32231,0,0,0-.64453,5.10694c5.47461-.644,7.26855-1.05811,8.14355-1.1045h.41407c2.75976,0,4.69238,1.28809,4.69238,2.57666v.1836C699.63881,41.28993,698.81068,41.75038,697.10853,41.75038Zm-15.918,7.9585c-1.05761-.96582-2.99023-1.104-3.35839-.41406-.32129.64453-.59766,2.53027-.82715,3.12841a1.98569,1.98569,0,0,0-.09278.46045,1.51462,1.51462,0,0,0,1.70215,1.42578,2.98992,2.98992,0,0,0,1.42676-.36767,3.21539,3.21539,0,0,0,1.42578-2.02442,9.00915,9.00915,0,0,0,.0918-1.0581A1.45035,1.45035,0,0,0,681.19056,49.70888Z"/><path class="b" d="M708.97377,67.559a5.59542,5.59542,0,0,1-5.61231-5.56641,5.71457,5.71457,0,0,1,5.7041-5.61279,5.58984,5.58984,0,0,1-.09179,11.1792Zm0-9.523a3.986,3.986,0,0,0-3.95606,3.95654,3.95682,3.95682,0,0,0,7.91309,0A3.98682,3.98682,0,0,0,708.97377,58.036Z"/></svg>