<svg xmlns="http://www.w3.org/2000/svg" viewBox="0 0 576.22444 150"><defs><style>.a{fill:#910000;}.b{fill:#fff;}</style></defs><circle class="a" cx="76.05396" cy="74.80573" r="67.90589"/><path class="a" d="M20.22142,21.94954c.04562-.04289.06122-.07077.10351-.11522a4.31555,4.31555,0,0,1-.15186-.58748Z"/><path class="a" d="M41.047,7.77341l.16142-.02115C41.14014,7.64923,41.11051,7.5267,41.047,7.77341Z"/><path class="a" d="M1.06934,75.2563a.5926.5926,0,0,0,.10957.41954A1.67486,1.67486,0,0,1,1.06934,75.2563Z"/><path class="a" d="M100.85428,144.86515l-.09591.05166a2.92416,2.92416,0,0,1,.29243.031Z"/><path class="a" d="M100.49949,145.35487c-.56653.033.048-.32187.2589-.43806a2.80582,2.80582,0,0,0-1.76841.4171C99.09115,145.63336,100.16651,145.21977,100.49949,145.35487Z"/><path class="a" d="M148.87719,84.19612l.09553.25783A.91225.91225,0,0,0,148.87719,84.19612Z"/><path class="a" d="M16.593,73.22345c.02613.09806.03763.20869.06726.29886A.39624.39624,0,0,0,16.593,73.22345Z"/><path class="a" d="M145.881,96.58083l.433.28181A.79462.79462,0,0,0,145.881,96.58083Z"/><path class="a" d="M20.17307,21.24684l-.01228-.27011A.961.961,0,0,0,20.17307,21.24684Z"/><path class="a" d="M142.04355,61.33011a.72369.72369,0,0,0,.18189-.09338l-.44-.33288A1.16346,1.16346,0,0,0,142.04355,61.33011Z"/><path class="a" d="M114.1432,30.02815c-.38269-.90643-.83615-1.75564-1.28571-2.63858a37.21438,37.21438,0,0,1,7.701,7.11624c1.92009,2.3324,3.63664,4.57376,6.09362,7.39676l-.44508-.19875c.16181.53719.93441.53173,2.07057,1.94455a12.32351,12.32351,0,0,1,1.81072,3.45415q.2275.62667.45911,1.36028c.14114.49588.25967,1.03967.38737,1.61722a28.96628,28.96628,0,0,1,.57978,4.0045l-.11578.04328c.17233.367.40179.28376.34837,1.16173.03821-.72572.02145-1.4408.0037-2.16466a13.44266,13.44266,0,0,1,2.2552,3.40035.73584.73584,0,0,1-.41388.657c.42129,1.27449.89814,2.53914,1.23541,3.845l-.50161,1.37246c.35949.54694.879.6142,1.31417.96764.4129.35443.76343,1.0119.53611,2.73089.99933-1.42587.903,1.55806,1.44284,1.07322-.122.18812-.28716.59889-.44644.92836.18053.98772.38835,2.42266.6529,3.7302a9.64,9.64,0,0,0,.78214,2.97575s.14407-.50171.37022-1.28941c.21971-.79122.58251-1.88324.85272-3.06115.2973-1.17886.64431-2.454.88371-3.58525.2591-1.13209.55018-2.1359.73829-2.7422.094,1.52257.11092,1.72035.21581,1.44966.08968-.26884.22165-1.00774.34976-1.33474l-.32341-.15411c-.04035-1.8459.68508-1.99017.72134-2.94592a.71322.71322,0,0,0-.19066.09406l.11775.09709a.18972.18972,0,0,1-.29964-.00371c-.15013.05333-.2823-.00662-.3556-.504l.09748.07779a14.569,14.569,0,0,1-.54431-2.62922l.59539-.1624a3.18691,3.18691,0,0,1-.75739-1.93c-.0774-.47812-.13159-1.01911-.17624-1.59578-.069-.56916-.12574-1.17507-.176-1.79141-.055-.61468-.084-1.247-.14738-1.84873-.07215-.6026-.14154-1.18374-.20529-1.71655-.06862-.535-.138-1.02321-.21152-1.43349a5.51,5.51,0,0,0-.27352-.94922c-.06121-2.08637-1.97915-3.8152-2.80121-6.07684-1.73819-3.414-.16689-2.12362-.75232-4.05373-.99387-2.26661-.33844.804-.90185.002-.27449-.97242-.56712-1.94659-.91334-2.89854,1.04766,1.3476.82094.386.83342-.00839-.69442-1.0735-1.39371-2.60972-2.19457-3.81189a8.35784,8.35784,0,0,0-1.16289-1.522,1.49892,1.49892,0,0,0-1.14668-.51145c-.89915-1.50441-1.28532-2.33648-1.577-2.9194a5.447,5.447,0,0,0-.941-1.52774c.18871.52218.72717,1.3824.55132,1.55825-.56926-1.38406-.55464-.38776-.25129.10586a9.254,9.254,0,0,1-1.75028-1.94894c-.717-.89064-1.46877-2.02876-2.29322-3.03062-1.60172-2.0546-3.28728-3.78324-3.87272-3.38654l.15051-.19524c-1.00167.49547-.98082,1.745-2.46381,1.3l-.52364-.925-1.44108-.49411c-.61176-.83525-.07057-.77912.00039-.88a19.94732,19.94732,0,0,1-3.53389-2.138c-1.252-.8187-2.49987-1.79307-3.78168-2.48914.50258,1.265.94045,2.56645,1.33832,3.85878-1.67191-1.7805-5.08786-4.7928-5.90256-4.164-.31407-.47607-.62911-.96569-.95877-1.43729-1.93977-1.7029-2.82428-1.87533-3.40134-1.68759-.57841.16775-.85077.60162-1.683.04025C97.85113,7.02544,97.17718,6.43893,96.474,5.907c.79248.2156,1.567.48816,2.342.75914-1.088-.64568-1.853-1.09957-2.56869-1.52413-.71567-.43143-1.36251-.89754-2.256-1.45092-.00254.00965-.02573.01169-.02807.02115.12438.07174.19944.13832.20256.2008l-.34721-.05566c-.42109.42178-1.75554.44615-3.45338.04871a34.51938,34.51938,0,0,0-3.59635-.51237A15.87035,15.87035,0,0,1,84.68538,3.051c-.38035-.08968-.78078-.19944-1.20657-.33532-.42772-.11717-.88117-.25568-1.3666-.42655l-1.06074.949c-.965-.29506-1.94074-.53222-2.92545-.75241l.023-.81683c1.47089.03022,3.58965.131,5.81854.26221,1.11239.10488,2.25112.2122,3.34791.31563,1.09078.15791,2.14038.31777,3.07849.47607l.139-.35423c-1.11668-.19709-2.32422-.33171-3.43388-.4296a26.24865,26.24865,0,0,1-2.86522-.254C83.54235,1.40434,81.73147.45707,83.14916,0L81.67007.68847C79.7722.53592,78.34263.5638,77.14582.52782,75.94881.47919,74.983.52159,74.00436.49109c-.97886-.02652-1.97019-.08491-3.21943-.097C70.15815.37531,69.46724.35462,68.682.331c-.78644-.0153-1.66626.012-2.67806.01891l.74257.31933a19.65174,19.65174,0,0,1-2.17488.5328c-.63534.118-1.14828.10011-1.42315-.18851-4.76522.66907-9.69125,1.5793-13.04793,1.70446-.1123.37626-.22166.75232-.323,1.14109-.96111.319-2.95878-.45628-2.912.97593-.62525.40246-1.22586.85243-1.83353,1.27528a10.6127,10.6127,0,0,0-1.62219.89239,4.34864,4.34864,0,0,1-1.87254.71187l-.0002-.00049-.009.00185c-.10274.01423-.21132.029-.31972.03636a.239.239,0,0,0,.05245.06308c-1.51205.52989-1.39469.73361-1.34147.93168.05205.2009.05166.41067-1.64968,1.06931-1.35824-.01024-.49029,1.67629-2.05421,2.4294l-2.23611-.20522a6.778,6.778,0,0,0-2.9851,2.11,23.10456,23.10456,0,0,1-3.31379,3.40611c-1.98113,1.06248-3.61791.92868-3.17518-.84434-.70787,2.31145-.15226,1.24889-1.71577,3.55611-.66615-.08324-.53729-.35978-.42242-1.11678-2.202,1.25549-.7414,1.39582-2.04213,2.68273.341,1.06444,1.075,2.55826.72854,3.01572l.69711-.2895a18.74953,18.74953,0,0,1-1.54594,2.52755,14.27728,14.27728,0,0,1-2.17508,2.27419l-.33746-.36892c-.40374.66556-.84043,1.30325-1.21065,1.98763l-.593-.2549c-.58486.94649-1.19506,1.87231-1.74931,2.83265l.38874-.28648c-.17878.34876-.56456,1.09134-1.03949,1.87514-.23725.39214-.49634.79533-.76284,1.16689a8.43289,8.43289,0,0,1-.763,1.00555l-.27566-.2235a10.76855,10.76855,0,0,0-1.83274,2.42569,20.97265,20.97265,0,0,0-1.182,2.70534c-.62482,1.90517-1.13014,3.92974-1.92418,6.206l-.43455-.84963c-1.25646,1.29818.82679.80193-.14932,2.5255L5.30332,49.91c.54839,2.02448-.98159,2.03607-1.72689,3.088l1.25626-.20532L3.9829,54.89144C3.45166,56.03337,3.015,56.32073,2.634,56.25113c-.38307-.0696-.72034-.50269-.95916-.75807.15031.63739.32109,1.27294.48427,1.89941l-1.066.099c.88332,1.49324-.51234,1.19291-.27021,3.508-.41056.112-.52812-.48406-.82289.23511L.387,63.16l.47785,1.90363c-.11073-.74793-.2511-1.50619-.332-2.26221l1.42178.49029c.83556,2.3791-.58368,2.99134-.303,4.64082-.11522-.37937-.24486-.76215-.33766-1.14378.12516,2.64608-.49537,2.72972-.93441,4.20482.30237-.45037.76909-1.12215.88317-.05479.05887.78021-.53378.39625-.71762,1.13054,1.00518.22224,1.41243,2.07877,1.00455,3.76949a.55082.55082,0,0,1-.3708-.163,1.61186,1.61186,0,0,1,.2125,1.40784l-1.111-.417,1.08471,1.42509c-.28151.98646.65816,2.34048-.10313,2.26631l-.26142-.53631c.06667,2.46088.26864,4.92313.58037,7.37572l-.85.24636c.66168.26552.72542,1.27923.80847,2.1743.07837.89514.24427,1.65066.94513,1.3707a6.67256,6.67256,0,0,0,.51252,3.141c.3326,1.04847.487,1.8616-.44585,1.69833.15284.598.32362,1.15431.50626,1.68029.2045.51935.42322,1.0079.64646,1.4791.45736.93879.89483,1.82241,1.41828,2.70252.511.88476.9847,1.81285,1.47422,2.86092a28.95156,28.95156,0,0,1,1.43641,3.65324c-.16162,1.257.49615,3.18317,1.56624,5.13191.262.48991.52812.994.8227,1.4831.30607.48231.61332.96637.91569,1.44293.60123.95584,1.20226,1.86754,1.74443,2.66866a72.975,72.975,0,0,0,6.89935,7.23564c1.17673,1.02087,2.30042,2.09085,3.59335,3.10734.63924.51516,1.27654,1.06278,1.96726,1.59773.69519.52725,1.41651,1.07438,2.17254,1.64773a9.26779,9.26779,0,0,0,2.4872,2.95773,25.96849,25.96849,0,0,0,3.58692,2.3092c2.59072,1.36437,5.27656,2.5221,7.20035,4.14721l1.56118-.10176a7.1502,7.1502,0,0,0,2.24038,1.6376,21.49752,21.49752,0,0,0,2.93091,1.24135,33.5,33.5,0,0,1,6.37532,2.75146,12.15123,12.15123,0,0,1,2.03822.06959.78538.78538,0,0,1-.4094-.84307c1.14417.73985,3.81462.877,3.40542,1.82563l-.34858.02681c-.21133.47246.79443.58583,1.99962.71787,1.2169.08285,2.626.17838,3.28182.74111l-.6137-1.21535,1.19974.30423,1.21084.24866-.68584.123a88.25231,88.25231,0,0,1,13.03509.07467c3.7653.16756,7.6154.17789,12.30809-1.87369-.53709.70067-.08224.46038.55327.2009.6295-.28921,1.43037-.60581,1.63915.01287a3.70623,3.70623,0,0,0,3.54833-.50035c.98548-.64958,1.83352-1.48514,2.73128-2.041a.31591.31591,0,0,1,.06063-.27245c1.14241-.34428,2.30667-.63632,3.429-1.04962-1.40853,2.32,1.9119-2.217.58563-.19271a45.10131,45.10131,0,0,0,14.14317-6.758,104.37481,104.37481,0,0,0,12.90192-10.7902l-.634.05234c.48894-.4831.97979-1.02311,1.46954-1.57677.46535-.575.93753-1.15831,1.39625-1.72532a15.59714,15.59714,0,0,1,2.71724-2.79249,4.54725,4.54725,0,0,0,1.64364-2.72514c.27858-1.00478.36436-1.92364.5422-2.28493a4.47223,4.47223,0,0,1,1.61927-2.38914c.56126-.44957.99445-.51424.71781-.10868,1.06639-2.23094.84783-4.88189,2.80185-7.62145.434-.11425.81041-.73145,1.15-1.57921a27.09481,27.09481,0,0,0,.80691-3.01035c.45111-2.1242.7605-4.11592,1.53992-3.929l-.11483-.07389a12.15691,12.15691,0,0,0,1.2167-2.96152,25.55239,25.55239,0,0,0,.531-3.13277c.16006-1.05206.2008-2.13219.3864-3.20677a20.96354,20.96354,0,0,1,.78856-3.28033,1.1118,1.1118,0,0,1,.18833.27059,68.25682,68.25682,0,0,0-4.14585-9.39034Q142.079,76.06,139.42959,77.126a57.83836,57.83836,0,0,1-4.842,6.40475,63.76584,63.76584,0,0,1-1.51887,8.8202,65.78158,65.78158,0,0,1-2.85955,8.55391,61.57206,61.57206,0,0,1-9.07229,11.08448,58.884,58.884,0,0,1-27.89235,19.266l-2.0739,1.8191c-3.598-.14631-7.3565.57813-11.3228.97486-3.93959.406-8.079.46184-11.61777-.75963l-.28653.98993a2.92781,2.92781,0,0,1-1.761-.54967c-.25694-.22147-.31387-.437-.55055-.56955a66.11164,66.11164,0,0,1-7.07519-1.55744,63.22,63.22,0,0,1-6.87479-2.40044,60.88652,60.88652,0,0,1-6.56052-3.18649,58.83516,58.83516,0,0,1-6.06905-3.99534,56.54744,56.54744,0,0,1-5.47074-4.6731,53.93075,53.93075,0,0,1-4.689-5.294,46.63816,46.63816,0,0,1-6.7036-11.75414,22.28916,22.28916,0,0,0-1.20169-4.02156c-.1314-.38757-.2622-.7725-.38756-1.14164-.10469-.37616-.19456-.73935-.26962-1.07457a4.6363,4.6363,0,0,1-.16084-1.59325,27.90148,27.90148,0,0,1-3.00828-8.10192c-.17568-.71031-.25091-1.43836-.37-2.15812a21.73007,21.73007,0,0,1-.25227-2.16932q-.07545-1.08711-.14992-2.16533-.00585-1.08112-.01169-2.14963l.11755.21321c-.1084-.89025-.14933-1.78342-.1854-2.67942a.17474.17474,0,0,1,.28365-.03441,7.97636,7.97636,0,0,1-.25792-2.56246,16.03748,16.03748,0,0,1,.34935-2.92165,27.71968,27.71968,0,0,1,.74843-2.98c.30373-.97058.56653-1.92.887-2.78525l.06.2314a73.61073,73.61073,0,0,1,2.16963-7.60877l.6911-1.83615c.21971-.61567.45872-1.22265.72815-1.81627l.76578-1.79716.84921-1.75506c.26942-.592.57179-1.16591.88782-1.73254l.9264-1.71079c.6837-1.09993,1.30228-2.243,2.04934-3.30142A58.22837,58.22837,0,0,1,32.13692,34.457,51.07745,51.07745,0,0,1,58.41561,18.13978c2.49207-.28,4.97342-.7991,7.56687-1.16064,1.28376-.247,2.60651-.36037,3.93062-.58027q1.00156-.10528,2.01388-.21172c.67475-.08256,1.35453-.15,2.04095-.17614q1.02965-.063,2.06708-.12662,1.03957-.005,2.086-.00985c.6991-.01666,1.3978.0118,2.09651.06492.6989.04893,1.40209.0773,2.101.15421a33.59384,33.59384,0,0,1,8.20217,1.937c.85916.77142,6.78764,2.32743,12.23811,5.14643A99.58369,99.58369,0,0,1,114.1432,30.02815Z"/><path class="a" d="M133.59219,57.18223l-.02886-.08471C133.15491,57.22745,133.34557,57.3076,133.59219,57.18223Z"/><path class="a" d="M108.96606,10.90327l.15615.09241-.33317-.85048Z"/><path class="a" d="M136.31429,34.97389c-.79853-1.46322-.966-1.44314-.96053-1.16231A5.31019,5.31019,0,0,0,136.31429,34.97389Z"/><path class="a" d="M136.66521,68.1314c.06024.733.27859.43152.50746-.03158-.14134-.74491-.23956-1.26291-.23956-1.26291C136.88453,67.26259,136.713,67.70017,136.66521,68.1314Z"/><path class="a" d="M142.0182,64.24269l.38776.19418C142.23791,63.98049,142.11626,64.02078,142.0182,64.24269Z"/><path class="a" d="M52.45885,67.45414c-3.44986,0-6.1324-4.45582-6.1324-9.19861,0-.19183.14348-.43121.14348-.62307v-.09592c0-.23939-.14348-.4312-.14348-.67063.04757-.76658.38288-1.5331.38288-2.20374v-.2394c-3.545.43121-6.46772,2.34722-9.72576,3.40152h-.287a.61273.61273,0,0,0-.28775.04756c-.7182.33532-1.2937,1.00674-2.20373,1.00674-.09592,0-.23941-.04835-.33532-.04835a5.82916,5.82916,0,0,0-1.00595-1.8684,1.75449,1.75449,0,0,0,.43121-1.19779,1.467,1.467,0,0,0-.86247-1.48474c0-.38367.52715-.28775.57472-.5755-.14349-.4788-.81412-.19106-1.00595-.43121.38289-.62228,1.7725-.2394,1.82085-1.24535h.14348c.4788,0,.81413-.719,1.629-.719a2.19211,2.19211,0,0,1,.81412.28775c.67064-.14349,1.15021-.4788,1.82085-.57472.19183-.19183.2394-.52715.38289-.719a10.31761,10.31761,0,0,0,1.43719-1.10186,6.54591,6.54591,0,0,1,1.438-1.006.81859.81859,0,0,1,.33532-.04756.70515.70515,0,0,0,.33532-.04835c.91-.38289,1.72415-1.72493,2.39556-2.539a13.19762,13.19762,0,0,0,2.05948-2.73089,4.20582,4.20582,0,0,0-1.91593,1.15017c-.62308.4788-1.15022,1.05352-1.77251,1.43718a4.73252,4.73252,0,0,1-.62306,1.19779,25.46626,25.46626,0,0,1-2.635.19105,4.2252,4.2252,0,0,1-2.97028-.86247c-2.348-.33531-3.258-2.15538-4.5993-3.49666v-.19186c0-.38366-.04836-.47958-.09592-.52715-.33532-.38366-.8149-.62306-.8149-1.34126v-.09592a3.94838,3.94838,0,0,1-1.38884-2.87437,1.64189,1.64189,0,0,1,.04757-.47959c-.287-.4312-.38288-.86247-.38288-2.20373,0-1.14944-.47959-2.34723-.47959-3.40152a1.94542,1.94542,0,0,1,.19183-.91c.09592-.04834.14349-.04834.67064-.04834a2.18091,2.18091,0,0,1,1.48554-.52715c1.19778,0,4.21564,1.67736,4.21564,1.67736.28775.09592.4312.47881.67063.67064.3361.23939.76658.38288,1.00673.57472a4.631,4.631,0,0,1,1.5331,2.44313v.09592c-.04834.38366-.62306.62307-.67063,1.15021v.14355c0,.2394.04757.4312.04757.62306a.73443.73443,0,0,1-.2394.52716c.04757.33531.4312.287.57471.57472a1.24634,1.24634,0,0,0-.14348.52714c0,.4788.38288.71821.57471,1.05352.33532.5755.57473,1.34205.91,1.77251a3.82344,3.82344,0,0,0,2.20374,1.0543h.14426c2.29965-.23941,4.88627-3.545,6.22832-4.74279.09514.14348.04758.4788.14349.62228.76658-.19106.76658-.81412,1.05352-1.67659.19183-.67063.95838-1.24535.95838-1.82006v-.04841c0-.33532-.4788-.62307-.4788-.95839v-.09591c0-.38289.28775-.57472.4788-.81412a2.31378,2.31378,0,0,0,.57472.04834c.86247,0,1.629-.28775,2.25208-.28775a1.53,1.53,0,0,1,1.24536.57473c1.67737.04834,1.96436,1.43718,3.11455,2.06025-.04834.28775-.4312.2394-.52715.47879a1.43359,1.43359,0,0,1,.2394.67064c0,.91082-1.2937,1.342-2.06025,1.82085A22.79041,22.79041,0,0,0,51.357,41.87018a8.32712,8.32712,0,0,1-.67063,1.48553,6.27451,6.27451,0,0,1-.57551.287c-1.34126,1.2937-2.39556,2.97107-3.83275,4.16807-1.05352.91082-2.39557,1.5331-3.0662,2.82677a.76048.76048,0,0,0,.47958.2394,1.29315,1.29315,0,0,0,1.006-.67059h.19183c.2394,0,.4788.04836.71821.04836a.60388.60388,0,0,0,.28774-.04836c.287-.04756.43121-.33531.7182-.4312.52716-.14348.91082,0,1.19779-.191.33532-.28774.38366-.86246.76658-1.10187.19184-.14426.4312-.09591.5755-.14426.38289-.19106.38289-.62229.76659-.81412.14347,0,.23939.04757.33531.04757.57472,0,.81412-.33532,1.14944-.52637a.77789.77789,0,0,0,.4312.14349c.38366,0,.719-.23941,1.15022-.23941h.09513a3.60825,3.60825,0,0,1,1.00673,1.24535c.57472.43121,1.82007.62308,2.49071,1.0543.24019.19106.76658.76658.76658,1.05352v.04836c0,.4312-.4788.62228-.4788,1.00594a.56939.56939,0,0,0,.19183.38289c-1.10187.28775-2.29965.52715-2.73089,1.5331-3.64092.14426-4.40747,3.16215-4.40747,5.41421,0,3.40153,1.24535,7.09079,4.40747,7.09079a4.2472,4.2472,0,0,0,1.29371-.19183c-.24019.67064-1.15022.95838-2.10861,1.43718a1.7995,1.7995,0,0,1-.86247.4312ZM46.8536,42.10961a.58652.58652,0,0,0,.4312-.287C47.04465,41.82264,46.8536,41.87021,46.8536,42.10961Z"/><path class="a" d="M65.74523,53.70379c0,.33532-.09514.719-.09514,1.0543,0,2.2513,4.21563,8.76738,5.174,9.19861.67064.28775,1.34127.09592,1.96437.67063a2.7521,2.7521,0,0,1-2.15617.86247c-3.11377,0-9.438-3.258-10.01273-8.33614a45.32661,45.32661,0,0,1-.38367-5.65361c0-1.00595.4312-2.0119.52715-3.0662V48.242c0-.38289-.04835-.7182-.04835-1.10187a15.62991,15.62991,0,0,1,.5755-3.40152,12.79471,12.79471,0,0,0,.95757-3.88035,6.58511,6.58511,0,0,0-.09513-.91,9.00662,9.00662,0,0,1,2.68254-.28775c.76658.86247.86247,1.0543.86247,1.34127,0,.52715-.4312,1.10187-.52715,1.629,0,.33532.09591.81489.09591,1.15022-.04756.52637-.19183,1.05351-.2394,1.5331v.191c0,1.0543.287,2.25208.287,3.49744v.38366c0,.287-.04757.57471-.04757.86246v.14349c0,.2394.19183.4788.19183.719v.287c0,.43121-.04835.86247-.04835,1.2937v.2394c.04835.52715.28776,1.0543.33533,1.58145Zm24.33858,3.3056c0,.47959-.43121.91082-.47959,1.438-.38289.191-.9576.4312-3.40151.4312-.33533,1.38883-.23941,2.97028-.67065,4.21564-.71819,2.10782-1.24535,2.73088-2.15616,2.73088-1.43719,0-4.74279-2.68332-5.74874-4.55173-.91-.43045-1.67659-1.48476-2.73089-1.86842-.57471-.2394-1.19778-.14348-1.72493-.38289-.62229-.23939-.9576-.8149-1.58067-.8149h-.09592c-.09591-.52636-.57471-.86169-.57471-1.38883v-.09592A6.91149,6.91149,0,0,1,71.926,54.90154c.62307-.76658,2.87437-1.10187,4.02456-1.10187h.76658c2.44314.14348,5.22159.19184,6.94653.28775-.09592-1.10187-.38289-2.53905-.38289-3.97624v-.28775c0-.719.14348-1.48553.14348-2.15616a2.1835,2.1835,0,0,0-.28775-1.24536c-1.00594.14348-2.0119.38289-3.01785.57471-1.0543.23941-2.1086.23941-3.06621.52716-1.38961.4312-2.68332,1.19778-3.8811,1.629a2.774,2.774,0,0,1-1.19778-.719V48.2903c0-.38367.19183-.57473.19183-.81491a.288.288,0,0,0-.04757-.191c1.629-1.5331,4.16807-2.06025,6.46772-2.87515.52637-.19105,1.05353-.57472,1.58068-.71821,1.10187-.33531,2.15616-.28775,3.20969-.67063.14426-2.01268.09591-4.264.4312-6.18075a8.37167,8.37167,0,0,0,.28775-1.19778V35.5459c-.04757-.47881-.76658-.81412-.81412-1.197,0-.47958.67064-1.15021,1.10187-1.38961s1.006-.19183,1.29292-.57473c.5755,0,1.10187-.14426,1.58145-.14426a1.20691,1.20691,0,0,1,1.19779.719,2.31443,2.31443,0,0,0,.14348.33531c0,.09592.04834.23941.04834.33532,0,.86247-.67141,1.24535-1.00673,1.86843a26.4098,26.4098,0,0,0-1.67659,6.85139,6.57851,6.57851,0,0,1,1.86843-.38367,2.92186,2.92186,0,0,1,.62307.04834c.19182.04757.4312.19106.71819.287.4312.09592.95839.04835,1.15022.14426.71821.287,1.006,1.14944,1.5331,1.43719a.79822.79822,0,0,0-.19183.52637c0,.33531.19183.62306.19183.95838V45.416c-.76658.2394-1.7725.2394-2.49148.47881a4.78635,4.78635,0,0,0-1.67659-.23941c-1.72493,0-2.20374.43121-2.20374,2.15539,0,1.15022.287,2.63575.287,3.83353v.287c0,.57472-.14349,1.10186-.14349,1.5331v.28775c.28775,1.86842,2.39557,2.10782,3.40153,3.01785.23939,0,.4312-.04757.62307-.04757a.51941.51941,0,0,1,.4312.19183Zm-7.5696,1.00674c-1.05431-.09592-2.29966-.23941-3.354-.23941a3.92292,3.92292,0,0,0-2.15616.43045c2.15616.91082,3.64092,2.53984,6.1324,3.11456.67064-.57472.8149-1.629.8149-2.87437C83.61607,57.96778,83.18484,58.06369,82.51421,58.01613ZM95.25784,34.68428c0,.81412.76658,1.48475.76658,2.68254a2.15426,2.15426,0,0,1-1.72493,2.01268c-1.05353-.04835-3.11378-3.35395-3.83276-6.22832.04835,0,.09592-.04834.14426-.04834a4.23633,4.23633,0,0,1,.67064.14426,1.17584,1.17584,0,0,1,.81412-.24018,4.00726,4.00726,0,0,1,1.48553.38366c.67064.287,1.10187,1.05352,1.67659,1.24535Zm2.68254,1.19779c-1.58067,0-2.10782-2.53984-2.826-3.73763a2.01452,2.01452,0,0,1,1.24536-.38288,3.90137,3.90137,0,0,1,2.77846,1.38961c.04834.52637.14425,1.006.14425,1.48476a1.57461,1.57461,0,0,1-.28774.91,2.05486,2.05486,0,0,1-1.05432.3361Z"/><path class="a" d="M109.70375,49.05692a4.92733,4.92733,0,0,1-1.342,3.0662,2.45806,2.45806,0,0,0-1.19779.67064,3.17026,3.17026,0,0,0-.9576-.28775.54423.54423,0,0,0-.38367.14426,3.42058,3.42058,0,0,0-1.2937-.28775h-.2394c-.76659-.33532-1.10187-1.10187-1.82007-1.48553a23.84765,23.84765,0,0,1-1.00673-2.87437c0-.62229.62306-1.14945.62306-1.82008a1.2763,1.2763,0,0,0-.14348-.57549,1.14831,1.14831,0,0,1,.4312-.14349h.09591c.09514-.67063.76659-.719,1.10187-1.14943a14.32807,14.32807,0,0,1,1.43719-.09592,2.354,2.354,0,0,1,1.67658.52637.68549.68549,0,0,1,.28775-.09514c.19105,0,.38289.09514.62229.09514h.09591c.19184.28775.47959.47958.57472.86247,1.38962.09592,1.10265,1.91676,1.72494,2.77923a2.28768,2.28768,0,0,1-.287.4312Z"/><path class="a" d="M49.10491,88.916a2.25236,2.25236,0,0,1-1.29371.38288,15.746,15.746,0,0,1-3.20969-.86168c-1.05429.33531-2.34721.23939-3.3056.71819-.38367.14349-.62306.67064-.95838.86247a5.60012,5.60012,0,0,1-1.24535.19183,10.38322,10.38322,0,0,0-3.83276,2.82677.55187.55187,0,0,0,.57472.33532c.14349,0,.28775-.04835.4312-.04835a1.09987,1.09987,0,0,1,.52715.14348,8.23477,8.23477,0,0,0,1.24535-.71819c.67064,0,.719-.04835.719-.2394V92.461h.04757c.2394,0,.19184.28775.38367.28775h.04756c.52716-.14349.57473-.38367.81413-.719.04834,0,.19183,0,.19183.09592,0,.04834-.04757.14348-.04757.19183,0,.04756,0,.09591.04757.09591a14.05313,14.05313,0,0,1,4.983-1.19778,6.77076,6.77076,0,0,1,1.916.23939c.33532.09592.52714.33533.8149.43121.86246.28774,1.43718.19183,2.01191.57471.62306.47958.95838,1.15022,1.67659,1.77251a10.14452,10.14452,0,0,1,1.43717,1.15021c.67142.95838.38367,2.82677,1.10187,3.73683-.43045,1.53311-.191,3.68928-.52637,5.3183a10.92757,10.92757,0,0,0-1.58144,3.545c-.95839.28775-1.19779,1.34127-1.67659,2.29966a9.49976,9.49976,0,0,1-1.15021,1.58067,16.36837,16.36837,0,0,0-1.24536,2.77923c-.38289.86246-.52715,1.96437-1.2937,2.53905a1.091,1.091,0,0,1-.14349-.52715,5.38288,5.38288,0,0,1,.67064-1.7725c.2394-.76659.2394-1.67658.43121-2.5874.14348-.62229.57472-1.24535.719-1.86842.14349-.7182-.04834-1.38884.4788-1.86842a3.83338,3.83338,0,0,1-.14348-1.10187,2.96343,2.96343,0,0,1,.38288-1.58068,1.338,1.338,0,0,1-.04756-.4312,9.472,9.472,0,0,1,.38288-1.67657,7.02633,7.02633,0,0,0,.04835-1.00674,13.74822,13.74822,0,0,0-.47959-3.25726c-.287-.8149-2.10782-2.01268-3.11376-2.29965a8.65629,8.65629,0,0,0-2.06026-.52715c-.14349,0-.2394.14348-.38366.14348-.19106,0-.287-.19182-.43045-.23939a2.31667,2.31667,0,0,0-.5755-.04835c-1.24536,0-2.06025.62307-3.25726.8149-.19183,0-.38367.19183-.52715.19183-.52715.04756-1.00595-.09592-1.2937.4312a1.03115,1.03115,0,0,0-.52715-.09592c-1.00595,0-2.10782,1.14944-3.20969,1.14944-1.67659,0-3.11455-2.77846-3.11455-3.11377,0-.38367.19183-.5755.24018-1.0543v-.09592c0-.19105-.04834-.33532-.04834-.4788a4.08412,4.08412,0,0,1,.95838-1.96437c.62307-.4788,1.916-.33531,2.82677-.719a13.41431,13.41431,0,0,0,1.629-1.29292c3.59255-2.73089,4.455-3.59335,4.455-4.21642v-.04744c0-.57551-1.05352-1.438-1.38884-1.91677a3.889,3.889,0,0,1-1.00673-2.20374,5.32357,5.32357,0,0,1-.91-2.77845c-.23939,0-.23939.33531-.38288.33531-.04835,0-.09592,0-.19183-.09591.33532-.91081,1.48475-1.00595,2.06025-1.67659a5.36526,5.36526,0,0,1,1.14944-.14426,9.63353,9.63353,0,0,1,4.40747,1.96437c.4312.33531.67063.76658,1.10187,1.006a10.57458,10.57458,0,0,1,1.58145.57549c.67063.43046,1.05352,1.19779,1.82084,1.5331a10.02727,10.02727,0,0,1,1.197,3.88033,3.28313,3.28313,0,0,1-.09514.95838c-.14427.4788-.8149.76658-.8149,1.34127Z"/><path class="a" d="M80.16542,108.84632A6.15456,6.15456,0,0,1,79.016,111.769c-.86247,1.14944-2.39557,1.43719-4.07216,1.62824-.62307.04835-1.43719.4312-2.01268.4312-.33532,0-.7182-.33532-1.14944-.38289-.33532,0-.62307.09592-.86247.09592-.4312-.04835-.95839-.4312-1.38962-.52715h-.38288c-.2394-.09592-.38367-.38367-.62307-.4788a3.5653,3.5653,0,0,0-1.67659-.38367h-.28776c-.14349-.09591-.04757-.4312-.14349-.52715a.29122.29122,0,0,0-.19183-.04757c-.14348,0-.28775.09592-.38289.09592-.04834,0-.04834,0-.09591-.04835a1.7914,1.7914,0,0,0-.62307-.7182,1.98983,1.98983,0,0,0-.81412.09592c-1.48553-1.15022-3.0662-2.20453-3.0662-4.83949-.04835-.09592-.04835-.14348-.09592-.14348-.09592,0-.19183.09591-.24018.09591-.04757,0-.09514-.04835-.14348-.19183,0-.19183.04834-.2394.14348-.2394.04835,0,.14426.04757.19183.04757a.17794.17794,0,0,0,.14427-.04757v-.09592c0-.14348-.04835-.2394-.04835-.4312v-.09591c.62307-.81413,1.19778-1.72416,1.86842-2.49071,1.96436-1.10265,3.16215-2.92272,4.74279-4.40825-.04756-.23941-.19105-.4312-.2394-.71821H67.5177c-.14348,0-.2394.19184-.28775.19184-.04757,0-.04757-.04835-.09592-.09592V97.444c0-.04834.04835-.04834.09592-.04834.19184,0,.19184-.04757.19184-.09592,0-.4312-.33532-.57472-.67064-.7182-.04835-1.10187-.67064-1.58145-.91-2.44314-1.00673-.04834-1.0543-1.5331-1.5331-2.25209v-.04756c0-.28775.19105-.33532.19105-.52715v-.14427c0-.38288-.38288-.287-.57471-.4788-.81412-1.34127-1.10187-3.545-1.629-5.46177-.38289-1.48476-1.10187-2.77845-1.48475-4.16807a1.55567,1.55567,0,0,1,1.05351-.57471,2.09322,2.09322,0,0,1,.47959.09591,3.69048,3.69048,0,0,1,.76658-.09591,4.65691,4.65691,0,0,1,3.73684,1.916c.2394.52715.287,1.58145.62229,2.29965.38366.91083,1.19778,1.53311,1.19778,2.68332a3.57739,3.57739,0,0,1-.14348.95839v.04757c0,.19183.19182.23939.19182.4312,0,.2394-.19182.28775-.19182.52715v.14348c0,.19184.04757.19184.14348.19184.24018,0,.28775.09591.28775.09591v.38289a7.522,7.522,0,0,0,1.86841,4.5993c1.38963-1.00594,2.77846-2.0119,4.07216-3.11376h.04829c.287,0,.287.23939.52637.287a3.47059,3.47059,0,0,1,1.77328-.38289c.9576,0,2.05947.19183,2.97029.19183h.33531A15.67333,15.67333,0,0,1,81.60258,93.18c-1.05352.38289-.67064,2.29965-1.58067,2.87437,0,.09592.04757.19183.04757.28775,0,.91-.81412,1.2937-1.05352,1.96437v.52637a4.07006,4.07006,0,0,1-.67064.91082c0,.09591.04757.19105.04757.287,0,.67142-.4788.91082-.67064,1.34206a18.01878,18.01878,0,0,0-.4788,2.87436,3.41569,3.41569,0,0,0,.04757.67064c-.57472.43119-.57472,1.48553-.76658,2.29965-1.67659,0-3.20969,0-4.31155-.76659a8.15832,8.15832,0,0,1-1.38962-2.06025,7.38,7.38,0,0,1-1.24536-2.10782.17558.17558,0,0,1,.14349-.04757c.09591,0,.19182.19105.33532.19105h.04756c-.04756-.38288-.33531-.52714-.52637-.76658H69.482c-1.7725,0-1.86842,1.629-2.44391,2.87438.28775,1.00673.4312,2.1086,1.48553,2.348.09592.14348.09592.4312.19183.57472h.09591c.7182,0,.81412.67063,1.34127.91081a.67635.67635,0,0,1,.28775-.09591c.2394,0,.4788.19105.67064.2394v.09591c0,.47881.4788.71821.9576.71821h.19184c.33532.2394.33532.8149.86246.8149a.29051.29051,0,0,0,.14348-.28775c0-.14349-.04756-.33533-.04756-.4788a.36353.36353,0,0,1,.04756-.24019,3.32756,3.32756,0,0,1,.62307-.09514,14.94476,14.94476,0,0,1,2.20374.43119v.14349c0,.14348-.04757.28775-.04757.43119a.17638.17638,0,0,0,.04757.14349,5.77709,5.77709,0,0,0,1.5331.28775,2.30758,2.30758,0,0,0,.57472-.04835,2.29592,2.29592,0,0,0,.67064-1.14944c.52715-.09591.95839-.62306,1.2937-.62306ZM77.05166,98.354c0-1.10187.71819-1.48553.86246-2.44313a3.59579,3.59579,0,0,0-.719-.04835c-2.01191,0-3.30561,1.19778-4.69523,2.1086.09592,1.24536.91083,1.77251,1.0543,2.97029.71821.09591.43121,1.19779,1.10188,1.34126a24.82754,24.82754,0,0,1,2.39557-3.73683Zm-1.629,11.49827a.2876.2876,0,0,0-.19184.04834c0,.287.14427.3829.4312.3829.04835-.04758,0-.14348.09592-.14348,0-.19185-.14348-.28776-.33532-.28776Zm2.635-.4312c-.38288,0-.4788.4312-.86246.62307-.04757-.33532-.33532-.4312-.67064-.47959a1.57689,1.57689,0,0,1,1.10187-.38288c.28775,0,.52715.04757.57472.28775-.0476,0-.09516-.04839-.14352-.04839ZM85.67554,90.641c-.8149,0-1.19778-.38367-1.96436-.38367-1.19779-1.14944-2.92273-1.82006-3.30639-3.83275V86.377c0-.24018.24018-.19183.4312-.28774a1.66291,1.66291,0,0,1-.04757-.43121.56216.56216,0,0,1,.23941-.52715,2.6509,2.6509,0,0,0,.86247.09592c.67063,0,1.24535-.14349,1.82085-.14349h.14348c1.38961.14349,2.10782,1.05353,3.0662,1.629v.19183c0,.76578.67064.86169.91,1.34127-.4788,1.006-1.72415,1.19778-2.0119,2.39557Zm2.826-8.62389a4.07119,4.07119,0,0,1,3.54578,1.96437,15.12521,15.12521,0,0,0-.95838,2.0119,2.01043,2.01043,0,0,1-1.00595.28775c-1.53311,0-3.20969-1.67736-3.97624-2.73089a1.18141,1.18141,0,0,0,.23939-.8149V82.4a1.94474,1.94474,0,0,1,.91-.19106,1.62858,1.62858,0,0,1,.67064.09592c.23939,0,.23939-.24018.4312-.28775Z"/><path class="a" d="M120.36762,102.71392c0,4.5993-6.1324,11.92949-8.43206,11.92949-.33531,0-.7182-.14348-1.14943-.19183a5.86991,5.86991,0,0,1-3.11455-1.006c-.23941-.19183-.47881-.57472-.71821-.8149-.719-.62229-1.5331-1.24535-1.5331-2.29965v-.09515c-1.10187-1.72494-1.0543-4.64765-1.24535-6.75551a4.73872,4.73872,0,0,0,.52637-1.96437,2.71034,2.71034,0,0,0-.14349-.86246c-.28774,0-.57471-.04757-.81411-.04757a6.2543,6.2543,0,0,0-1.72493.23941c-.43121.09591-.8149.4312-1.24536.57471-.33609.09591-.719.09591-1.00673.19183-1.14944.4312-1.96437,1.629-2.82678,2.68254a32.08571,32.08571,0,0,0-2.44313,2.97029c-.43121.67142-.38289,1.58145-.86247,2.1086a.67323.67323,0,0,1,.09591.287c0,.38367-.38289.67063-.4788,1.15022v.2394c0,.57472.2394,1.14943.2394,1.67658v.19184c-.14349.81412-.95839.91-1.34127,1.5331-.38367-.09592-.67063-.4312-.95838-.4312a.428.428,0,0,0-.2394.04835c-.52715-.62307-1.2937-.91082-1.67736-1.5331a13.00967,13.00967,0,0,1-1.29293-4.12051c0-1.0543.52715-1.2937,1.00595-2.0119.81412-1.2937.95839-2.97107,1.5331-4.50416.14349-.43121.43121-.8617.62307-1.29293A9.9296,9.9296,0,0,1,91.67,99.16888c.19183-.38366.52715-.67141.719-1.00673.62306-1.14944,1.0543-2.39557,1.72493-3.49744,2.826-4.455,6.94652-9.15028,9.72576-11.067.09513-.191.04756-.57471.19105-.71819a3.78761,3.78761,0,0,0,1.48553-1.38963h.04757c.62307,0,1.15022-.71819,2.15617-.71819h.2394a1.121,1.121,0,0,1,.8149.33531,1.24571,1.24571,0,0,1,.52637-.14427c.67141,0,1.15021.62308,1.77328.719a2.15982,2.15982,0,0,0,.7182,1.24535,3.59117,3.59117,0,0,1,.09592,1.0543c0,.43121-.04757.95838-.04757,1.38962a2.43809,2.43809,0,0,0,.33532,1.5331,2.29683,2.29683,0,0,0-.38365,1.05352V88.197c-.71821.81489-1.0543,2.01268-1.72494,2.82677H109.972c-.86246,0-1.19778,1.006-1.86919,1.10188h-.09514a19.78155,19.78155,0,0,1-2.44392-.71821,10.61071,10.61071,0,0,1-2.39557,1.43719c-1.10186.52714-4.50339,4.02381-4.69522,4.264-.4788.62229-.76578,1.38884-1.24535,2.06025a7.24209,7.24209,0,0,0-1.2937,1.86842,7.89467,7.89467,0,0,0,1.86842-1.15021,23.974,23.974,0,0,1,4.45582-1.96437,11.103,11.103,0,0,0,2.34722-.81412c.719-.47957.76733-1.5331,2.06024-1.5331.14426,0,.28775.04757.4312.04757a3.673,3.673,0,0,1,1.82085,1.006h.33531a1.59951,1.59951,0,0,1,.719.14425,3.06551,3.06551,0,0,1,.33531,1.34127c0,1.10187-.67141,1.96437-1.24613,3.0662a9.415,9.415,0,0,0-.81412,4.02455c0,5.31751,2.92194,6.32346,3.83276,6.32346a5.35753,5.35753,0,0,0,2.77845-1.43718c2.29965-2.06026,3.68927-5.07811,5.50934-7.52125Z"/><path class="b" d="M52.45885,69.45414c-3.44986,0-6.1324-4.45582-6.1324-9.19861,0-.19183.14348-.43121.14348-.62307v-.09592c0-.23939-.14348-.4312-.14348-.67063.04757-.76658.38288-1.5331.38288-2.20374v-.2394c-3.545.43121-6.46772,2.34722-9.72576,3.40152h-.287a.61273.61273,0,0,0-.28775.04756c-.7182.33532-1.2937,1.00674-2.20373,1.00674-.09592,0-.23941-.04835-.33532-.04835a5.82916,5.82916,0,0,0-1.00595-1.8684,1.75449,1.75449,0,0,0,.43121-1.19779,1.467,1.467,0,0,0-.86247-1.48474c0-.38367.52715-.28775.57472-.5755-.14349-.4788-.81412-.19106-1.00595-.43121.38289-.62228,1.7725-.2394,1.82085-1.24535h.14348c.4788,0,.81413-.719,1.629-.719a2.19211,2.19211,0,0,1,.81412.28775c.67064-.14349,1.15021-.4788,1.82085-.57472.19183-.19183.2394-.52715.38289-.719a10.31761,10.31761,0,0,0,1.43719-1.10186,6.54591,6.54591,0,0,1,1.438-1.006.81859.81859,0,0,1,.33532-.04756.70515.70515,0,0,0,.33532-.04835c.91-.38289,1.72415-1.72493,2.39556-2.539a13.19762,13.19762,0,0,0,2.05948-2.73089,4.20582,4.20582,0,0,0-1.91593,1.15017c-.62308.4788-1.15022,1.05352-1.77251,1.43718a4.73252,4.73252,0,0,1-.62306,1.19779,25.46626,25.46626,0,0,1-2.635.19105,4.2252,4.2252,0,0,1-2.97028-.86247c-2.348-.33531-3.258-2.15538-4.5993-3.49666v-.19186c0-.38366-.04836-.47958-.09592-.52715-.33532-.38366-.8149-.62306-.8149-1.34126v-.09592a3.94838,3.94838,0,0,1-1.38884-2.87437,1.64189,1.64189,0,0,1,.04757-.47959c-.287-.4312-.38288-.86247-.38288-2.20373,0-1.14944-.47959-2.34723-.47959-3.40152a1.94542,1.94542,0,0,1,.19183-.91c.09592-.04834.14349-.04834.67064-.04834a2.18091,2.18091,0,0,1,1.48554-.52715c1.19778,0,4.21564,1.67736,4.21564,1.67736.28775.09592.4312.47881.67063.67064.3361.23939.76658.38288,1.00673.57472a4.631,4.631,0,0,1,1.5331,2.44313v.09592c-.04834.38366-.62306.62307-.67063,1.15021v.14355c0,.2394.04757.4312.04757.62306a.73443.73443,0,0,1-.2394.52716c.04757.33531.4312.287.57471.57472a1.24634,1.24634,0,0,0-.14348.52714c0,.4788.38288.71821.57471,1.05352.33532.5755.57473,1.34205.91,1.77251a3.82344,3.82344,0,0,0,2.20374,1.0543h.14426c2.29965-.23941,4.88627-3.545,6.22832-4.74279.09514.14348.04758.4788.14349.62228.76658-.19106.76658-.81412,1.05352-1.67659.19183-.67063.95838-1.24535.95838-1.82006v-.04841c0-.33532-.4788-.62307-.4788-.95839v-.09591c0-.38289.28775-.57472.4788-.81412a2.31378,2.31378,0,0,0,.57472.04834c.86247,0,1.629-.28775,2.25208-.28775a1.53,1.53,0,0,1,1.24536.57473c1.67737.04834,1.96436,1.43718,3.11455,2.06025-.04834.28775-.4312.2394-.52715.47879a1.43359,1.43359,0,0,1,.2394.67064c0,.91082-1.2937,1.342-2.06025,1.82085A22.79041,22.79041,0,0,0,51.357,43.87018a8.32712,8.32712,0,0,1-.67063,1.48553,6.27451,6.27451,0,0,1-.57551.287c-1.34126,1.2937-2.39556,2.97107-3.83275,4.16807-1.05352.91082-2.39557,1.5331-3.0662,2.82677a.76048.76048,0,0,0,.47958.2394,1.29315,1.29315,0,0,0,1.006-.67059h.19183c.2394,0,.4788.04836.71821.04836a.60388.60388,0,0,0,.28774-.04836c.287-.04756.43121-.33531.7182-.4312.52716-.14348.91082,0,1.19779-.191.33532-.28774.38366-.86246.76658-1.10187.19184-.14426.4312-.09591.5755-.14426.38289-.19106.38289-.62229.76659-.81412.14347,0,.23939.04757.33531.04757.57472,0,.81412-.33532,1.14944-.52637a.77789.77789,0,0,0,.4312.14349c.38366,0,.719-.23941,1.15022-.23941h.09513a3.60825,3.60825,0,0,1,1.00673,1.24535c.57472.43121,1.82007.62308,2.49071,1.0543.24019.19106.76658.76658.76658,1.05352v.04836c0,.4312-.4788.62228-.4788,1.00594a.56939.56939,0,0,0,.19183.38289c-1.10187.28775-2.29965.52715-2.73089,1.5331-3.64092.14426-4.40747,3.16215-4.40747,5.41421,0,3.40153,1.24535,7.09079,4.40747,7.09079a4.2472,4.2472,0,0,0,1.29371-.19183c-.24019.67064-1.15022.95838-2.10861,1.43718a1.7995,1.7995,0,0,1-.86247.4312ZM46.8536,44.10961a.58652.58652,0,0,0,.4312-.287C47.04465,43.82264,46.8536,43.87021,46.8536,44.10961Z"/><path class="b" d="M65.74523,55.70379c0,.33532-.09514.719-.09514,1.0543,0,2.2513,4.21563,8.76738,5.174,9.19861.67064.28775,1.34127.09592,1.96437.67063a2.7521,2.7521,0,0,1-2.15617.86247c-3.11377,0-9.438-3.258-10.01273-8.33614a45.32661,45.32661,0,0,1-.38367-5.65361c0-1.00595.4312-2.0119.52715-3.0662V50.242c0-.38289-.04835-.7182-.04835-1.10187a15.62991,15.62991,0,0,1,.5755-3.40152,12.79471,12.79471,0,0,0,.95757-3.88035,6.58511,6.58511,0,0,0-.09513-.91,9.00662,9.00662,0,0,1,2.68254-.28775c.76658.86247.86247,1.0543.86247,1.34127,0,.52715-.4312,1.10187-.52715,1.629,0,.33532.09591.81489.09591,1.15022-.04756.52637-.19183,1.05351-.2394,1.5331v.191c0,1.0543.287,2.25208.287,3.49744v.38366c0,.287-.04757.57471-.04757.86246v.14349c0,.2394.19183.4788.19183.719v.287c0,.43121-.04835.86247-.04835,1.2937v.2394c.04835.52715.28776,1.0543.33533,1.58145Zm24.33858,3.3056c0,.47959-.43121.91082-.47959,1.438-.38289.191-.9576.4312-3.40151.4312-.33533,1.38883-.23941,2.97028-.67065,4.21564-.71819,2.10782-1.24535,2.73088-2.15616,2.73088-1.43719,0-4.74279-2.68332-5.74874-4.55173-.91-.43045-1.67659-1.48476-2.73089-1.86842-.57471-.2394-1.19778-.14348-1.72493-.38289-.62229-.23939-.9576-.8149-1.58067-.8149h-.09592c-.09591-.52636-.57471-.86169-.57471-1.38883v-.09592A6.91149,6.91149,0,0,1,71.926,56.90154c.62307-.76658,2.87437-1.10187,4.02456-1.10187h.76658c2.44314.14348,5.22159.19184,6.94653.28775-.09592-1.10187-.38289-2.53905-.38289-3.97624v-.28775c0-.719.14348-1.48553.14348-2.15616a2.1835,2.1835,0,0,0-.28775-1.24536c-1.00594.14348-2.0119.38289-3.01785.57471-1.0543.23941-2.1086.23941-3.06621.52716-1.38961.4312-2.68332,1.19778-3.8811,1.629a2.774,2.774,0,0,1-1.19778-.719V50.2903c0-.38367.19183-.57473.19183-.81491a.288.288,0,0,0-.04757-.191c1.629-1.5331,4.16807-2.06025,6.46772-2.87515.52637-.19105,1.05353-.57472,1.58068-.71821,1.10187-.33531,2.15616-.28775,3.20969-.67063.14426-2.01268.09591-4.264.4312-6.18075a8.37167,8.37167,0,0,0,.28775-1.19778V37.5459c-.04757-.47881-.76658-.81412-.81412-1.197,0-.47958.67064-1.15021,1.10187-1.38961s1.006-.19183,1.29292-.57473c.5755,0,1.10187-.14426,1.58145-.14426a1.20691,1.20691,0,0,1,1.19779.719,2.31443,2.31443,0,0,0,.14348.33531c0,.09592.04834.23941.04834.33532,0,.86247-.67141,1.24535-1.00673,1.86843a26.4098,26.4098,0,0,0-1.67659,6.85139,6.57851,6.57851,0,0,1,1.86843-.38367,2.92186,2.92186,0,0,1,.62307.04834c.19182.04757.4312.19106.71819.287.4312.09592.95839.04835,1.15022.14426.71821.287,1.006,1.14944,1.5331,1.43719a.79822.79822,0,0,0-.19183.52637c0,.33531.19183.62306.19183.95838V47.416c-.76658.2394-1.7725.2394-2.49148.47881a4.78635,4.78635,0,0,0-1.67659-.23941c-1.72493,0-2.20374.43121-2.20374,2.15539,0,1.15022.287,2.63575.287,3.83353v.287c0,.57472-.14349,1.10186-.14349,1.5331v.28775c.28775,1.86842,2.39557,2.10782,3.40153,3.01785.23939,0,.4312-.04757.62307-.04757a.51941.51941,0,0,1,.4312.19183Zm-7.5696,1.00674c-1.05431-.09592-2.29966-.23941-3.354-.23941a3.92292,3.92292,0,0,0-2.15616.43045c2.15616.91082,3.64092,2.53984,6.1324,3.11456.67064-.57472.8149-1.629.8149-2.87437C83.61607,59.96778,83.18484,60.06369,82.51421,60.01613ZM95.25784,36.68428c0,.81412.76658,1.48475.76658,2.68254a2.15426,2.15426,0,0,1-1.72493,2.01268c-1.05353-.04835-3.11378-3.35395-3.83276-6.22832.04835,0,.09592-.04834.14426-.04834a4.23633,4.23633,0,0,1,.67064.14426,1.17584,1.17584,0,0,1,.81412-.24018,4.00726,4.00726,0,0,1,1.48553.38366c.67064.287,1.10187,1.05352,1.67659,1.24535Zm2.68254,1.19779c-1.58067,0-2.10782-2.53984-2.826-3.73763a2.01452,2.01452,0,0,1,1.24536-.38288,3.90137,3.90137,0,0,1,2.77846,1.38961c.04834.52637.14425,1.006.14425,1.48476a1.57461,1.57461,0,0,1-.28774.91,2.05486,2.05486,0,0,1-1.05432.3361Z"/><path class="b" d="M109.70375,51.05692a4.92733,4.92733,0,0,1-1.342,3.0662,2.45806,2.45806,0,0,0-1.19779.67064,3.17026,3.17026,0,0,0-.9576-.28775.54423.54423,0,0,0-.38367.14426,3.42058,3.42058,0,0,0-1.2937-.28775h-.2394c-.76659-.33532-1.10187-1.10187-1.82007-1.48553a23.84765,23.84765,0,0,1-1.00673-2.87437c0-.62229.62306-1.14945.62306-1.82008a1.2763,1.2763,0,0,0-.14348-.57549,1.14831,1.14831,0,0,1,.4312-.14349h.09591c.09514-.67063.76659-.719,1.10187-1.14943a14.32807,14.32807,0,0,1,1.43719-.09592,2.354,2.354,0,0,1,1.67658.52637.68549.68549,0,0,1,.28775-.09514c.19105,0,.38289.09514.62229.09514h.09591c.19184.28775.47959.47958.57472.86247,1.38962.09592,1.10265,1.91676,1.72494,2.77923a2.28768,2.28768,0,0,1-.287.4312Z"/><path class="b" d="M49.10491,90.916a2.25236,2.25236,0,0,1-1.29371.38288,15.746,15.746,0,0,1-3.20969-.86168c-1.05429.33531-2.34721.23939-3.3056.71819-.38367.14349-.62306.67064-.95838.86247a5.60012,5.60012,0,0,1-1.24535.19183,10.38322,10.38322,0,0,0-3.83276,2.82677.55187.55187,0,0,0,.57472.33532c.14349,0,.28775-.04835.4312-.04835a1.09987,1.09987,0,0,1,.52715.14348,8.23477,8.23477,0,0,0,1.24535-.71819c.67064,0,.719-.04835.719-.2394V94.461h.04757c.2394,0,.19184.28775.38367.28775h.04756c.52716-.14349.57473-.38367.81413-.719.04834,0,.19183,0,.19183.09592,0,.04834-.04757.14348-.04757.19183,0,.04756,0,.09591.04757.09591a14.05313,14.05313,0,0,1,4.983-1.19778,6.77076,6.77076,0,0,1,1.916.23939c.33532.09592.52714.33533.8149.43121.86246.28774,1.43718.19183,2.01191.57471.62306.47958.95838,1.15022,1.67659,1.77251a10.14452,10.14452,0,0,1,1.43717,1.15021c.67142.95838.38367,2.82677,1.10187,3.73683-.43045,1.53311-.191,3.68928-.52637,5.3183a10.92757,10.92757,0,0,0-1.58144,3.545c-.95839.28775-1.19779,1.34127-1.67659,2.29966a9.49976,9.49976,0,0,1-1.15021,1.58067,16.36837,16.36837,0,0,0-1.24536,2.77923c-.38289.86246-.52715,1.96437-1.2937,2.53905a1.091,1.091,0,0,1-.14349-.52715,5.38288,5.38288,0,0,1,.67064-1.7725c.2394-.76659.2394-1.67658.43121-2.5874.14348-.62229.57472-1.24535.719-1.86842.14349-.7182-.04834-1.38884.4788-1.86842a3.83338,3.83338,0,0,1-.14348-1.10187,2.96343,2.96343,0,0,1,.38288-1.58068,1.338,1.338,0,0,1-.04756-.4312,9.472,9.472,0,0,1,.38288-1.67657,7.02633,7.02633,0,0,0,.04835-1.00674,13.74822,13.74822,0,0,0-.47959-3.25726c-.287-.8149-2.10782-2.01268-3.11376-2.29965a8.65629,8.65629,0,0,0-2.06026-.52715c-.14349,0-.2394.14348-.38366.14348-.19106,0-.287-.19182-.43045-.23939a2.31667,2.31667,0,0,0-.5755-.04835c-1.24536,0-2.06025.62307-3.25726.8149-.19183,0-.38367.19183-.52715.19183-.52715.04756-1.00595-.09592-1.2937.4312a1.03115,1.03115,0,0,0-.52715-.09592c-1.00595,0-2.10782,1.14944-3.20969,1.14944-1.67659,0-3.11455-2.77846-3.11455-3.11377,0-.38367.19183-.5755.24018-1.0543v-.09592c0-.19105-.04834-.33532-.04834-.4788a4.08412,4.08412,0,0,1,.95838-1.96437c.62307-.4788,1.916-.33531,2.82677-.719a13.41431,13.41431,0,0,0,1.629-1.29292c3.59255-2.73089,4.455-3.59335,4.455-4.21642v-.04744c0-.57551-1.05352-1.438-1.38884-1.91677a3.889,3.889,0,0,1-1.00673-2.20374,5.32357,5.32357,0,0,1-.91-2.77845c-.23939,0-.23939.33531-.38288.33531-.04835,0-.09592,0-.19183-.09591.33532-.91081,1.48475-1.00595,2.06025-1.67659a5.36526,5.36526,0,0,1,1.14944-.14426,9.63353,9.63353,0,0,1,4.40747,1.96437c.4312.33531.67063.76658,1.10187,1.006a10.57458,10.57458,0,0,1,1.58145.57549c.67063.43046,1.05352,1.19779,1.82084,1.5331a10.02727,10.02727,0,0,1,1.197,3.88033,3.28313,3.28313,0,0,1-.09514.95838c-.14427.4788-.8149.76658-.8149,1.34127Z"/><path class="b" d="M80.16542,110.84632A6.15456,6.15456,0,0,1,79.016,113.769c-.86247,1.14944-2.39557,1.43719-4.07216,1.62824-.62307.04835-1.43719.4312-2.01268.4312-.33532,0-.7182-.33532-1.14944-.38289-.33532,0-.62307.09592-.86247.09592-.4312-.04835-.95839-.4312-1.38962-.52715h-.38288c-.2394-.09592-.38367-.38367-.62307-.4788a3.5653,3.5653,0,0,0-1.67659-.38367h-.28776c-.14349-.09591-.04757-.4312-.14349-.52715a.29122.29122,0,0,0-.19183-.04757c-.14348,0-.28775.09592-.38289.09592-.04834,0-.04834,0-.09591-.04835a1.7914,1.7914,0,0,0-.62307-.7182,1.98983,1.98983,0,0,0-.81412.09592c-1.48553-1.15022-3.0662-2.20453-3.0662-4.83949-.04835-.09592-.04835-.14348-.09592-.14348-.09592,0-.19183.09591-.24018.09591-.04757,0-.09514-.04835-.14348-.19183,0-.19183.04834-.2394.14348-.2394.04835,0,.14426.04757.19183.04757a.17794.17794,0,0,0,.14427-.04757v-.09592c0-.14348-.04835-.2394-.04835-.4312v-.09591c.62307-.81413,1.19778-1.72416,1.86842-2.49071,1.96436-1.10265,3.16215-2.92272,4.74279-4.40825-.04756-.23941-.19105-.4312-.2394-.71821H67.5177c-.14348,0-.2394.19184-.28775.19184-.04757,0-.04757-.04835-.09592-.09592V99.444c0-.04834.04835-.04834.09592-.04834.19184,0,.19184-.04757.19184-.09592,0-.4312-.33532-.57472-.67064-.7182-.04835-1.10187-.67064-1.58145-.91-2.44314-1.00673-.04834-1.0543-1.5331-1.5331-2.25209v-.04756c0-.28775.19105-.33532.19105-.52715v-.14427c0-.38288-.38288-.287-.57471-.4788-.81412-1.34127-1.10187-3.545-1.629-5.46177-.38289-1.48476-1.10187-2.77845-1.48475-4.16807a1.55567,1.55567,0,0,1,1.05351-.57471,2.09322,2.09322,0,0,1,.47959.09591,3.69048,3.69048,0,0,1,.76658-.09591,4.65691,4.65691,0,0,1,3.73684,1.916c.2394.52715.287,1.58145.62229,2.29965.38366.91083,1.19778,1.53311,1.19778,2.68332a3.57739,3.57739,0,0,1-.14348.95839v.04757c0,.19183.19182.23939.19182.4312,0,.2394-.19182.28775-.19182.52715v.14348c0,.19184.04757.19184.14348.19184.24018,0,.28775.09591.28775.09591v.38289a7.522,7.522,0,0,0,1.86841,4.5993c1.38963-1.00594,2.77846-2.0119,4.07216-3.11376h.04829c.287,0,.287.23939.52637.287a3.47059,3.47059,0,0,1,1.77328-.38289c.9576,0,2.05947.19183,2.97029.19183h.33531A15.67333,15.67333,0,0,1,81.60258,95.18c-1.05352.38289-.67064,2.29965-1.58067,2.87437,0,.09592.04757.19183.04757.28775,0,.91-.81412,1.2937-1.05352,1.96437v.52637a4.07006,4.07006,0,0,1-.67064.91082c0,.09591.04757.19105.04757.287,0,.67142-.4788.91082-.67064,1.34206a18.01878,18.01878,0,0,0-.4788,2.87436,3.41569,3.41569,0,0,0,.04757.67064c-.57472.43119-.57472,1.48553-.76658,2.29965-1.67659,0-3.20969,0-4.31155-.76659a8.15832,8.15832,0,0,1-1.38962-2.06025,7.38,7.38,0,0,1-1.24536-2.10782.17558.17558,0,0,1,.14349-.04757c.09591,0,.19182.19105.33532.19105h.04756c-.04756-.38288-.33531-.52714-.52637-.76658H69.482c-1.7725,0-1.86842,1.629-2.44391,2.87438.28775,1.00673.4312,2.1086,1.48553,2.348.09592.14348.09592.4312.19183.57472h.09591c.7182,0,.81412.67063,1.34127.91081a.67635.67635,0,0,1,.28775-.09591c.2394,0,.4788.19105.67064.2394v.09591c0,.47881.4788.71821.9576.71821h.19184c.33532.2394.33532.8149.86246.8149a.29051.29051,0,0,0,.14348-.28775c0-.14349-.04756-.33533-.04756-.4788a.36353.36353,0,0,1,.04756-.24019,3.32756,3.32756,0,0,1,.62307-.09514,14.94476,14.94476,0,0,1,2.20374.43119v.14349c0,.14348-.04757.28775-.04757.43119a.17638.17638,0,0,0,.04757.14349,5.77709,5.77709,0,0,0,1.5331.28775,2.30758,2.30758,0,0,0,.57472-.04835,2.29592,2.29592,0,0,0,.67064-1.14944c.52715-.09591.95839-.62306,1.2937-.62306ZM77.05166,100.354c0-1.10187.71819-1.48553.86246-2.44313a3.59579,3.59579,0,0,0-.719-.04835c-2.01191,0-3.30561,1.19778-4.69523,2.1086.09592,1.24536.91083,1.77251,1.0543,2.97029.71821.09591.43121,1.19779,1.10188,1.34126a24.82754,24.82754,0,0,1,2.39557-3.73683Zm-1.629,11.49827a.2876.2876,0,0,0-.19184.04834c0,.287.14427.3829.4312.3829.04835-.04758,0-.14348.09592-.14348,0-.19185-.14348-.28776-.33532-.28776Zm2.635-.4312c-.38288,0-.4788.4312-.86246.62307-.04757-.33532-.33532-.4312-.67064-.47959a1.57689,1.57689,0,0,1,1.10187-.38288c.28775,0,.52715.04757.57472.28775-.0476,0-.09516-.04839-.14352-.04839ZM85.67554,92.641c-.8149,0-1.19778-.38367-1.96436-.38367-1.19779-1.14944-2.92273-1.82006-3.30639-3.83275V88.377c0-.24018.24018-.19183.4312-.28774a1.66291,1.66291,0,0,1-.04757-.43121.56216.56216,0,0,1,.23941-.52715,2.6509,2.6509,0,0,0,.86247.09592c.67063,0,1.24535-.14349,1.82085-.14349h.14348c1.38961.14349,2.10782,1.05353,3.0662,1.629v.19183c0,.76578.67064.86169.91,1.34127-.4788,1.006-1.72415,1.19778-2.0119,2.39557Zm2.826-8.62389a4.07119,4.07119,0,0,1,3.54578,1.96437,15.12521,15.12521,0,0,0-.95838,2.0119,2.01043,2.01043,0,0,1-1.00595.28775c-1.53311,0-3.20969-1.67736-3.97624-2.73089a1.18141,1.18141,0,0,0,.23939-.8149V84.4a1.94474,1.94474,0,0,1,.91-.19106,1.62858,1.62858,0,0,1,.67064.09592c.23939,0,.23939-.24018.4312-.28775Z"/><path class="b" d="M120.36762,104.71392c0,4.5993-6.1324,11.92949-8.43206,11.92949-.33531,0-.7182-.14348-1.14943-.19183a5.86991,5.86991,0,0,1-3.11455-1.006c-.23941-.19183-.47881-.57472-.71821-.8149-.719-.62229-1.5331-1.24535-1.5331-2.29965v-.09515c-1.10187-1.72494-1.0543-4.64765-1.24535-6.75551a4.73872,4.73872,0,0,0,.52637-1.96437,2.71034,2.71034,0,0,0-.14349-.86246c-.28774,0-.57471-.04757-.81411-.04757a6.2543,6.2543,0,0,0-1.72493.23941c-.43121.09591-.8149.4312-1.24536.57471-.33609.09591-.719.09591-1.00673.19183-1.14944.4312-1.96437,1.629-2.82678,2.68254a32.08571,32.08571,0,0,0-2.44313,2.97029c-.43121.67142-.38289,1.58145-.86247,2.1086a.67323.67323,0,0,1,.09591.287c0,.38367-.38289.67063-.4788,1.15022v.2394c0,.57472.2394,1.14943.2394,1.67658v.19184c-.14349.81412-.95839.91-1.34127,1.5331-.38367-.09592-.67063-.4312-.95838-.4312a.428.428,0,0,0-.2394.04835c-.52715-.62307-1.2937-.91082-1.67736-1.5331a13.00967,13.00967,0,0,1-1.29293-4.12051c0-1.0543.52715-1.2937,1.00595-2.0119.81412-1.2937.95839-2.97107,1.5331-4.50416.14349-.43121.43121-.8617.62307-1.29293a9.9296,9.9296,0,0,1,.52637-1.43718c.19183-.38366.52715-.67141.719-1.00673.62306-1.14944,1.0543-2.39557,1.72493-3.49744,2.826-4.455,6.94652-9.15028,9.72576-11.067.09513-.191.04756-.57471.19105-.71819a3.78761,3.78761,0,0,0,1.48553-1.38963h.04757c.62307,0,1.15022-.71819,2.15617-.71819h.2394a1.121,1.121,0,0,1,.8149.33531,1.24571,1.24571,0,0,1,.52637-.14427c.67141,0,1.15021.62308,1.77328.719a2.15982,2.15982,0,0,0,.7182,1.24535,3.59117,3.59117,0,0,1,.09592,1.0543c0,.43121-.04757.95838-.04757,1.38962a2.43809,2.43809,0,0,0,.33532,1.5331,2.29683,2.29683,0,0,0-.38365,1.05352V90.197c-.71821.81489-1.0543,2.01268-1.72494,2.82677H109.972c-.86246,0-1.19778,1.006-1.86919,1.10188h-.09514a19.78155,19.78155,0,0,1-2.44392-.71821,10.61071,10.61071,0,0,1-2.39557,1.43719c-1.10186.52714-4.50339,4.02381-4.69522,4.264-.4788.62229-.76578,1.38884-1.24535,2.06025a7.24209,7.24209,0,0,0-1.2937,1.86842,7.89467,7.89467,0,0,0,1.86842-1.15021,23.974,23.974,0,0,1,4.45582-1.96437,11.103,11.103,0,0,0,2.34722-.81412c.719-.47957.76733-1.5331,2.06024-1.5331.14426,0,.28775.04757.4312.04757a3.673,3.673,0,0,1,1.82085,1.006h.33531a1.59951,1.59951,0,0,1,.719.14425,3.06551,3.06551,0,0,1,.33531,1.34127c0,1.10187-.67141,1.96437-1.24613,3.0662a9.415,9.415,0,0,0-.81412,4.02455c0,5.31751,2.92194,6.32346,3.83276,6.32346a5.35753,5.35753,0,0,0,2.77845-1.43718c2.29965-2.06026,3.68927-5.07811,5.50934-7.52125Z"/><path d="M229.54475,65.39848c-15.19336.793-17.92968,9.50489-18.57812,16.99414v.71973c0,3.67285,2.376,6.84082,5.75976,7.27246,3.16895.36035,5.18555.50391,5.18555,2.59278v.28808c-.14453,1.94336-2.0166,3.02344-4.32031,3.02344a10.76636,10.76636,0,0,1-1.44043-.14356c-6.04883-.93652-8.06543-4.89648-8.06543-10.22461a27.48239,27.48239,0,0,1,.2168-3.38476c1.08007-7.84863,4.46484-13.60938,8.85644-17.35352-20.45019,5.041-20.88183,7.63282-25.20215,9.14551a4.21559,4.21559,0,0,1-1.584.35938c-.93555,0-1.65625-.57618-1.80078-2.376v-.43164c0-1.29688.64844-1.87305,2.0166-2.59277,2.30371-1.22364,2.73633-1.00782,4.46387-2.08789,7.84961-4.68067,22.17871-19.00977,22.17871-21.7461a.39788.39788,0,0,0-.21582-.36035c-.07227,0-.14453-.07129-.2168-.07129-1.584,0-9.7207,4.03223-10.65625,4.6084-2.0166,1.08008-3.09668,1.00781-4.60937-.2168-.93555-.71972-1.51172-2.59179-1.51172-4.3916v-.28809c0-.5039.14453-.792.5039-.792a1.994,1.994,0,0,1,.86426.35938,7.774,7.774,0,0,0,4.75293.64844c2.30371-.28809,6.12012-1.15235,8.71289-1.79981,1.51172-.28809,2.87988-1.00879,3.96-1.00879a1.4133,1.4133,0,0,1,1.08008.36035,11.24583,11.24583,0,0,1,2.80762,2.8086,2.495,2.495,0,0,1,.57617,1.51172c0,.93652-.86328,1.51171-1.51172,1.94433-6.83984,5.04-16.12891,13.75293-25.49023,19.51367,9.43359-3.02441,16.05761-4.82422,23.11425-6.48047,3.02442-.7207,4.248-1.29589,5.97657-1.29589a13.43118,13.43118,0,0,1,3.88769.64746c2.08887.57617,2.95313,1.2959,2.95313,2.16015C232.20882,64.751,231.05647,65.32719,229.54475,65.39848Z"/><path d="M270.36507,73.89555c-1.08008,3.168-3.168,8.78516-3.168,14.25782,0,1.584.14453,2.73535.14453,3.67187a4.31968,4.31968,0,0,1-.2168,1.44043,1.40691,1.40691,0,0,1-1.36816.93555,3.06516,3.06516,0,0,1-2.23145-1.2959c-1.94531-2.30469-2.44922-7.417-2.44922-10.585V81.168a119.23173,119.23173,0,0,1,1.873-21.09766,75.49187,75.49187,0,0,0,.86328-9.28906,9.23156,9.23156,0,0,0-.64746-4.10352,1.72127,1.72127,0,0,1-.28808-.86426.34009.34009,0,0,1,.35937-.36035,1.93669,1.93669,0,0,1,.93652.28809,8.44492,8.44492,0,0,1,4.53614,7.417,9.61639,9.61639,0,0,1-.50391,2.80762c-2.51953,7.48925-4.39258,13.60937-4.39258,20.80957a41.99308,41.99308,0,0,0,.28906,5.11328c2.0879-3.60059,4.67969-7.63281,5.4004-8.71289.5039-.72071.86328-1.08008,1.00781-1.08008.14355,0,.14355.14355.14355.35937A4.89025,4.89025,0,0,1,270.36507,73.89555Zm38.09179,18.86622a1.40608,1.40608,0,0,1-1.08007.43164c-1.08008,0-2.23243-1.22461-3.67286-2.52051a37.58248,37.58248,0,0,0-4.68066-3.74414c-1.43945,3.168-4.03125,4.32031-7.7041,4.32031a18.828,18.828,0,0,1-1.94434-.07227c-4.53613-.35937-9.43262-2.59179-9.43262-5.832,0-.14453.07129-.36035.07129-.5039.28907-1.72852.07227-4.1045,3.02539-5.041a11.538,11.538,0,0,1,3.31153-.43164,32.83118,32.83118,0,0,1,9.07324,1.51172c.07227-1.87207.14355-4.24805.14355-6.98438,0-3.67187-.07128-8.06445-.21582-12.38476a59.50956,59.50956,0,0,1-9.86523,1.15234,11.10585,11.10585,0,0,1-1.584-.07226,9.64473,9.64473,0,0,1-4.10352-1.00782c-.36035-.28808-.57617-.50488-.57617-.57617,0-.21679.28711-.21679,1.08008-.28808A62.66638,62.66638,0,0,0,295.20686,58.126c-.07129-1.7998-.14355-3.67187-.21484-5.40039a8.8734,8.8734,0,0,0-2.377-5.97656c-.64844-.50391-.93555-.86426-.93555-1.15234,0-.28711.43164-.43164,1.36719-.50391h.21679c3.24024,0,5.832,1.44043,6.55274,2.73633a2.67757,2.67757,0,0,1,.5039,1.44043c0,.93554-.5039,1.87207-.64843,3.74414-.07227,1.22461-.14453,2.30469-.21582,3.456A26.231,26.231,0,0,1,303.2,55.17387c2.52051-.36035,3.96.14454,4.03222,1.5127v.14355c0,1.44043-2.01562,1.94434-3.96,2.73633-1.08008.36035-2.5205.71973-4.10449,1.08008-.14453,2.80859-.14453,5.32813-.14453,7.56055,0,7.20117.43262,11.44922.57617,14.3291a43.3747,43.3747,0,0,1,7.417,4.53613,5.6524,5.6524,0,0,1,2.16016,3.96094A2.236,2.236,0,0,1,308.45686,92.76177ZM285.55843,82.39262h-1.00782c-1.51172.14356-2.95215.93555-2.95215,2.0879a2.10231,2.10231,0,0,0,.14356.64843c.43164,1.22364,5.11328,1.94336,6.91309,2.08789.36035,0,.71972.07227,1.15136.07227,2.377,0,4.68067-.64844,5.3291-2.59277A25.54449,25.54449,0,0,0,285.55843,82.39262Zm23.834-30.38671a1.61488,1.61488,0,0,1-.71973-.21582c-1.7998-.792-3.24023-4.39258-5.61621-7.12891-.14453-.28809-.28906-.43164-.28906-.57617,0-.07227,0-.07227.14453-.07227a1.31138,1.31138,0,0,1,.64844.14453,21.34585,21.34585,0,0,1,4.46484,1.94434c.50391-.792.791-1.15234,1.00782-1.5127.2871-.43164.43164-.64746.57617-.64746.14355,0,.21484.43164.21484,1.15137,0,3.38477.7207,3.74512.793,4.6084v.28808C310.617,50.7813,310.32893,52.00591,309.39241,52.00591Zm7.417-2.88086c-1.2959,0-2.0166-1.51172-2.59277-2.23145a28.216,28.216,0,0,0-4.03125-4.89648c-.50488-.36035-.7207-.50391-.7207-.64844,0-.07227.07226-.07227.21582-.07227a2.13307,2.13307,0,0,1,.86425.14453c3.168.93555,5.832,2.16016,7.12891,4.1045,1.00781,1.43945,1.00781,2.80761,0,3.38379A1.911,1.911,0,0,1,316.8094,49.12505Z"/><path d="M352.01448,72.81548a4.367,4.367,0,0,1-4.32031-4.248,4.30326,4.30326,0,0,1,4.32031-4.39258,4.36277,4.36277,0,0,1,4.39258,4.39258A4.43167,4.43167,0,0,1,352.01448,72.81548Z"/><path d="M413.28694,85.92094c-2.73633,5.04-8.56836,9.64844-14.9043,12.67286a2.94123,2.94123,0,0,1-.86523.21582c-.14355,0-.21484-.07227-.21484-.14356,0-.21582.28711-.5039.93554-1.00879a38.29156,38.29156,0,0,0,11.377-14.90527c1.584-3.8877,2.44824-9.93652,2.44824-15.26465a33.69488,33.69488,0,0,0-.64746-7.05664c-.50489-2.0166-1.5127-2.95215-2.88086-2.95215a4.82715,4.82715,0,0,0-1.29688.21582c-5.61523,2.08789-10.87207,6.84082-14.47265,6.84082a3.48353,3.48353,0,0,1-.86328-.07226,6.14944,6.14944,0,0,1-3.457-3.3125,4.61079,4.61079,0,0,1-.35937-1.15235c0-.28808.21484-.35937.57519-.35937.14356,0,.43262.07129.71973.07129.28906,0,.57617.07226.86524.07226,4.96777,0,11.66406-3.168,16.20117-3.96a12.24688,12.24688,0,0,1,2.23242-.21582c4.75195,0,7.416,3.31153,7.91992,8.42383a41.96264,41.96264,0,0,1,.28809,5.25684C416.88753,75.40825,415.66389,81.4561,413.28694,85.92094Zm-1.2959-39.0996c-.28808,0-.64746-.07227-.93652-.07227a68.81444,68.81444,0,0,0-8.78418,2.52051,5.78177,5.78177,0,0,1-1.15137.36035c-.07226,0-.14453,0-.14453-.07227,0-.14453.28809-.43261.93555-1.00781,1.22461-1.15234,2.44922-2.23242,3.8164-3.3125a8.37041,8.37041,0,0,1-4.248-4.6084,4.484,4.484,0,0,1-.28809-1.00781.33984.33984,0,0,1,.36035-.36035,2.948,2.948,0,0,1,1.15235.28808,15.58941,15.58941,0,0,0,7.05664,1.65625c.43164,0,.86328-.07226,1.29492-.07226h.14453a4.18833,4.18833,0,0,1,3.60059,1.94433,4.5582,4.5582,0,0,1,.36035,1.51172C415.16,46.1729,413.71956,46.82134,411.991,46.82134Z"/><path d="M488.88753,92.545a72.216,72.216,0,0,1-8.209.57617c-7.63183,0-15.55371-1.65625-17.35351-7.48828a9.06077,9.06077,0,0,1-.36035-2.376c0-4.17676,3.02539-8.209,6.98535-12.31347a11.84166,11.84166,0,0,1-3.88867-7.63282c-.50391-3.60058-.21582-8.06445-.57618-10.72851a5.89777,5.89777,0,0,0-1.29589-3.38477c-.86426-1.08008-1.584-1.51172-2.16016-2.23242a.99392.99392,0,0,1-.35938-.64746c0-.28809.35938-.57617,1.29493-.7207a5.5084,5.5084,0,0,1,1.08007-.07129,11.80945,11.80945,0,0,1,4.03321.86425,5.02161,5.02161,0,0,1,3.02343,3.02344v.36035c0,.86426-.71972,1.22461-1.00781,2.87989-.14355,1.44043-.5039,4.96875-.5039,7.417a11.36831,11.36831,0,0,0,3.0957,8.13672c2.88086-2.73633,5.90527-5.47266,8.56933-8.35254,1.22364-1.2959,3.02442-2.87988,3.09668-4.75293v-.86328c0-.43262.07227-.57617.57618-.57617h.43164c1.43945.14355,5.75976,1.72753,6.33593,4.46386v.14453c0,.86426-1.22363.93555-2.30371,1.72754-4.3916,3.3125-9.28808,6.69727-13.46582,10.00879a1.56331,1.56331,0,0,1,1.08106,1.36817c0,.792-.792,1.585-2.30469,1.585a7.51121,7.51121,0,0,1-1.94434-.36035c-4.39257,3.74414-7.48828,7.27246-7.48828,10.36914a4.09319,4.09319,0,0,0,.21582,1.29589c.93653,3.168,4.39258,4.03223,8.49707,4.03223,4.82422,0,10.5127-1.15234,14.041-1.22461h.2168c2.80761,0,4.3916,1.22461,4.3916,2.59278v.07226C492.56038,91.1768,491.119,92.25688,488.88753,92.545Zm6.76855-37.94727a1.60907,1.60907,0,0,1-.7207-.21582c-1.79981-.792-3.168-4.39258-5.61524-7.1289a.95282.95282,0,0,1-.21679-.50391c0-.07129.07226-.14355.21679-.14355a1.72931,1.72931,0,0,1,.71875.14355,21.083,21.083,0,0,1,4.249,2.0166c.5039-.792.792-1.22461,1.00879-1.65625.28711-.43164.43164-.57617.57519-.57617s.21582.36035.21582,1.08008c0,3.38476.793,3.8164.793,4.68066C496.88069,53.086,496.73616,54.5977,495.65608,54.5977Zm7.416-2.87988c-1.29492,0-2.01563-1.44043-2.5918-2.23242a25.79832,25.79832,0,0,0-4.03223-4.89649c-.57617-.5039-.71972-.71972-.43261-.71972a3.559,3.559,0,0,1,.86523.21582c3.0957.86426,5.75977,2.08789,7.05664,4.03222,1.08008,1.44043,1.08008,2.73633,0,3.38477A1.92763,1.92763,0,0,1,503.0721,51.71782Z"/><path d="M576.15218,71.44731c-2.08789,14.25781-3.8877,18.64942-10.72852,22.10645a10.94822,10.94822,0,0,1-4.89648,1.22363,9.55636,9.55636,0,0,1-6.625-2.66406c-3.3125-3.168-6.12012-13.60938-7.27149-17.6416-.14453-.43164-.28906-.64844-.43262-.64844-.21582,0-.5039.2168-.93652.57617-4.03223,3.81641-8.71289,12.457-11.23242,16.27344-.7207,1.15234-1.15234,2.73633-1.94434,3.16894a2.04754,2.04754,0,0,1-.93652.28711,4.03175,4.03175,0,0,1-2.51953-1.36718,4.10249,4.10249,0,0,1-1.00781-2.44825,4.03047,4.03047,0,0,1,.5039-1.80078c2.73633-5.68847,4.752-10.585,6.19238-14.25683,4.82422-11.88086,10.80079-22.03418,10.94434-27.93848v-.28809c0-2.0166-.64746-1.87207-1.36719-2.87988-.28906-.57617.14356-.93652,1.29493-.93652a13.3436,13.3436,0,0,1,1.51269.14355,7.50473,7.50473,0,0,1,3.45606,1.5127,5.06336,5.06336,0,0,1,1.65625,3.456,3.79587,3.79587,0,0,1-.43165,1.65625c-2.08789,3.81641-5.25683,9.14453-6.19335,10.873-2.87891,5.04-10.22461,18.86523-11.73633,24.48242,3.38476-2.95312,8.49609-9.9375,11.377-12.60156,1.00781-.93555.93555-1.2959,2.5918-1.44043h.43261c1.584,0,3.24024.64844,3.60059,2.08887.50391,1.65625.93555,13.82519,4.75195,18.07324a2.84561,2.84561,0,0,0,2.16016,1.15234,7.15446,7.15446,0,0,0,3.38477-1.22461C566.28792,87.793,572.04866,80.376,575.21663,71.087c.21582-.792.50391-1.22363.71973-1.22363.14355,0,.28808.28808.28808.792A3.21854,3.21854,0,0,1,576.15218,71.44731Z"/></svg>